M48
; DRILL file {KiCad 9.0.7} date 2026-04-29T12:37:19+0300
; FORMAT={-:-/ absolute / metric / decimal}
; #@! TF.CreationDate,2026-04-29T12:37:19+03:00
; #@! TF.GenerationSoftware,Kicad,Pcbnew,9.0.7
; #@! TF.FileFunction,MixedPlating,1,2
FMAT,2
METRIC
; #@! TA.AperFunction,Plated,PTH,ComponentDrill
T1C0.200
; #@! TA.AperFunction,Plated,PTH,ViaDrill
T2C0.300
; #@! TA.AperFunction,Plated,PTH,ComponentDrill
T3C0.600
; #@! TA.AperFunction,Plated,PTH,ComponentDrill
T4C0.650
; #@! TA.AperFunction,Plated,PTH,ComponentDrill
T5C0.800
; #@! TA.AperFunction,Plated,PTH,ComponentDrill
T6C1.000
; #@! TA.AperFunction,NonPlated,NPTH,ComponentDrill
T7C0.650
%
G90
G05
T1
X72.495Y-72.642
X72.495Y-74.167
X73.257Y-71.88
X73.257Y-73.405
X73.257Y-74.93
X74.02Y-72.642
X74.02Y-74.167
X74.782Y-71.88
X74.782Y-73.405
X74.782Y-74.93
X75.545Y-72.642
X75.545Y-74.167
T2
X58.5Y-72.0
X76.9Y-89.4
X80.5Y-103.1
X80.7Y-76.0
X93.5Y-75.2
X93.9Y-90.7
X94.8Y-71.5
X100.8Y-108.4
X108.6Y-109.2
T4
X41.732Y-75.4
X43.633Y-75.4
T5
X56.0Y-95.3
X59.5Y-95.3
X76.853Y-95.4
X80.353Y-95.4
T6
X111.22Y-103.3
X111.22Y-105.84
T7
X105.23Y-75.45
X111.01Y-75.45
T3
G00X103.8Y-74.37
M15
G01X103.8Y-75.47
M16
G05
G00X103.8Y-78.8
M15
G01X103.8Y-79.4
M16
G05
G00X112.44Y-74.37
M15
G01X112.44Y-75.47
M16
G05
G00X112.44Y-78.8
M15
G01X112.44Y-79.4
M16
G05
T6
G00X99.3Y-92.76
M15
G01X99.3Y-90.76
M16
G05
G00X103.3Y-87.06
M15
G01X101.3Y-87.06
M16
G05
G00X105.3Y-92.76
M15
G01X105.3Y-90.76
M16
G05
M30
