%TF.GenerationSoftware,KiCad,Pcbnew,9.0.7*%
%TF.CreationDate,2026-04-29T13:09:46+03:00*%
%TF.ProjectId,PawsLink IoT,50617773-4c69-46e6-9b20-496f542e6b69,rev?*%
%TF.SameCoordinates,Original*%
%TF.FileFunction,Copper,L2,Bot*%
%TF.FilePolarity,Positive*%
%FSLAX46Y46*%
G04 Gerber Fmt 4.6, Leading zero omitted, Abs format (unit mm)*
G04 Created by KiCad (PCBNEW 9.0.7) date 2026-04-29 13:09:46*
%MOMM*%
%LPD*%
G01*
G04 APERTURE LIST*
G04 Aperture macros list*
%AMRoundRect*
0 Rectangle with rounded corners*
0 $1 Rounding radius*
0 $2 $3 $4 $5 $6 $7 $8 $9 X,Y pos of 4 corners*
0 Add a 4 corners polygon primitive as box body*
4,1,4,$2,$3,$4,$5,$6,$7,$8,$9,$2,$3,0*
0 Add four circle primitives for the rounded corners*
1,1,$1+$1,$2,$3*
1,1,$1+$1,$4,$5*
1,1,$1+$1,$6,$7*
1,1,$1+$1,$8,$9*
0 Add four rect primitives between the rounded corners*
20,1,$1+$1,$2,$3,$4,$5,0*
20,1,$1+$1,$4,$5,$6,$7,0*
20,1,$1+$1,$6,$7,$8,$9,0*
20,1,$1+$1,$8,$9,$2,$3,0*%
G04 Aperture macros list end*
%TA.AperFunction,HeatsinkPad*%
%ADD10O,1.000000X2.100000*%
%TD*%
%TA.AperFunction,HeatsinkPad*%
%ADD11O,1.000000X1.600000*%
%TD*%
%TA.AperFunction,ComponentPad*%
%ADD12RoundRect,0.250000X0.550000X0.550000X-0.550000X0.550000X-0.550000X-0.550000X0.550000X-0.550000X0*%
%TD*%
%TA.AperFunction,ComponentPad*%
%ADD13C,1.600000*%
%TD*%
%TA.AperFunction,ComponentPad*%
%ADD14RoundRect,0.250000X-0.250000X-0.250000X0.250000X-0.250000X0.250000X0.250000X-0.250000X0.250000X0*%
%TD*%
%TA.AperFunction,ComponentPad*%
%ADD15C,1.000000*%
%TD*%
%TA.AperFunction,HeatsinkPad*%
%ADD16C,0.600000*%
%TD*%
%TA.AperFunction,ComponentPad*%
%ADD17R,1.700000X1.700000*%
%TD*%
%TA.AperFunction,ComponentPad*%
%ADD18C,1.700000*%
%TD*%
%TA.AperFunction,ComponentPad*%
%ADD19R,3.500000X3.500000*%
%TD*%
%TA.AperFunction,ComponentPad*%
%ADD20RoundRect,0.750000X0.750000X1.000000X-0.750000X1.000000X-0.750000X-1.000000X0.750000X-1.000000X0*%
%TD*%
%TA.AperFunction,ComponentPad*%
%ADD21RoundRect,0.875000X0.875000X0.875000X-0.875000X0.875000X-0.875000X-0.875000X0.875000X-0.875000X0*%
%TD*%
%TA.AperFunction,ViaPad*%
%ADD22C,0.600000*%
%TD*%
%TA.AperFunction,Conductor*%
%ADD23C,0.250000*%
%TD*%
%TA.AperFunction,Conductor*%
%ADD24C,0.200000*%
%TD*%
G04 APERTURE END LIST*
D10*
%TO.P,J2,S1,SHIELD*%
%TO.N,GND*%
X103800000Y-74920000D03*
D11*
X103800000Y-79100000D03*
D10*
X112440000Y-74920000D03*
D11*
X112440000Y-79100000D03*
%TD*%
D12*
%TO.P,C1,1*%
%TO.N,Net-(D1-A)*%
X80352651Y-95400000D03*
D13*
%TO.P,C1,2*%
%TO.N,GND*%
X76852651Y-95400000D03*
%TD*%
D14*
%TO.P,MK1,1,-*%
%TO.N,Net-(MK1--)*%
X41732500Y-75400000D03*
D15*
%TO.P,MK1,2,+*%
%TO.N,Net-(MK1-+)*%
X43632500Y-75400000D03*
%TD*%
D16*
%TO.P,U1,39,GND*%
%TO.N,GND*%
X72495000Y-72642500D03*
X72495000Y-74167500D03*
X73257500Y-71880000D03*
X73257500Y-73405000D03*
X73257500Y-74930000D03*
X74020000Y-72642500D03*
X74020000Y-74167500D03*
X74782500Y-71880000D03*
X74782500Y-73405000D03*
X74782500Y-74930000D03*
X75545000Y-72642500D03*
X75545000Y-74167500D03*
%TD*%
D17*
%TO.P,J3,1,Pin_1*%
%TO.N,Net-(J3-Pin_1)*%
X111220000Y-105840000D03*
D18*
%TO.P,J3,2,Pin_2*%
%TO.N,Net-(J3-Pin_2)*%
X111220000Y-103300000D03*
%TD*%
D19*
%TO.P,J1,1*%
%TO.N,Net-(D1-K)*%
X99300000Y-91760000D03*
D20*
%TO.P,J1,2*%
%TO.N,GND*%
X105300000Y-91760000D03*
D21*
%TO.P,J1,3*%
%TO.N,N/C*%
X102300000Y-87060000D03*
%TD*%
D12*
%TO.P,C2,1*%
%TO.N,Net-(U1-IO21)*%
X59500000Y-95300000D03*
D13*
%TO.P,C2,2*%
%TO.N,GND*%
X56000000Y-95300000D03*
%TD*%
D22*
%TO.N,GND*%
X58500000Y-72000000D03*
%TO.N,Net-(D1-A)*%
X76900000Y-89400000D03*
X93500000Y-75200000D03*
%TO.N,Net-(U1-IO19)*%
X80700000Y-76000000D03*
X80500000Y-103100000D03*
%TO.N,Net-(U1-IO22)*%
X108600000Y-109200000D03*
X94800000Y-71500000D03*
%TO.N,Net-(U1-IO18)*%
X100800000Y-108400000D03*
X93900000Y-90700000D03*
%TD*%
D23*
%TO.N,Net-(D1-A)*%
X93400000Y-75100000D02*
X77100000Y-75100000D01*
X93500000Y-75200000D02*
X93400000Y-75100000D01*
X77100000Y-89200000D02*
X76900000Y-89400000D01*
X77100000Y-75100000D02*
X77100000Y-89200000D01*
D24*
%TO.N,Net-(U1-IO19)*%
X80500000Y-97500000D02*
X82200000Y-95800000D01*
X80500000Y-91200000D02*
X80500000Y-76200000D01*
X80500000Y-103100000D02*
X80500000Y-97500000D01*
X82200000Y-92900000D02*
X80500000Y-91200000D01*
X82200000Y-95800000D02*
X82200000Y-92900000D01*
X80500000Y-76200000D02*
X80700000Y-76000000D01*
%TO.N,Net-(U1-IO22)*%
X94800000Y-71500000D02*
X102200000Y-78900000D01*
X102200000Y-78900000D02*
X102200000Y-82000000D01*
X103500000Y-82000000D02*
X108600000Y-87100000D01*
X108600000Y-87100000D02*
X108600000Y-109200000D01*
X102200000Y-82000000D02*
X103500000Y-82000000D01*
D23*
%TO.N,Net-(U1-IO18)*%
X93900000Y-107700000D02*
X93900000Y-90700000D01*
X94600000Y-108400000D02*
X93900000Y-107700000D01*
X100800000Y-108400000D02*
X94600000Y-108400000D01*
%TD*%
%TA.AperFunction,Conductor*%
%TO.N,GND*%
G36*
X113377826Y-65021674D02*
G01*
X113399500Y-65074000D01*
X113399500Y-73762094D01*
X113377826Y-73814420D01*
X113325500Y-73836094D01*
X113273174Y-73814420D01*
X113263971Y-73803207D01*
X113216750Y-73732537D01*
X113077459Y-73593246D01*
X112913675Y-73483809D01*
X112731691Y-73408429D01*
X112731684Y-73408427D01*
X112690000Y-73400136D01*
X112690000Y-74203011D01*
X112680060Y-74185795D01*
X112624205Y-74129940D01*
X112555796Y-74090444D01*
X112479496Y-74070000D01*
X112400504Y-74070000D01*
X112324204Y-74090444D01*
X112255795Y-74129940D01*
X112199940Y-74185795D01*
X112190000Y-74203011D01*
X112190000Y-73400136D01*
X112189999Y-73400136D01*
X112148315Y-73408427D01*
X112148308Y-73408429D01*
X111966324Y-73483809D01*
X111802540Y-73593246D01*
X111663246Y-73732540D01*
X111553809Y-73896324D01*
X111478430Y-74078306D01*
X111478427Y-74078317D01*
X111440000Y-74271509D01*
X111440000Y-74670000D01*
X112140000Y-74670000D01*
X112140000Y-75170000D01*
X111555596Y-75170000D01*
X111503270Y-75148326D01*
X111491510Y-75133000D01*
X111480480Y-75113896D01*
X111470515Y-75096635D01*
X111363365Y-74989485D01*
X111363362Y-74989483D01*
X111232139Y-74913721D01*
X111232130Y-74913717D01*
X111085768Y-74874500D01*
X111085766Y-74874500D01*
X110934234Y-74874500D01*
X110934232Y-74874500D01*
X110787869Y-74913717D01*
X110787860Y-74913721D01*
X110656637Y-74989483D01*
X110549483Y-75096637D01*
X110473721Y-75227860D01*
X110473717Y-75227869D01*
X110434500Y-75374231D01*
X110434500Y-75525768D01*
X110473717Y-75672130D01*
X110473721Y-75672139D01*
X110548651Y-75801921D01*
X110549485Y-75803365D01*
X110656635Y-75910515D01*
X110787865Y-75986281D01*
X110934231Y-76025499D01*
X110934232Y-76025500D01*
X110934234Y-76025500D01*
X111085768Y-76025500D01*
X111085768Y-76025499D01*
X111232135Y-75986281D01*
X111363365Y-75910515D01*
X111410006Y-75863873D01*
X111462330Y-75842199D01*
X111514656Y-75863873D01*
X111530698Y-75887880D01*
X111553810Y-75943677D01*
X111663246Y-76107459D01*
X111802540Y-76246753D01*
X111966324Y-76356190D01*
X112148306Y-76431569D01*
X112148317Y-76431572D01*
X112189999Y-76439863D01*
X112190000Y-76439863D01*
X112190000Y-75636988D01*
X112199940Y-75654205D01*
X112255795Y-75710060D01*
X112324204Y-75749556D01*
X112400504Y-75770000D01*
X112479496Y-75770000D01*
X112555796Y-75749556D01*
X112624205Y-75710060D01*
X112680060Y-75654205D01*
X112690000Y-75636988D01*
X112690000Y-76439863D01*
X112731682Y-76431572D01*
X112731693Y-76431569D01*
X112913675Y-76356190D01*
X113077459Y-76246753D01*
X113216753Y-76107459D01*
X113263971Y-76036793D01*
X113311063Y-76005327D01*
X113366612Y-76016376D01*
X113398078Y-76063468D01*
X113399500Y-76077905D01*
X113399500Y-78192094D01*
X113377826Y-78244420D01*
X113325500Y-78266094D01*
X113273174Y-78244420D01*
X113263971Y-78233207D01*
X113216750Y-78162537D01*
X113077459Y-78023246D01*
X112913675Y-77913809D01*
X112731691Y-77838429D01*
X112731684Y-77838427D01*
X112690000Y-77830136D01*
X112690000Y-78633011D01*
X112680060Y-78615795D01*
X112624205Y-78559940D01*
X112555796Y-78520444D01*
X112479496Y-78500000D01*
X112400504Y-78500000D01*
X112324204Y-78520444D01*
X112255795Y-78559940D01*
X112199940Y-78615795D01*
X112190000Y-78633011D01*
X112190000Y-77830136D01*
X112189999Y-77830136D01*
X112148315Y-77838427D01*
X112148308Y-77838429D01*
X111966324Y-77913809D01*
X111802540Y-78023246D01*
X111663246Y-78162540D01*
X111553809Y-78326324D01*
X111478430Y-78508306D01*
X111478427Y-78508317D01*
X111440000Y-78701509D01*
X111440000Y-78850000D01*
X112140000Y-78850000D01*
X112140000Y-79350000D01*
X111440000Y-79350000D01*
X111440000Y-79498490D01*
X111478427Y-79691682D01*
X111478430Y-79691693D01*
X111553809Y-79873675D01*
X111663246Y-80037459D01*
X111802540Y-80176753D01*
X111966324Y-80286190D01*
X112148306Y-80361569D01*
X112148317Y-80361572D01*
X112189999Y-80369863D01*
X112190000Y-80369863D01*
X112190000Y-79566988D01*
X112199940Y-79584205D01*
X112255795Y-79640060D01*
X112324204Y-79679556D01*
X112400504Y-79700000D01*
X112479496Y-79700000D01*
X112555796Y-79679556D01*
X112624205Y-79640060D01*
X112680060Y-79584205D01*
X112690000Y-79566988D01*
X112690000Y-80369863D01*
X112731682Y-80361572D01*
X112731693Y-80361569D01*
X112913675Y-80286190D01*
X113077459Y-80176753D01*
X113216753Y-80037459D01*
X113263971Y-79966793D01*
X113311063Y-79935327D01*
X113366612Y-79946376D01*
X113398078Y-79993468D01*
X113399500Y-80007905D01*
X113399500Y-110825500D01*
X113377826Y-110877826D01*
X113325500Y-110899500D01*
X80759410Y-110899500D01*
X80758508Y-110899494D01*
X39872138Y-110400879D01*
X39820080Y-110378569D01*
X39799046Y-110327864D01*
X39702775Y-103043321D01*
X80069500Y-103043321D01*
X80069500Y-103156678D01*
X80098836Y-103266163D01*
X80098838Y-103266168D01*
X80155514Y-103364333D01*
X80235667Y-103444486D01*
X80333833Y-103501162D01*
X80333834Y-103501162D01*
X80333836Y-103501163D01*
X80388578Y-103515831D01*
X80443321Y-103530499D01*
X80443322Y-103530500D01*
X80443324Y-103530500D01*
X80556678Y-103530500D01*
X80556678Y-103530499D01*
X80666167Y-103501162D01*
X80764333Y-103444486D01*
X80844486Y-103364333D01*
X80901162Y-103266167D01*
X80930499Y-103156678D01*
X80930500Y-103156678D01*
X80930500Y-103043322D01*
X80930499Y-103043321D01*
X80901163Y-102933836D01*
X80901161Y-102933831D01*
X80844485Y-102835666D01*
X80844378Y-102835559D01*
X80764333Y-102755514D01*
X80764330Y-102755512D01*
X80760484Y-102752561D01*
X80762157Y-102750380D01*
X80733021Y-102712409D01*
X80730500Y-102693257D01*
X80730500Y-97626127D01*
X80752173Y-97573802D01*
X82320159Y-96005815D01*
X82320162Y-96005814D01*
X82330567Y-95995409D01*
X82330568Y-95995409D01*
X82395409Y-95930568D01*
X82417819Y-95876465D01*
X82430501Y-95845850D01*
X82430501Y-95754151D01*
X82430501Y-95748193D01*
X82430500Y-95748179D01*
X82430500Y-92954469D01*
X82430501Y-92954460D01*
X82430501Y-92854149D01*
X82409944Y-92804522D01*
X82409943Y-92804521D01*
X82395410Y-92769434D01*
X82395408Y-92769431D01*
X82326353Y-92700376D01*
X82326346Y-92700370D01*
X80752174Y-91126198D01*
X80730500Y-91073872D01*
X80730500Y-90643321D01*
X93469500Y-90643321D01*
X93469500Y-90756678D01*
X93498836Y-90866163D01*
X93498838Y-90866168D01*
X93555514Y-90964333D01*
X93622826Y-91031645D01*
X93644500Y-91083969D01*
X93644500Y-107750823D01*
X93683395Y-107844726D01*
X93683398Y-107844730D01*
X93765678Y-107927010D01*
X93765679Y-107927010D01*
X94383396Y-108544728D01*
X94383397Y-108544729D01*
X94455271Y-108616603D01*
X94510280Y-108639388D01*
X94549177Y-108655500D01*
X94549178Y-108655500D01*
X100416029Y-108655500D01*
X100468355Y-108677174D01*
X100535667Y-108744486D01*
X100633833Y-108801162D01*
X100633834Y-108801162D01*
X100633836Y-108801163D01*
X100675807Y-108812409D01*
X100743321Y-108830499D01*
X100743322Y-108830500D01*
X100743324Y-108830500D01*
X100856678Y-108830500D01*
X100856678Y-108830499D01*
X100966167Y-108801162D01*
X101064333Y-108744486D01*
X101144486Y-108664333D01*
X101201162Y-108566167D01*
X101230499Y-108456678D01*
X101230500Y-108456678D01*
X101230500Y-108343322D01*
X101230499Y-108343321D01*
X101201163Y-108233836D01*
X101201161Y-108233831D01*
X101185975Y-108207528D01*
X101144486Y-108135667D01*
X101064333Y-108055514D01*
X100966168Y-107998838D01*
X100966163Y-107998836D01*
X100856678Y-107969500D01*
X100856676Y-107969500D01*
X100743324Y-107969500D01*
X100743322Y-107969500D01*
X100633836Y-107998836D01*
X100633831Y-107998838D01*
X100535666Y-108055514D01*
X100468355Y-108122826D01*
X100416029Y-108144500D01*
X94736484Y-108144500D01*
X94684158Y-108122826D01*
X94177174Y-107615842D01*
X94155500Y-107563516D01*
X94155500Y-91083970D01*
X94177173Y-91031645D01*
X94244486Y-90964333D01*
X94301162Y-90866167D01*
X94330499Y-90756678D01*
X94330500Y-90756678D01*
X94330500Y-90643322D01*
X94330499Y-90643321D01*
X94301163Y-90533836D01*
X94301161Y-90533831D01*
X94244485Y-90435666D01*
X94164333Y-90355514D01*
X94066168Y-90298838D01*
X94066163Y-90298836D01*
X93956678Y-90269500D01*
X93956676Y-90269500D01*
X93843324Y-90269500D01*
X93843322Y-90269500D01*
X93733836Y-90298836D01*
X93733831Y-90298838D01*
X93635666Y-90355514D01*
X93555514Y-90435666D01*
X93498838Y-90533831D01*
X93498836Y-90533836D01*
X93469500Y-90643321D01*
X80730500Y-90643321D01*
X80730500Y-89997145D01*
X97419500Y-89997145D01*
X97419500Y-93522854D01*
X97427071Y-93560919D01*
X97455911Y-93604083D01*
X97455913Y-93604085D01*
X97455914Y-93604086D01*
X97499081Y-93632929D01*
X97537145Y-93640500D01*
X101062854Y-93640499D01*
X101100919Y-93632929D01*
X101144086Y-93604086D01*
X101172929Y-93560919D01*
X101180500Y-93522855D01*
X101180499Y-90695809D01*
X103300000Y-90695809D01*
X103300000Y-91510000D01*
X104800000Y-91510000D01*
X104800000Y-92010000D01*
X103300001Y-92010000D01*
X103300001Y-92824190D01*
X103310398Y-92956323D01*
X103310400Y-92956335D01*
X103365376Y-93174514D01*
X103365379Y-93174522D01*
X103458430Y-93379379D01*
X103586563Y-93564329D01*
X103745670Y-93723436D01*
X103930620Y-93851569D01*
X104135477Y-93944620D01*
X104135485Y-93944623D01*
X104353667Y-93999599D01*
X104353662Y-93999599D01*
X104485809Y-94009999D01*
X105050000Y-94009999D01*
X105050000Y-93193012D01*
X105107007Y-93225925D01*
X105234174Y-93260000D01*
X105365826Y-93260000D01*
X105492993Y-93225925D01*
X105550000Y-93193012D01*
X105550000Y-94009999D01*
X106114191Y-94009999D01*
X106246323Y-93999601D01*
X106246335Y-93999599D01*
X106464514Y-93944623D01*
X106464522Y-93944620D01*
X106669379Y-93851569D01*
X106854329Y-93723436D01*
X107013436Y-93564329D01*
X107141569Y-93379379D01*
X107234620Y-93174522D01*
X107234623Y-93174514D01*
X107289599Y-92956334D01*
X107300000Y-92824190D01*
X107300000Y-92010000D01*
X105800000Y-92010000D01*
X105800000Y-91510000D01*
X107299999Y-91510000D01*
X107299999Y-90695809D01*
X107289601Y-90563676D01*
X107289599Y-90563664D01*
X107234623Y-90345485D01*
X107234620Y-90345477D01*
X107141569Y-90140620D01*
X107013436Y-89955670D01*
X106854329Y-89796563D01*
X106669379Y-89668430D01*
X106464522Y-89575379D01*
X106464514Y-89575376D01*
X106246332Y-89520400D01*
X106246337Y-89520400D01*
X106114190Y-89510000D01*
X105550000Y-89510000D01*
X105550000Y-90326988D01*
X105492993Y-90294075D01*
X105365826Y-90260000D01*
X105234174Y-90260000D01*
X105107007Y-90294075D01*
X105050000Y-90326988D01*
X105050000Y-89510000D01*
X104485809Y-89510000D01*
X104353676Y-89520398D01*
X104353664Y-89520400D01*
X104135485Y-89575376D01*
X104135477Y-89575379D01*
X103930620Y-89668430D01*
X103745670Y-89796563D01*
X103586563Y-89955670D01*
X103458430Y-90140620D01*
X103365379Y-90345477D01*
X103365376Y-90345485D01*
X103310400Y-90563665D01*
X103300000Y-90695809D01*
X101180499Y-90695809D01*
X101180499Y-89997146D01*
X101172929Y-89959081D01*
X101163314Y-89944692D01*
X101144088Y-89915916D01*
X101144085Y-89915913D01*
X101100919Y-89887071D01*
X101062855Y-89879500D01*
X101062854Y-89879500D01*
X97537145Y-89879500D01*
X97499080Y-89887071D01*
X97455916Y-89915911D01*
X97455913Y-89915914D01*
X97427071Y-89959080D01*
X97419500Y-89997145D01*
X80730500Y-89997145D01*
X80730500Y-86126655D01*
X100419500Y-86126655D01*
X100419500Y-87993326D01*
X100419501Y-87993345D01*
X100430165Y-88113298D01*
X100430167Y-88113309D01*
X100486421Y-88309911D01*
X100486424Y-88309918D01*
X100581104Y-88491170D01*
X100581106Y-88491173D01*
X100710336Y-88649662D01*
X100710337Y-88649663D01*
X100868826Y-88778893D01*
X100868829Y-88778895D01*
X101050081Y-88873575D01*
X101050088Y-88873578D01*
X101246690Y-88929832D01*
X101246692Y-88929832D01*
X101246695Y-88929833D01*
X101366671Y-88940500D01*
X103233328Y-88940499D01*
X103233330Y-88940498D01*
X103233345Y-88940498D01*
X103353298Y-88929834D01*
X103353302Y-88929833D01*
X103353305Y-88929833D01*
X103353307Y-88929832D01*
X103353309Y-88929832D01*
X103549911Y-88873578D01*
X103549911Y-88873577D01*
X103549914Y-88873577D01*
X103731173Y-88778894D01*
X103889663Y-88649663D01*
X104018894Y-88491173D01*
X104113577Y-88309914D01*
X104169833Y-88113305D01*
X104180500Y-87993329D01*
X104180499Y-86126672D01*
X104180498Y-86126670D01*
X104180498Y-86126654D01*
X104169834Y-86006701D01*
X104169832Y-86006690D01*
X104113578Y-85810088D01*
X104113575Y-85810081D01*
X104018895Y-85628829D01*
X104018893Y-85628826D01*
X103889663Y-85470337D01*
X103889662Y-85470336D01*
X103731173Y-85341106D01*
X103731170Y-85341104D01*
X103549918Y-85246424D01*
X103549911Y-85246421D01*
X103353309Y-85190167D01*
X103353298Y-85190166D01*
X103233336Y-85179500D01*
X101366673Y-85179500D01*
X101366654Y-85179501D01*
X101246701Y-85190165D01*
X101246690Y-85190167D01*
X101050088Y-85246421D01*
X101050081Y-85246424D01*
X100868829Y-85341104D01*
X100868826Y-85341106D01*
X100710337Y-85470336D01*
X100710336Y-85470337D01*
X100581106Y-85628826D01*
X100581104Y-85628829D01*
X100486424Y-85810081D01*
X100486421Y-85810088D01*
X100430167Y-86006690D01*
X100430166Y-86006701D01*
X100419500Y-86126655D01*
X80730500Y-86126655D01*
X80730500Y-76494296D01*
X80752174Y-76441970D01*
X80785344Y-76422818D01*
X80866167Y-76401162D01*
X80964333Y-76344486D01*
X81044486Y-76264333D01*
X81101162Y-76166167D01*
X81130499Y-76056678D01*
X81130500Y-76056678D01*
X81130500Y-75943322D01*
X81130499Y-75943321D01*
X81101163Y-75833836D01*
X81101161Y-75833831D01*
X81059512Y-75761693D01*
X81044486Y-75735667D01*
X80964333Y-75655514D01*
X80962066Y-75654205D01*
X80866168Y-75598838D01*
X80866163Y-75598836D01*
X80756678Y-75569500D01*
X80756676Y-75569500D01*
X80643324Y-75569500D01*
X80643322Y-75569500D01*
X80533836Y-75598836D01*
X80533831Y-75598838D01*
X80435666Y-75655514D01*
X80355514Y-75735666D01*
X80298838Y-75833831D01*
X80298836Y-75833836D01*
X80269500Y-75943321D01*
X80269500Y-76056676D01*
X80278857Y-76091600D01*
X80281127Y-76116846D01*
X80280173Y-76128377D01*
X80269499Y-76154150D01*
X80269499Y-76245850D01*
X80269500Y-76245852D01*
X80269500Y-76257528D01*
X80269500Y-91148178D01*
X80269499Y-91148192D01*
X80269499Y-91154150D01*
X80269499Y-91245850D01*
X80290055Y-91295476D01*
X80304591Y-91330568D01*
X80369432Y-91395409D01*
X80379839Y-91405816D01*
X80379841Y-91405817D01*
X81947826Y-92973802D01*
X81969500Y-93026128D01*
X81969500Y-95673871D01*
X81947826Y-95726197D01*
X80304590Y-97369433D01*
X80290054Y-97404525D01*
X80269499Y-97454148D01*
X80269499Y-97554461D01*
X80269500Y-97554470D01*
X80269500Y-102693257D01*
X80247826Y-102745583D01*
X80239225Y-102752182D01*
X80239516Y-102752561D01*
X80235668Y-102755513D01*
X80155514Y-102835666D01*
X80098838Y-102933831D01*
X80098836Y-102933836D01*
X80069500Y-103043321D01*
X39702775Y-103043321D01*
X39599088Y-95197687D01*
X54700000Y-95197687D01*
X54700000Y-95402312D01*
X54732009Y-95604414D01*
X54732012Y-95604427D01*
X54795240Y-95799021D01*
X54888139Y-95981349D01*
X54920524Y-96025921D01*
X55600000Y-95346445D01*
X55600000Y-95352661D01*
X55627259Y-95454394D01*
X55679920Y-95545606D01*
X55754394Y-95620080D01*
X55845606Y-95672741D01*
X55947339Y-95700000D01*
X55953553Y-95700000D01*
X55274077Y-96379475D01*
X55318651Y-96411860D01*
X55500978Y-96504759D01*
X55695572Y-96567987D01*
X55695585Y-96567990D01*
X55897687Y-96600000D01*
X56102313Y-96600000D01*
X56304414Y-96567990D01*
X56304427Y-96567987D01*
X56499021Y-96504759D01*
X56681349Y-96411860D01*
X56709503Y-96391405D01*
X56725921Y-96379475D01*
X56725922Y-96379475D01*
X56046447Y-95700000D01*
X56052661Y-95700000D01*
X56154394Y-95672741D01*
X56245606Y-95620080D01*
X56320080Y-95545606D01*
X56372741Y-95454394D01*
X56400000Y-95352661D01*
X56400000Y-95346447D01*
X57079475Y-96025922D01*
X57079475Y-96025921D01*
X57111860Y-95981348D01*
X57204759Y-95799021D01*
X57267987Y-95604427D01*
X57267990Y-95604414D01*
X57300000Y-95402312D01*
X57300000Y-95197687D01*
X57267990Y-94995585D01*
X57267987Y-94995572D01*
X57204759Y-94800978D01*
X57176139Y-94744807D01*
X57160384Y-94713885D01*
X58569500Y-94713885D01*
X58569500Y-95886114D01*
X58580276Y-95960073D01*
X58593005Y-95986110D01*
X58636049Y-96074157D01*
X58725843Y-96163951D01*
X58839928Y-96219724D01*
X58913890Y-96230500D01*
X58913896Y-96230500D01*
X60086104Y-96230500D01*
X60086110Y-96230500D01*
X60160072Y-96219724D01*
X60274157Y-96163951D01*
X60363951Y-96074157D01*
X60419724Y-95960072D01*
X60430500Y-95886110D01*
X60430500Y-95297687D01*
X75552651Y-95297687D01*
X75552651Y-95502312D01*
X75584660Y-95704414D01*
X75584663Y-95704427D01*
X75647891Y-95899021D01*
X75740790Y-96081349D01*
X75773175Y-96125921D01*
X76452651Y-95446445D01*
X76452651Y-95452661D01*
X76479910Y-95554394D01*
X76532571Y-95645606D01*
X76607045Y-95720080D01*
X76698257Y-95772741D01*
X76799990Y-95800000D01*
X76806204Y-95800000D01*
X76126728Y-96479475D01*
X76171302Y-96511860D01*
X76353629Y-96604759D01*
X76548223Y-96667987D01*
X76548236Y-96667990D01*
X76750338Y-96700000D01*
X76954964Y-96700000D01*
X77157065Y-96667990D01*
X77157078Y-96667987D01*
X77351672Y-96604759D01*
X77533999Y-96511860D01*
X77578572Y-96479475D01*
X77578573Y-96479475D01*
X76899098Y-95800000D01*
X76905312Y-95800000D01*
X77007045Y-95772741D01*
X77098257Y-95720080D01*
X77172731Y-95645606D01*
X77225392Y-95554394D01*
X77252651Y-95452661D01*
X77252651Y-95446447D01*
X77932126Y-96125922D01*
X77932126Y-96125921D01*
X77964511Y-96081348D01*
X78057410Y-95899021D01*
X78120638Y-95704427D01*
X78120641Y-95704414D01*
X78152651Y-95502312D01*
X78152651Y-95297687D01*
X78120641Y-95095585D01*
X78120638Y-95095572D01*
X78057410Y-94900978D01*
X78028790Y-94844807D01*
X78013035Y-94813885D01*
X79422151Y-94813885D01*
X79422151Y-95986114D01*
X79432927Y-96060073D01*
X79465119Y-96125921D01*
X79488700Y-96174157D01*
X79578494Y-96263951D01*
X79692579Y-96319724D01*
X79766541Y-96330500D01*
X79766547Y-96330500D01*
X80938755Y-96330500D01*
X80938761Y-96330500D01*
X81012723Y-96319724D01*
X81126808Y-96263951D01*
X81216602Y-96174157D01*
X81272375Y-96060072D01*
X81283151Y-95986110D01*
X81283151Y-94813890D01*
X81272375Y-94739928D01*
X81216602Y-94625843D01*
X81126808Y-94536049D01*
X81012724Y-94480276D01*
X80938765Y-94469500D01*
X80938761Y-94469500D01*
X79766541Y-94469500D01*
X79766536Y-94469500D01*
X79692577Y-94480276D01*
X79578493Y-94536049D01*
X79488700Y-94625842D01*
X79432927Y-94739926D01*
X79422151Y-94813885D01*
X78013035Y-94813885D01*
X77964511Y-94718651D01*
X77932126Y-94674077D01*
X77252651Y-95353552D01*
X77252651Y-95347339D01*
X77225392Y-95245606D01*
X77172731Y-95154394D01*
X77098257Y-95079920D01*
X77007045Y-95027259D01*
X76905312Y-95000000D01*
X76899096Y-95000000D01*
X77578572Y-94320524D01*
X77534000Y-94288139D01*
X77351672Y-94195240D01*
X77157078Y-94132012D01*
X77157065Y-94132009D01*
X76954964Y-94100000D01*
X76750338Y-94100000D01*
X76548236Y-94132009D01*
X76548223Y-94132012D01*
X76353629Y-94195240D01*
X76171301Y-94288139D01*
X76126728Y-94320523D01*
X76126728Y-94320524D01*
X76806204Y-95000000D01*
X76799990Y-95000000D01*
X76698257Y-95027259D01*
X76607045Y-95079920D01*
X76532571Y-95154394D01*
X76479910Y-95245606D01*
X76452651Y-95347339D01*
X76452651Y-95353553D01*
X75773175Y-94674077D01*
X75773174Y-94674077D01*
X75740790Y-94718650D01*
X75647891Y-94900978D01*
X75584663Y-95095572D01*
X75584660Y-95095585D01*
X75552651Y-95297687D01*
X60430500Y-95297687D01*
X60430500Y-94713890D01*
X60419724Y-94639928D01*
X60363951Y-94525843D01*
X60274157Y-94436049D01*
X60217786Y-94408490D01*
X60160073Y-94380276D01*
X60086114Y-94369500D01*
X60086110Y-94369500D01*
X58913890Y-94369500D01*
X58913885Y-94369500D01*
X58839926Y-94380276D01*
X58725842Y-94436049D01*
X58636049Y-94525842D01*
X58580276Y-94639926D01*
X58569500Y-94713885D01*
X57160384Y-94713885D01*
X57111860Y-94618651D01*
X57079475Y-94574077D01*
X56400000Y-95253552D01*
X56400000Y-95247339D01*
X56372741Y-95145606D01*
X56320080Y-95054394D01*
X56245606Y-94979920D01*
X56154394Y-94927259D01*
X56052661Y-94900000D01*
X56046445Y-94900000D01*
X56725921Y-94220524D01*
X56681349Y-94188139D01*
X56499021Y-94095240D01*
X56304427Y-94032012D01*
X56304414Y-94032009D01*
X56102313Y-94000000D01*
X55897687Y-94000000D01*
X55695585Y-94032009D01*
X55695572Y-94032012D01*
X55500978Y-94095240D01*
X55318650Y-94188139D01*
X55274077Y-94220523D01*
X55274077Y-94220524D01*
X55953553Y-94900000D01*
X55947339Y-94900000D01*
X55845606Y-94927259D01*
X55754394Y-94979920D01*
X55679920Y-95054394D01*
X55627259Y-95145606D01*
X55600000Y-95247339D01*
X55600000Y-95253553D01*
X54920524Y-94574077D01*
X54920523Y-94574077D01*
X54888139Y-94618650D01*
X54795240Y-94800978D01*
X54732012Y-94995572D01*
X54732009Y-94995585D01*
X54700000Y-95197687D01*
X39599088Y-95197687D01*
X39521718Y-89343321D01*
X76469500Y-89343321D01*
X76469500Y-89456678D01*
X76498836Y-89566163D01*
X76498838Y-89566168D01*
X76555514Y-89664333D01*
X76635667Y-89744486D01*
X76733833Y-89801162D01*
X76733834Y-89801162D01*
X76733836Y-89801163D01*
X76788578Y-89815831D01*
X76843321Y-89830499D01*
X76843322Y-89830500D01*
X76843324Y-89830500D01*
X76956678Y-89830500D01*
X76956678Y-89830499D01*
X77066167Y-89801162D01*
X77164333Y-89744486D01*
X77244486Y-89664333D01*
X77301162Y-89566167D01*
X77330499Y-89456678D01*
X77330500Y-89456678D01*
X77330500Y-89343325D01*
X77329877Y-89338596D01*
X77334877Y-89300611D01*
X77341372Y-89284929D01*
X77355501Y-89250822D01*
X77355501Y-89149177D01*
X77355501Y-89143219D01*
X77355500Y-89143205D01*
X77355500Y-75429500D01*
X77377174Y-75377174D01*
X77429500Y-75355500D01*
X93049956Y-75355500D01*
X93102282Y-75377174D01*
X93114039Y-75392496D01*
X93155514Y-75464333D01*
X93235667Y-75544486D01*
X93278993Y-75569500D01*
X93329807Y-75598838D01*
X93333833Y-75601162D01*
X93333834Y-75601162D01*
X93333836Y-75601163D01*
X93388578Y-75615831D01*
X93443321Y-75630499D01*
X93443322Y-75630500D01*
X93443324Y-75630500D01*
X93556678Y-75630500D01*
X93556678Y-75630499D01*
X93666167Y-75601162D01*
X93764333Y-75544486D01*
X93844486Y-75464333D01*
X93901162Y-75366167D01*
X93930499Y-75256678D01*
X93930500Y-75256678D01*
X93930500Y-75143322D01*
X93930499Y-75143321D01*
X93901163Y-75033836D01*
X93901161Y-75033831D01*
X93875558Y-74989485D01*
X93844486Y-74935667D01*
X93764333Y-74855514D01*
X93739641Y-74841258D01*
X93666168Y-74798838D01*
X93666163Y-74798836D01*
X93556678Y-74769500D01*
X93556676Y-74769500D01*
X93443324Y-74769500D01*
X93443322Y-74769500D01*
X93333836Y-74798836D01*
X93333831Y-74798838D01*
X93271916Y-74834586D01*
X93234916Y-74844500D01*
X77049178Y-74844500D01*
X76955273Y-74883395D01*
X76883395Y-74955273D01*
X76844500Y-75049176D01*
X76844500Y-88912402D01*
X76822826Y-88964728D01*
X76789653Y-88983880D01*
X76733836Y-88998836D01*
X76733831Y-88998838D01*
X76635666Y-89055514D01*
X76555514Y-89135666D01*
X76498838Y-89233831D01*
X76498836Y-89233836D01*
X76469500Y-89343321D01*
X39521718Y-89343321D01*
X39333664Y-75113885D01*
X41102000Y-75113885D01*
X41102000Y-75686114D01*
X41112776Y-75760073D01*
X41155678Y-75847830D01*
X41168549Y-75874157D01*
X41258343Y-75963951D01*
X41372428Y-76019724D01*
X41446390Y-76030500D01*
X41446396Y-76030500D01*
X42018604Y-76030500D01*
X42018610Y-76030500D01*
X42092572Y-76019724D01*
X42206657Y-75963951D01*
X42296451Y-75874157D01*
X42352224Y-75760072D01*
X42363000Y-75686110D01*
X42363000Y-75337901D01*
X43002000Y-75337901D01*
X43002000Y-75462099D01*
X43007974Y-75492136D01*
X43026227Y-75583903D01*
X43026229Y-75583910D01*
X43068563Y-75686114D01*
X43073758Y-75698654D01*
X43142758Y-75801920D01*
X43230580Y-75889742D01*
X43333846Y-75958742D01*
X43448590Y-76006271D01*
X43570401Y-76030500D01*
X43694599Y-76030500D01*
X43816410Y-76006271D01*
X43931154Y-75958742D01*
X44034420Y-75889742D01*
X44122242Y-75801920D01*
X44191242Y-75698654D01*
X44238771Y-75583910D01*
X44263000Y-75462099D01*
X44263000Y-75337901D01*
X44238771Y-75216090D01*
X44191242Y-75101346D01*
X44122242Y-74998080D01*
X44034420Y-74910258D01*
X43931154Y-74841258D01*
X43931151Y-74841256D01*
X43931150Y-74841256D01*
X43816410Y-74793729D01*
X43816403Y-74793727D01*
X43694599Y-74769500D01*
X43570401Y-74769500D01*
X43448596Y-74793727D01*
X43448589Y-74793729D01*
X43333849Y-74841256D01*
X43230580Y-74910257D01*
X43230579Y-74910259D01*
X43142759Y-74998079D01*
X43142757Y-74998080D01*
X43073756Y-75101349D01*
X43026229Y-75216089D01*
X43026227Y-75216096D01*
X43002000Y-75337901D01*
X42363000Y-75337901D01*
X42363000Y-75113890D01*
X42352224Y-75039928D01*
X42296451Y-74925843D01*
X42206657Y-74836049D01*
X42203664Y-74834586D01*
X42092573Y-74780276D01*
X42018614Y-74769500D01*
X42018610Y-74769500D01*
X41446390Y-74769500D01*
X41446385Y-74769500D01*
X41372426Y-74780276D01*
X41258342Y-74836049D01*
X41168549Y-74925842D01*
X41112776Y-75039926D01*
X41102000Y-75113885D01*
X39333664Y-75113885D01*
X39291593Y-71930500D01*
X39285154Y-71443321D01*
X94369500Y-71443321D01*
X94369500Y-71556678D01*
X94398836Y-71666163D01*
X94398838Y-71666168D01*
X94455514Y-71764333D01*
X94535667Y-71844486D01*
X94633833Y-71901162D01*
X94633834Y-71901162D01*
X94633836Y-71901163D01*
X94688578Y-71915831D01*
X94743321Y-71930499D01*
X94743322Y-71930500D01*
X94743324Y-71930500D01*
X94856679Y-71930500D01*
X94861488Y-71929867D01*
X94861847Y-71932596D01*
X94909280Y-71938829D01*
X94924623Y-71950599D01*
X101947826Y-78973802D01*
X101969500Y-79026128D01*
X101969500Y-82045850D01*
X102004589Y-82130565D01*
X102004590Y-82130567D01*
X102004591Y-82130568D01*
X102069432Y-82195409D01*
X102154151Y-82230500D01*
X103373872Y-82230500D01*
X103426198Y-82252174D01*
X108347826Y-87173802D01*
X108369500Y-87226128D01*
X108369500Y-108793257D01*
X108347826Y-108845583D01*
X108339225Y-108852182D01*
X108339516Y-108852561D01*
X108335668Y-108855513D01*
X108255514Y-108935666D01*
X108198838Y-109033831D01*
X108198836Y-109033836D01*
X108169500Y-109143321D01*
X108169500Y-109256678D01*
X108198836Y-109366163D01*
X108198838Y-109366168D01*
X108255514Y-109464333D01*
X108335667Y-109544486D01*
X108433833Y-109601162D01*
X108433834Y-109601162D01*
X108433836Y-109601163D01*
X108488578Y-109615831D01*
X108543321Y-109630499D01*
X108543322Y-109630500D01*
X108543324Y-109630500D01*
X108656678Y-109630500D01*
X108656678Y-109630499D01*
X108766167Y-109601162D01*
X108864333Y-109544486D01*
X108944486Y-109464333D01*
X109001162Y-109366167D01*
X109030499Y-109256678D01*
X109030500Y-109256678D01*
X109030500Y-109143322D01*
X109030499Y-109143321D01*
X109001163Y-109033836D01*
X109001161Y-109033831D01*
X108944485Y-108935666D01*
X108864333Y-108855514D01*
X108864330Y-108855512D01*
X108860484Y-108852561D01*
X108862157Y-108850380D01*
X108833021Y-108812409D01*
X108830500Y-108793257D01*
X108830500Y-104977145D01*
X110239500Y-104977145D01*
X110239500Y-106702854D01*
X110247071Y-106740919D01*
X110275911Y-106784083D01*
X110275913Y-106784085D01*
X110275914Y-106784086D01*
X110319081Y-106812929D01*
X110357145Y-106820500D01*
X112082854Y-106820499D01*
X112120919Y-106812929D01*
X112164086Y-106784086D01*
X112192929Y-106740919D01*
X112200500Y-106702855D01*
X112200499Y-104977146D01*
X112192929Y-104939081D01*
X112183314Y-104924692D01*
X112164088Y-104895916D01*
X112164085Y-104895913D01*
X112120919Y-104867071D01*
X112082855Y-104859500D01*
X112082854Y-104859500D01*
X110357145Y-104859500D01*
X110319080Y-104867071D01*
X110275916Y-104895911D01*
X110275913Y-104895914D01*
X110247071Y-104939080D01*
X110239500Y-104977145D01*
X108830500Y-104977145D01*
X108830500Y-103203430D01*
X110239500Y-103203430D01*
X110239500Y-103396569D01*
X110277178Y-103585995D01*
X110277181Y-103586005D01*
X110351090Y-103764438D01*
X110351091Y-103764440D01*
X110351092Y-103764441D01*
X110458396Y-103925032D01*
X110594968Y-104061604D01*
X110755559Y-104168908D01*
X110933999Y-104242820D01*
X111123429Y-104280500D01*
X111123431Y-104280500D01*
X111316569Y-104280500D01*
X111316571Y-104280500D01*
X111506001Y-104242820D01*
X111684441Y-104168908D01*
X111845032Y-104061604D01*
X111981604Y-103925032D01*
X112088908Y-103764441D01*
X112162820Y-103586001D01*
X112200500Y-103396571D01*
X112200500Y-103203429D01*
X112162820Y-103013999D01*
X112129614Y-102933833D01*
X112088909Y-102835561D01*
X111981606Y-102674971D01*
X111981604Y-102674968D01*
X111845032Y-102538396D01*
X111684441Y-102431092D01*
X111684440Y-102431091D01*
X111684438Y-102431090D01*
X111506005Y-102357181D01*
X111505995Y-102357178D01*
X111379140Y-102331945D01*
X111316571Y-102319500D01*
X111123429Y-102319500D01*
X111069728Y-102330181D01*
X110934004Y-102357178D01*
X110933994Y-102357181D01*
X110755561Y-102431090D01*
X110594971Y-102538393D01*
X110458393Y-102674971D01*
X110351090Y-102835561D01*
X110277181Y-103013994D01*
X110277178Y-103014004D01*
X110239500Y-103203430D01*
X108830500Y-103203430D01*
X108830500Y-87054151D01*
X108830499Y-87054149D01*
X108795410Y-86969434D01*
X108795408Y-86969431D01*
X108726353Y-86900376D01*
X108726346Y-86900370D01*
X103705817Y-81879841D01*
X103705817Y-81879840D01*
X103695409Y-81869432D01*
X103630568Y-81804591D01*
X103630566Y-81804590D01*
X103630564Y-81804589D01*
X103595476Y-81790055D01*
X103595476Y-81790054D01*
X103545850Y-81769499D01*
X103454150Y-81769499D01*
X103445538Y-81769499D01*
X103445530Y-81769500D01*
X102504500Y-81769500D01*
X102452174Y-81747826D01*
X102430500Y-81695500D01*
X102430500Y-78854151D01*
X102430499Y-78854149D01*
X102428780Y-78850000D01*
X102395409Y-78769432D01*
X102330568Y-78704591D01*
X102327486Y-78701509D01*
X102800000Y-78701509D01*
X102800000Y-78850000D01*
X103500000Y-78850000D01*
X103500000Y-79350000D01*
X102800000Y-79350000D01*
X102800000Y-79498490D01*
X102838427Y-79691682D01*
X102838430Y-79691693D01*
X102913809Y-79873675D01*
X103023246Y-80037459D01*
X103162540Y-80176753D01*
X103326324Y-80286190D01*
X103508306Y-80361569D01*
X103508317Y-80361572D01*
X103549999Y-80369863D01*
X103550000Y-80369863D01*
X103550000Y-79566988D01*
X103559940Y-79584205D01*
X103615795Y-79640060D01*
X103684204Y-79679556D01*
X103760504Y-79700000D01*
X103839496Y-79700000D01*
X103915796Y-79679556D01*
X103984205Y-79640060D01*
X104040060Y-79584205D01*
X104050000Y-79566988D01*
X104050000Y-80369863D01*
X104091682Y-80361572D01*
X104091693Y-80361569D01*
X104273675Y-80286190D01*
X104437459Y-80176753D01*
X104576753Y-80037459D01*
X104686190Y-79873675D01*
X104761569Y-79691693D01*
X104761572Y-79691682D01*
X104800000Y-79498490D01*
X104800000Y-79350000D01*
X104100000Y-79350000D01*
X104100000Y-78850000D01*
X104800000Y-78850000D01*
X104800000Y-78701509D01*
X104761572Y-78508317D01*
X104761569Y-78508306D01*
X104686190Y-78326324D01*
X104576753Y-78162540D01*
X104437459Y-78023246D01*
X104273675Y-77913809D01*
X104091691Y-77838429D01*
X104091684Y-77838427D01*
X104050000Y-77830136D01*
X104050000Y-78633011D01*
X104040060Y-78615795D01*
X103984205Y-78559940D01*
X103915796Y-78520444D01*
X103839496Y-78500000D01*
X103760504Y-78500000D01*
X103684204Y-78520444D01*
X103615795Y-78559940D01*
X103559940Y-78615795D01*
X103550000Y-78633011D01*
X103550000Y-77830136D01*
X103549999Y-77830136D01*
X103508315Y-77838427D01*
X103508308Y-77838429D01*
X103326324Y-77913809D01*
X103162540Y-78023246D01*
X103023246Y-78162540D01*
X102913809Y-78326324D01*
X102838430Y-78508306D01*
X102838427Y-78508317D01*
X102800000Y-78701509D01*
X102327486Y-78701509D01*
X102326353Y-78700376D01*
X102326346Y-78700370D01*
X97897485Y-74271509D01*
X102800000Y-74271509D01*
X102800000Y-74670000D01*
X103500000Y-74670000D01*
X103500000Y-75170000D01*
X102800000Y-75170000D01*
X102800000Y-75568490D01*
X102838427Y-75761682D01*
X102838430Y-75761693D01*
X102913809Y-75943675D01*
X103023246Y-76107459D01*
X103162540Y-76246753D01*
X103326324Y-76356190D01*
X103508306Y-76431569D01*
X103508317Y-76431572D01*
X103549999Y-76439863D01*
X103550000Y-76439863D01*
X103550000Y-75636988D01*
X103559940Y-75654205D01*
X103615795Y-75710060D01*
X103684204Y-75749556D01*
X103760504Y-75770000D01*
X103839496Y-75770000D01*
X103915796Y-75749556D01*
X103984205Y-75710060D01*
X104040060Y-75654205D01*
X104050000Y-75636988D01*
X104050000Y-76439863D01*
X104091682Y-76431572D01*
X104091693Y-76431569D01*
X104273675Y-76356190D01*
X104437459Y-76246753D01*
X104576753Y-76107459D01*
X104686189Y-75943675D01*
X104709299Y-75887881D01*
X104749347Y-75847832D01*
X104805984Y-75847830D01*
X104829989Y-75863869D01*
X104876635Y-75910515D01*
X105007865Y-75986281D01*
X105154231Y-76025499D01*
X105154232Y-76025500D01*
X105154234Y-76025500D01*
X105305768Y-76025500D01*
X105305768Y-76025499D01*
X105452135Y-75986281D01*
X105583365Y-75910515D01*
X105690515Y-75803365D01*
X105766281Y-75672135D01*
X105805499Y-75525768D01*
X105805500Y-75525768D01*
X105805500Y-75374232D01*
X105805499Y-75374231D01*
X105766282Y-75227869D01*
X105766281Y-75227865D01*
X105690515Y-75096635D01*
X105583365Y-74989485D01*
X105583362Y-74989483D01*
X105452139Y-74913721D01*
X105452130Y-74913717D01*
X105305768Y-74874500D01*
X105305766Y-74874500D01*
X105154234Y-74874500D01*
X105154232Y-74874500D01*
X105007869Y-74913717D01*
X105007860Y-74913721D01*
X104876637Y-74989483D01*
X104769485Y-75096634D01*
X104748490Y-75133000D01*
X104703557Y-75167478D01*
X104684404Y-75170000D01*
X104100000Y-75170000D01*
X104100000Y-74670000D01*
X104800000Y-74670000D01*
X104800000Y-74271509D01*
X104761572Y-74078317D01*
X104761569Y-74078306D01*
X104686190Y-73896324D01*
X104576753Y-73732540D01*
X104437459Y-73593246D01*
X104273675Y-73483809D01*
X104091691Y-73408429D01*
X104091684Y-73408427D01*
X104050000Y-73400136D01*
X104050000Y-74203011D01*
X104040060Y-74185795D01*
X103984205Y-74129940D01*
X103915796Y-74090444D01*
X103839496Y-74070000D01*
X103760504Y-74070000D01*
X103684204Y-74090444D01*
X103615795Y-74129940D01*
X103559940Y-74185795D01*
X103550000Y-74203011D01*
X103550000Y-73400136D01*
X103549999Y-73400136D01*
X103508315Y-73408427D01*
X103508308Y-73408429D01*
X103326324Y-73483809D01*
X103162540Y-73593246D01*
X103023246Y-73732540D01*
X102913809Y-73896324D01*
X102838430Y-74078306D01*
X102838427Y-74078317D01*
X102800000Y-74271509D01*
X97897485Y-74271509D01*
X95250599Y-71624623D01*
X95228925Y-71572297D01*
X95230340Y-71561550D01*
X95229867Y-71561488D01*
X95230500Y-71556679D01*
X95230500Y-71443322D01*
X95230499Y-71443321D01*
X95229462Y-71439452D01*
X95201162Y-71333833D01*
X95144486Y-71235667D01*
X95064333Y-71155514D01*
X94966168Y-71098838D01*
X94966163Y-71098836D01*
X94856678Y-71069500D01*
X94856676Y-71069500D01*
X94743324Y-71069500D01*
X94743322Y-71069500D01*
X94633836Y-71098836D01*
X94633831Y-71098838D01*
X94535666Y-71155514D01*
X94455514Y-71235666D01*
X94398838Y-71333831D01*
X94398836Y-71333836D01*
X94369500Y-71443321D01*
X39285154Y-71443321D01*
X39285103Y-71439452D01*
X39200991Y-65074978D01*
X39221972Y-65022370D01*
X39274007Y-65000006D01*
X39274985Y-65000000D01*
X113325500Y-65000000D01*
X113377826Y-65021674D01*
G37*
%TD.AperFunction*%
%TD*%
M02*
