%TF.GenerationSoftware,KiCad,Pcbnew,9.0.7*%
%TF.CreationDate,2026-04-29T13:09:46+03:00*%
%TF.ProjectId,PawsLink IoT,50617773-4c69-46e6-9b20-496f542e6b69,rev?*%
%TF.SameCoordinates,Original*%
%TF.FileFunction,Paste,Top*%
%TF.FilePolarity,Positive*%
%FSLAX46Y46*%
G04 Gerber Fmt 4.6, Leading zero omitted, Abs format (unit mm)*
G04 Created by KiCad (PCBNEW 9.0.7) date 2026-04-29 13:09:46*
%MOMM*%
%LPD*%
G01*
G04 APERTURE LIST*
G04 Aperture macros list*
%AMRoundRect*
0 Rectangle with rounded corners*
0 $1 Rounding radius*
0 $2 $3 $4 $5 $6 $7 $8 $9 X,Y pos of 4 corners*
0 Add a 4 corners polygon primitive as box body*
4,1,4,$2,$3,$4,$5,$6,$7,$8,$9,$2,$3,0*
0 Add four circle primitives for the rounded corners*
1,1,$1+$1,$2,$3*
1,1,$1+$1,$4,$5*
1,1,$1+$1,$6,$7*
1,1,$1+$1,$8,$9*
0 Add four rect primitives between the rounded corners*
20,1,$1+$1,$2,$3,$4,$5,0*
20,1,$1+$1,$4,$5,$6,$7,0*
20,1,$1+$1,$6,$7,$8,$9,0*
20,1,$1+$1,$8,$9,$2,$3,0*%
G04 Aperture macros list end*
%ADD10RoundRect,0.150000X0.825000X0.150000X-0.825000X0.150000X-0.825000X-0.150000X0.825000X-0.150000X0*%
%ADD11R,0.600000X1.450000*%
%ADD12R,0.300000X1.450000*%
%ADD13RoundRect,0.250000X-0.262500X-0.450000X0.262500X-0.450000X0.262500X0.450000X-0.262500X0.450000X0*%
%ADD14RoundRect,0.150000X0.150000X-0.825000X0.150000X0.825000X-0.150000X0.825000X-0.150000X-0.825000X0*%
%ADD15RoundRect,0.250000X-0.650000X1.000000X-0.650000X-1.000000X0.650000X-1.000000X0.650000X1.000000X0*%
%ADD16RoundRect,0.250000X-0.475000X0.250000X-0.475000X-0.250000X0.475000X-0.250000X0.475000X0.250000X0*%
%ADD17R,1.500000X0.900000*%
%ADD18R,0.900000X1.500000*%
%ADD19R,1.050000X1.050000*%
%ADD20RoundRect,0.100000X0.637500X0.100000X-0.637500X0.100000X-0.637500X-0.100000X0.637500X-0.100000X0*%
%ADD21RoundRect,0.250000X-0.250000X-0.475000X0.250000X-0.475000X0.250000X0.475000X-0.250000X0.475000X0*%
%ADD22RoundRect,0.250000X0.475000X-0.250000X0.475000X0.250000X-0.475000X0.250000X-0.475000X-0.250000X0*%
%ADD23RoundRect,0.250000X0.450000X-0.262500X0.450000X0.262500X-0.450000X0.262500X-0.450000X-0.262500X0*%
G04 APERTURE END LIST*
D10*
%TO.C,U2*%
X71022349Y-96552349D03*
X71022349Y-95282349D03*
X71022349Y-94012349D03*
X71022349Y-92742349D03*
X66072349Y-92742349D03*
X66072349Y-94012349D03*
X66072349Y-95282349D03*
X66072349Y-96552349D03*
%TD*%
D11*
%TO.C,J2*%
X104870000Y-74005000D03*
X111370000Y-74005000D03*
X105670000Y-74005000D03*
D12*
X106870000Y-74005000D03*
X107870000Y-74005000D03*
X108370000Y-74005000D03*
X109370000Y-74005000D03*
D11*
X110570000Y-74005000D03*
X111370000Y-74005000D03*
X110570000Y-74005000D03*
D12*
X109870000Y-74005000D03*
X108870000Y-74005000D03*
X107370000Y-74005000D03*
X106370000Y-74005000D03*
D11*
X105670000Y-74005000D03*
X104870000Y-74005000D03*
%TD*%
D13*
%TO.C,R7*%
X108040000Y-67500000D03*
X109865000Y-67500000D03*
%TD*%
%TO.C,R3*%
X51900000Y-83300000D03*
X53725000Y-83300000D03*
%TD*%
D14*
%TO.C,U3*%
X53090000Y-78250000D03*
X54360000Y-78250000D03*
X55630000Y-78250000D03*
X56900000Y-78250000D03*
X56900000Y-73300000D03*
X55630000Y-73300000D03*
X54360000Y-73300000D03*
X53090000Y-73300000D03*
%TD*%
D15*
%TO.C,D2*%
X98600000Y-73960000D03*
X98600000Y-77960000D03*
%TD*%
D16*
%TO.C,C5*%
X97900000Y-103760000D03*
X97900000Y-105660000D03*
%TD*%
D17*
%TO.C,U1*%
X65950000Y-66065000D03*
X65950000Y-67335000D03*
X65950000Y-68605000D03*
X65950000Y-69875000D03*
X65950000Y-71145000D03*
X65950000Y-72415000D03*
X65950000Y-73685000D03*
X65950000Y-74955000D03*
X65950000Y-76225000D03*
X65950000Y-77495000D03*
X65950000Y-78765000D03*
X65950000Y-80035000D03*
X65950000Y-81305000D03*
X65950000Y-82575000D03*
D18*
X68990000Y-83825000D03*
X70260000Y-83825000D03*
X71530000Y-83825000D03*
X72800000Y-83825000D03*
X74070000Y-83825000D03*
X75340000Y-83825000D03*
X76610000Y-83825000D03*
X77880000Y-83825000D03*
X79150000Y-83825000D03*
X80420000Y-83825000D03*
D17*
X83450000Y-82575000D03*
X83450000Y-81305000D03*
X83450000Y-80035000D03*
X83450000Y-78765000D03*
X83450000Y-77495000D03*
X83450000Y-76225000D03*
X83450000Y-74955000D03*
X83450000Y-73685000D03*
X83450000Y-72415000D03*
X83450000Y-71145000D03*
X83450000Y-69875000D03*
X83450000Y-68605000D03*
X83450000Y-67335000D03*
X83450000Y-66065000D03*
D19*
X72495000Y-71880000D03*
X72495000Y-73405000D03*
X72495000Y-74930000D03*
X74020000Y-71880000D03*
X74020000Y-73405000D03*
X74020000Y-74930000D03*
X75545000Y-71880000D03*
X75545000Y-73405000D03*
X75545000Y-74930000D03*
%TD*%
D20*
%TO.C,U4*%
X107000000Y-107010000D03*
X107000000Y-106360000D03*
X107000000Y-105710000D03*
X107000000Y-105060000D03*
X107000000Y-104410000D03*
X107000000Y-103760000D03*
X107000000Y-103110000D03*
X107000000Y-102460000D03*
X101275000Y-102460000D03*
X101275000Y-103110000D03*
X101275000Y-103760000D03*
X101275000Y-104410000D03*
X101275000Y-105060000D03*
X101275000Y-105710000D03*
X101275000Y-106360000D03*
X101275000Y-107010000D03*
%TD*%
D15*
%TO.C,D1*%
X90800000Y-73900000D03*
X90800000Y-77900000D03*
%TD*%
D13*
%TO.C,R1*%
X47300000Y-72500000D03*
X49125000Y-72500000D03*
%TD*%
D21*
%TO.C,C3*%
X43300000Y-82900000D03*
X45200000Y-82900000D03*
%TD*%
D22*
%TO.C,C4*%
X97900000Y-101800000D03*
X97900000Y-99900000D03*
%TD*%
D23*
%TO.C,R2*%
X49100000Y-77500000D03*
X49100000Y-75675000D03*
%TD*%
D13*
%TO.C,R6*%
X103940000Y-67500000D03*
X105765000Y-67500000D03*
%TD*%
D22*
%TO.C,C6*%
X97900000Y-109560000D03*
X97900000Y-107660000D03*
%TD*%
D13*
%TO.C,R4*%
X55975000Y-83300000D03*
X57800000Y-83300000D03*
%TD*%
%TO.C,R5*%
X89875000Y-96400000D03*
X91700000Y-96400000D03*
%TD*%
M02*
