%TF.GenerationSoftware,KiCad,Pcbnew,9.0.7*%
%TF.CreationDate,2026-04-29T13:09:46+03:00*%
%TF.ProjectId,PawsLink IoT,50617773-4c69-46e6-9b20-496f542e6b69,rev?*%
%TF.SameCoordinates,Original*%
%TF.FileFunction,Copper,L1,Top*%
%TF.FilePolarity,Positive*%
%FSLAX46Y46*%
G04 Gerber Fmt 4.6, Leading zero omitted, Abs format (unit mm)*
G04 Created by KiCad (PCBNEW 9.0.7) date 2026-04-29 13:09:46*
%MOMM*%
%LPD*%
G01*
G04 APERTURE LIST*
G04 Aperture macros list*
%AMRoundRect*
0 Rectangle with rounded corners*
0 $1 Rounding radius*
0 $2 $3 $4 $5 $6 $7 $8 $9 X,Y pos of 4 corners*
0 Add a 4 corners polygon primitive as box body*
4,1,4,$2,$3,$4,$5,$6,$7,$8,$9,$2,$3,0*
0 Add four circle primitives for the rounded corners*
1,1,$1+$1,$2,$3*
1,1,$1+$1,$4,$5*
1,1,$1+$1,$6,$7*
1,1,$1+$1,$8,$9*
0 Add four rect primitives between the rounded corners*
20,1,$1+$1,$2,$3,$4,$5,0*
20,1,$1+$1,$4,$5,$6,$7,0*
20,1,$1+$1,$6,$7,$8,$9,0*
20,1,$1+$1,$8,$9,$2,$3,0*%
G04 Aperture macros list end*
%TA.AperFunction,SMDPad,CuDef*%
%ADD10RoundRect,0.150000X0.825000X0.150000X-0.825000X0.150000X-0.825000X-0.150000X0.825000X-0.150000X0*%
%TD*%
%TA.AperFunction,SMDPad,CuDef*%
%ADD11R,0.600000X1.450000*%
%TD*%
%TA.AperFunction,SMDPad,CuDef*%
%ADD12R,0.300000X1.450000*%
%TD*%
%TA.AperFunction,HeatsinkPad*%
%ADD13O,1.000000X2.100000*%
%TD*%
%TA.AperFunction,HeatsinkPad*%
%ADD14O,1.000000X1.600000*%
%TD*%
%TA.AperFunction,SMDPad,CuDef*%
%ADD15RoundRect,0.250000X-0.262500X-0.450000X0.262500X-0.450000X0.262500X0.450000X-0.262500X0.450000X0*%
%TD*%
%TA.AperFunction,SMDPad,CuDef*%
%ADD16RoundRect,0.150000X0.150000X-0.825000X0.150000X0.825000X-0.150000X0.825000X-0.150000X-0.825000X0*%
%TD*%
%TA.AperFunction,SMDPad,CuDef*%
%ADD17RoundRect,0.250000X-0.650000X1.000000X-0.650000X-1.000000X0.650000X-1.000000X0.650000X1.000000X0*%
%TD*%
%TA.AperFunction,SMDPad,CuDef*%
%ADD18RoundRect,0.250000X-0.475000X0.250000X-0.475000X-0.250000X0.475000X-0.250000X0.475000X0.250000X0*%
%TD*%
%TA.AperFunction,ComponentPad*%
%ADD19RoundRect,0.250000X0.550000X0.550000X-0.550000X0.550000X-0.550000X-0.550000X0.550000X-0.550000X0*%
%TD*%
%TA.AperFunction,ComponentPad*%
%ADD20C,1.600000*%
%TD*%
%TA.AperFunction,ComponentPad*%
%ADD21RoundRect,0.250000X-0.250000X-0.250000X0.250000X-0.250000X0.250000X0.250000X-0.250000X0.250000X0*%
%TD*%
%TA.AperFunction,ComponentPad*%
%ADD22C,1.000000*%
%TD*%
%TA.AperFunction,SMDPad,CuDef*%
%ADD23R,1.500000X0.900000*%
%TD*%
%TA.AperFunction,SMDPad,CuDef*%
%ADD24R,0.900000X1.500000*%
%TD*%
%TA.AperFunction,SMDPad,CuDef*%
%ADD25R,1.050000X1.050000*%
%TD*%
%TA.AperFunction,HeatsinkPad*%
%ADD26C,0.600000*%
%TD*%
%TA.AperFunction,HeatsinkPad*%
%ADD27R,4.200000X4.200000*%
%TD*%
%TA.AperFunction,SMDPad,CuDef*%
%ADD28RoundRect,0.100000X0.637500X0.100000X-0.637500X0.100000X-0.637500X-0.100000X0.637500X-0.100000X0*%
%TD*%
%TA.AperFunction,ComponentPad*%
%ADD29R,1.700000X1.700000*%
%TD*%
%TA.AperFunction,ComponentPad*%
%ADD30C,1.700000*%
%TD*%
%TA.AperFunction,SMDPad,CuDef*%
%ADD31RoundRect,0.250000X-0.250000X-0.475000X0.250000X-0.475000X0.250000X0.475000X-0.250000X0.475000X0*%
%TD*%
%TA.AperFunction,SMDPad,CuDef*%
%ADD32RoundRect,0.250000X0.475000X-0.250000X0.475000X0.250000X-0.475000X0.250000X-0.475000X-0.250000X0*%
%TD*%
%TA.AperFunction,ComponentPad*%
%ADD33R,3.500000X3.500000*%
%TD*%
%TA.AperFunction,ComponentPad*%
%ADD34RoundRect,0.750000X0.750000X1.000000X-0.750000X1.000000X-0.750000X-1.000000X0.750000X-1.000000X0*%
%TD*%
%TA.AperFunction,ComponentPad*%
%ADD35RoundRect,0.875000X0.875000X0.875000X-0.875000X0.875000X-0.875000X-0.875000X0.875000X-0.875000X0*%
%TD*%
%TA.AperFunction,SMDPad,CuDef*%
%ADD36RoundRect,0.250000X0.450000X-0.262500X0.450000X0.262500X-0.450000X0.262500X-0.450000X-0.262500X0*%
%TD*%
%TA.AperFunction,ViaPad*%
%ADD37C,0.600000*%
%TD*%
%TA.AperFunction,Conductor*%
%ADD38C,0.200000*%
%TD*%
%TA.AperFunction,Conductor*%
%ADD39C,0.250000*%
%TD*%
%TA.AperFunction,Conductor*%
%ADD40C,0.150000*%
%TD*%
G04 APERTURE END LIST*
D10*
%TO.P,U2,1,GND*%
%TO.N,GND*%
X71022349Y-96552349D03*
%TO.P,U2,2,VO*%
%TO.N,Net-(U1-IO21)*%
X71022349Y-95282349D03*
%TO.P,U2,3,VO*%
X71022349Y-94012349D03*
%TO.P,U2,4,VI*%
%TO.N,Net-(D1-A)*%
X71022349Y-92742349D03*
%TO.P,U2,5,NC*%
%TO.N,unconnected-(U2-NC-Pad5)*%
X66072349Y-92742349D03*
%TO.P,U2,6,VO*%
%TO.N,Net-(U1-IO21)*%
X66072349Y-94012349D03*
%TO.P,U2,7,VO*%
X66072349Y-95282349D03*
%TO.P,U2,8,NC*%
%TO.N,unconnected-(U2-NC-Pad8)*%
X66072349Y-96552349D03*
%TD*%
D11*
%TO.P,J2,A1*%
%TO.N,GND*%
X104870000Y-74005000D03*
X111370000Y-74005000D03*
%TO.P,J2,A4*%
%TO.N,Net-(D2-K)*%
X105670000Y-74005000D03*
D12*
%TO.P,J2,A5,CC1*%
%TO.N,Net-(J2-CC1)*%
X106870000Y-74005000D03*
%TO.P,J2,A6*%
%TO.N,N/C*%
X107870000Y-74005000D03*
%TO.P,J2,A7*%
X108370000Y-74005000D03*
%TO.P,J2,A8*%
X109370000Y-74005000D03*
D11*
%TO.P,J2,A9,VBUS*%
%TO.N,Net-(D2-K)*%
X110570000Y-74005000D03*
%TO.P,J2,A12,GND*%
%TO.N,GND*%
X111370000Y-74005000D03*
%TO.P,J2,B4*%
%TO.N,Net-(D2-K)*%
X110570000Y-74005000D03*
D12*
%TO.P,J2,B5,CC2*%
%TO.N,Net-(J2-CC2)*%
X109870000Y-74005000D03*
%TO.P,J2,B6*%
%TO.N,N/C*%
X108870000Y-74005000D03*
%TO.P,J2,B7*%
X107370000Y-74005000D03*
%TO.P,J2,B8*%
X106370000Y-74005000D03*
D11*
%TO.P,J2,B9,VBUS*%
%TO.N,Net-(D2-K)*%
X105670000Y-74005000D03*
%TO.P,J2,B12,GND*%
%TO.N,GND*%
X104870000Y-74005000D03*
D13*
%TO.P,J2,S1,SHIELD*%
X103800000Y-74920000D03*
D14*
X103800000Y-79100000D03*
D13*
X112440000Y-74920000D03*
D14*
X112440000Y-79100000D03*
%TD*%
D15*
%TO.P,R7,1*%
%TO.N,Net-(J2-CC2)*%
X108040000Y-67500000D03*
%TO.P,R7,2*%
%TO.N,GND*%
X109865000Y-67500000D03*
%TD*%
%TO.P,R3,1*%
%TO.N,Net-(U3A--)*%
X51900000Y-83300000D03*
%TO.P,R3,2*%
%TO.N,GND*%
X53725000Y-83300000D03*
%TD*%
D16*
%TO.P,U3,1*%
%TO.N,Net-(U1-IO34)*%
X53090000Y-78250000D03*
%TO.P,U3,2,-*%
%TO.N,Net-(U3A--)*%
X54360000Y-78250000D03*
%TO.P,U3,3,+*%
%TO.N,Net-(U3A-+)*%
X55630000Y-78250000D03*
%TO.P,U3,4,V-*%
%TO.N,GND*%
X56900000Y-78250000D03*
%TO.P,U3,5,+*%
X56900000Y-73300000D03*
%TO.P,U3,6,-*%
%TO.N,Net-(U3B--)*%
X55630000Y-73300000D03*
%TO.P,U3,7*%
X54360000Y-73300000D03*
%TO.P,U3,8,V+*%
%TO.N,Net-(U1-IO21)*%
X53090000Y-73300000D03*
%TD*%
D17*
%TO.P,D2,1,K*%
%TO.N,Net-(D2-K)*%
X98600000Y-73960000D03*
%TO.P,D2,2,A*%
%TO.N,Net-(D1-A)*%
X98600000Y-77960000D03*
%TD*%
D18*
%TO.P,C5,1*%
%TO.N,Net-(U4-VCP)*%
X97900000Y-103760000D03*
%TO.P,C5,2*%
%TO.N,Net-(D1-A)*%
X97900000Y-105660000D03*
%TD*%
D19*
%TO.P,C1,1*%
%TO.N,Net-(D1-A)*%
X80352651Y-95400000D03*
D20*
%TO.P,C1,2*%
%TO.N,GND*%
X76852651Y-95400000D03*
%TD*%
D21*
%TO.P,MK1,1,-*%
%TO.N,Net-(MK1--)*%
X41732500Y-75400000D03*
D22*
%TO.P,MK1,2,+*%
%TO.N,Net-(MK1-+)*%
X43632500Y-75400000D03*
%TD*%
D23*
%TO.P,U1,1,GND*%
%TO.N,GND*%
X65950000Y-66065000D03*
%TO.P,U1,2,VDD*%
%TO.N,Net-(U1-IO21)*%
X65950000Y-67335000D03*
%TO.P,U1,3,EN*%
%TO.N,unconnected-(U1-EN-Pad3)*%
X65950000Y-68605000D03*
%TO.P,U1,4,SENSOR_VP*%
%TO.N,unconnected-(U1-SENSOR_VP-Pad4)*%
X65950000Y-69875000D03*
%TO.P,U1,5,SENSOR_VN*%
%TO.N,unconnected-(U1-SENSOR_VN-Pad5)*%
X65950000Y-71145000D03*
%TO.P,U1,6,IO34*%
%TO.N,Net-(U1-IO34)*%
X65950000Y-72415000D03*
%TO.P,U1,7,IO35*%
%TO.N,unconnected-(U1-IO35-Pad7)*%
X65950000Y-73685000D03*
%TO.P,U1,8,IO32*%
%TO.N,unconnected-(U1-IO32-Pad8)*%
X65950000Y-74955000D03*
%TO.P,U1,9,IO33*%
%TO.N,unconnected-(U1-IO33-Pad9)*%
X65950000Y-76225000D03*
%TO.P,U1,10,IO25*%
%TO.N,unconnected-(U1-IO25-Pad10)*%
X65950000Y-77495000D03*
%TO.P,U1,11,IO26*%
%TO.N,unconnected-(U1-IO26-Pad11)*%
X65950000Y-78765000D03*
%TO.P,U1,12,IO27*%
%TO.N,unconnected-(U1-IO27-Pad12)*%
X65950000Y-80035000D03*
%TO.P,U1,13,IO14*%
%TO.N,unconnected-(U1-IO14-Pad13)*%
X65950000Y-81305000D03*
%TO.P,U1,14,IO12*%
%TO.N,unconnected-(U1-IO12-Pad14)*%
X65950000Y-82575000D03*
D24*
%TO.P,U1,15,GND*%
%TO.N,GND*%
X68990000Y-83825000D03*
%TO.P,U1,16,IO13*%
%TO.N,unconnected-(U1-IO13-Pad16)*%
X70260000Y-83825000D03*
%TO.P,U1,17,SHD/SD2*%
%TO.N,unconnected-(U1-SHD{slash}SD2-Pad17)*%
X71530000Y-83825000D03*
%TO.P,U1,18,SWP/SD3*%
%TO.N,unconnected-(U1-SWP{slash}SD3-Pad18)*%
X72800000Y-83825000D03*
%TO.P,U1,19,SCS/CMD*%
%TO.N,unconnected-(U1-SCS{slash}CMD-Pad19)*%
X74070000Y-83825000D03*
%TO.P,U1,20,SCK/CLK*%
%TO.N,unconnected-(U1-SCK{slash}CLK-Pad20)*%
X75340000Y-83825000D03*
%TO.P,U1,21,SDO/SD0*%
%TO.N,unconnected-(U1-SDO{slash}SD0-Pad21)*%
X76610000Y-83825000D03*
%TO.P,U1,22,SDI/SD1*%
%TO.N,unconnected-(U1-SDI{slash}SD1-Pad22)*%
X77880000Y-83825000D03*
%TO.P,U1,23,IO15*%
%TO.N,unconnected-(U1-IO15-Pad23)*%
X79150000Y-83825000D03*
%TO.P,U1,24,IO2*%
%TO.N,unconnected-(U1-IO2-Pad24)*%
X80420000Y-83825000D03*
D23*
%TO.P,U1,25,IO0*%
%TO.N,unconnected-(U1-IO0-Pad25)*%
X83450000Y-82575000D03*
%TO.P,U1,26,IO4*%
%TO.N,unconnected-(U1-IO4-Pad26)*%
X83450000Y-81305000D03*
%TO.P,U1,27,IO16*%
%TO.N,unconnected-(U1-IO16-Pad27)*%
X83450000Y-80035000D03*
%TO.P,U1,28,IO17*%
%TO.N,unconnected-(U1-IO17-Pad28)*%
X83450000Y-78765000D03*
%TO.P,U1,29,IO5*%
%TO.N,unconnected-(U1-IO5-Pad29)*%
X83450000Y-77495000D03*
%TO.P,U1,30,IO18*%
%TO.N,Net-(U1-IO18)*%
X83450000Y-76225000D03*
%TO.P,U1,31,IO19*%
%TO.N,Net-(U1-IO19)*%
X83450000Y-74955000D03*
%TO.P,U1,32,NC*%
%TO.N,unconnected-(U1-NC-Pad32)*%
X83450000Y-73685000D03*
%TO.P,U1,33,IO21*%
%TO.N,Net-(U1-IO21)*%
X83450000Y-72415000D03*
%TO.P,U1,34,RXD0/IO3*%
%TO.N,unconnected-(U1-RXD0{slash}IO3-Pad34)*%
X83450000Y-71145000D03*
%TO.P,U1,35,TXD0/IO1*%
%TO.N,unconnected-(U1-TXD0{slash}IO1-Pad35)*%
X83450000Y-69875000D03*
%TO.P,U1,36,IO22*%
%TO.N,Net-(U1-IO22)*%
X83450000Y-68605000D03*
%TO.P,U1,37,IO23*%
%TO.N,unconnected-(U1-IO23-Pad37)*%
X83450000Y-67335000D03*
%TO.P,U1,38,GND*%
%TO.N,GND*%
X83450000Y-66065000D03*
D25*
%TO.P,U1,39,GND*%
X72495000Y-71880000D03*
D26*
X72495000Y-72642500D03*
D25*
X72495000Y-73405000D03*
D26*
X72495000Y-74167500D03*
D25*
X72495000Y-74930000D03*
D26*
X73257500Y-71880000D03*
X73257500Y-73405000D03*
X73257500Y-74930000D03*
D25*
X74020000Y-71880000D03*
D26*
X74020000Y-72642500D03*
D25*
X74020000Y-73405000D03*
D27*
X74020000Y-73405000D03*
D26*
X74020000Y-74167500D03*
D25*
X74020000Y-74930000D03*
D26*
X74782500Y-71880000D03*
X74782500Y-73405000D03*
X74782500Y-74930000D03*
D25*
X75545000Y-71880000D03*
D26*
X75545000Y-72642500D03*
D25*
X75545000Y-73405000D03*
D26*
X75545000Y-74167500D03*
D25*
X75545000Y-74930000D03*
%TD*%
D28*
%TO.P,U4,1,~{SLEEP}*%
%TO.N,Net-(U1-IO22)*%
X107000000Y-107010000D03*
%TO.P,U4,2,AOUT1*%
%TO.N,Net-(J3-Pin_1)*%
X107000000Y-106360000D03*
%TO.P,U4,3,AISEN*%
%TO.N,unconnected-(U4-AISEN-Pad3)*%
X107000000Y-105710000D03*
%TO.P,U4,4,AOUT2*%
%TO.N,Net-(J3-Pin_2)*%
X107000000Y-105060000D03*
%TO.P,U4,5,BOUT2*%
%TO.N,unconnected-(U4-BOUT2-Pad5)*%
X107000000Y-104410000D03*
%TO.P,U4,6,BISEN*%
%TO.N,unconnected-(U4-BISEN-Pad6)*%
X107000000Y-103760000D03*
%TO.P,U4,7,BOUT1*%
%TO.N,unconnected-(U4-BOUT1-Pad7)*%
X107000000Y-103110000D03*
%TO.P,U4,8,~{FAULT}*%
%TO.N,Net-(U4-~{FAULT})*%
X107000000Y-102460000D03*
%TO.P,U4,9,BIN1*%
%TO.N,unconnected-(U4-BIN1-Pad9)*%
X101275000Y-102460000D03*
%TO.P,U4,10,BIN2*%
%TO.N,unconnected-(U4-BIN2-Pad10)*%
X101275000Y-103110000D03*
%TO.P,U4,11,VCP*%
%TO.N,Net-(U4-VCP)*%
X101275000Y-103760000D03*
%TO.P,U4,12,VM*%
%TO.N,Net-(D1-A)*%
X101275000Y-104410000D03*
%TO.P,U4,13,GND*%
%TO.N,GND*%
X101275000Y-105060000D03*
%TO.P,U4,14,VINT*%
%TO.N,Net-(U4-VINT)*%
X101275000Y-105710000D03*
%TO.P,U4,15,AIN2*%
%TO.N,Net-(U1-IO19)*%
X101275000Y-106360000D03*
%TO.P,U4,16,AIN1*%
%TO.N,Net-(U1-IO18)*%
X101275000Y-107010000D03*
%TD*%
D17*
%TO.P,D1,1,K*%
%TO.N,Net-(D1-K)*%
X90800000Y-73900000D03*
%TO.P,D1,2,A*%
%TO.N,Net-(D1-A)*%
X90800000Y-77900000D03*
%TD*%
D29*
%TO.P,J3,1,Pin_1*%
%TO.N,Net-(J3-Pin_1)*%
X111220000Y-105840000D03*
D30*
%TO.P,J3,2,Pin_2*%
%TO.N,Net-(J3-Pin_2)*%
X111220000Y-103300000D03*
%TD*%
D15*
%TO.P,R1,1*%
%TO.N,Net-(U1-IO21)*%
X47300000Y-72500000D03*
%TO.P,R1,2*%
%TO.N,Net-(MK1--)*%
X49125000Y-72500000D03*
%TD*%
D31*
%TO.P,C3,1*%
%TO.N,Net-(U3A-+)*%
X43300000Y-82900000D03*
%TO.P,C3,2*%
%TO.N,Net-(MK1-+)*%
X45200000Y-82900000D03*
%TD*%
D32*
%TO.P,C4,1*%
%TO.N,Net-(D1-A)*%
X97900000Y-101800000D03*
%TO.P,C4,2*%
%TO.N,GND*%
X97900000Y-99900000D03*
%TD*%
D33*
%TO.P,J1,1*%
%TO.N,Net-(D1-K)*%
X99300000Y-91760000D03*
D34*
%TO.P,J1,2*%
%TO.N,GND*%
X105300000Y-91760000D03*
D35*
%TO.P,J1,3*%
%TO.N,N/C*%
X102300000Y-87060000D03*
%TD*%
D19*
%TO.P,C2,1*%
%TO.N,Net-(U1-IO21)*%
X59500000Y-95300000D03*
D20*
%TO.P,C2,2*%
%TO.N,GND*%
X56000000Y-95300000D03*
%TD*%
D36*
%TO.P,R2,1*%
%TO.N,Net-(U3A--)*%
X49100000Y-77500000D03*
%TO.P,R2,2*%
%TO.N,Net-(U1-IO34)*%
X49100000Y-75675000D03*
%TD*%
D15*
%TO.P,R6,1*%
%TO.N,Net-(J2-CC1)*%
X103940000Y-67500000D03*
%TO.P,R6,2*%
%TO.N,GND*%
X105765000Y-67500000D03*
%TD*%
D32*
%TO.P,C6,1*%
%TO.N,Net-(U4-VINT)*%
X97900000Y-109560000D03*
%TO.P,C6,2*%
%TO.N,GND*%
X97900000Y-107660000D03*
%TD*%
D15*
%TO.P,R4,1*%
%TO.N,Net-(U3A-+)*%
X55975000Y-83300000D03*
%TO.P,R4,2*%
%TO.N,GND*%
X57800000Y-83300000D03*
%TD*%
%TO.P,R5,1*%
%TO.N,Net-(U1-IO21)*%
X89875000Y-96400000D03*
%TO.P,R5,2*%
%TO.N,Net-(U4-~{FAULT})*%
X91700000Y-96400000D03*
%TD*%
D37*
%TO.N,GND*%
X58500000Y-72000000D03*
%TO.N,Net-(D1-A)*%
X76900000Y-89400000D03*
X93500000Y-75200000D03*
%TO.N,Net-(U1-IO19)*%
X80700000Y-76000000D03*
X80500000Y-103100000D03*
%TO.N,Net-(U1-IO22)*%
X108600000Y-109200000D03*
X94800000Y-71500000D03*
%TO.N,Net-(U1-IO18)*%
X100800000Y-108400000D03*
X93900000Y-90700000D03*
%TD*%
D38*
%TO.N,GND*%
X103800000Y-74920000D02*
X103955000Y-74920000D01*
X112440000Y-74920000D02*
X112285000Y-74920000D01*
D39*
%TO.N,Net-(D1-A)*%
X90800000Y-77900000D02*
X93500000Y-75200000D01*
X96100000Y-102000000D02*
X96100000Y-103860000D01*
X98700000Y-105660000D02*
X99950000Y-104410000D01*
X77695000Y-90195000D02*
X77695000Y-92742349D01*
X96100000Y-101900000D02*
X96100000Y-102000000D01*
X101325000Y-104460000D02*
X101275000Y-104410000D01*
X99950000Y-104410000D02*
X101275000Y-104410000D01*
X77695000Y-92742349D02*
X80352651Y-95400000D01*
X96100000Y-102000000D02*
X86952651Y-102000000D01*
X71022349Y-92742349D02*
X77695000Y-92742349D01*
X90800000Y-77900000D02*
X91600000Y-78700000D01*
X96100000Y-103860000D02*
X97900000Y-105660000D01*
X97900000Y-101800000D02*
X96200000Y-101800000D01*
X97900000Y-105660000D02*
X98700000Y-105660000D01*
X90800000Y-77900000D02*
X98540000Y-77900000D01*
X96200000Y-101800000D02*
X96100000Y-101900000D01*
X98540000Y-77900000D02*
X98600000Y-77960000D01*
X76900000Y-89400000D02*
X77695000Y-90195000D01*
X86952651Y-102000000D02*
X80352651Y-95400000D01*
%TO.N,Net-(U1-IO21)*%
X69600000Y-89600000D02*
X69600000Y-92600000D01*
X62675000Y-67335000D02*
X62600000Y-67260000D01*
X53090000Y-72710000D02*
X58500000Y-67300000D01*
X68187651Y-94012349D02*
X68800000Y-93400000D01*
X71022349Y-94012349D02*
X71022349Y-95282349D01*
X81575000Y-88100000D02*
X81575000Y-81075000D01*
X81575000Y-88100000D02*
X71100000Y-88100000D01*
X66072349Y-94012349D02*
X66072349Y-95282349D01*
X65950000Y-67335000D02*
X75935000Y-67335000D01*
X47300000Y-72500000D02*
X47300000Y-73900000D01*
X62560000Y-67300000D02*
X62600000Y-67260000D01*
X75935000Y-67335000D02*
X81015000Y-72415000D01*
X59500000Y-95300000D02*
X66054698Y-95300000D01*
X69412349Y-94012349D02*
X71022349Y-94012349D01*
X68800000Y-93400000D02*
X69412349Y-94012349D01*
X66054698Y-95300000D02*
X66072349Y-95282349D01*
X89875000Y-96400000D02*
X81575000Y-88100000D01*
X65950000Y-67335000D02*
X62675000Y-67335000D01*
X58500000Y-67300000D02*
X62560000Y-67300000D01*
X52490000Y-73900000D02*
X53090000Y-73300000D01*
X66072349Y-94012349D02*
X68187651Y-94012349D01*
X71100000Y-88100000D02*
X69600000Y-89600000D01*
X77400000Y-76030000D02*
X81015000Y-72415000D01*
X53090000Y-73300000D02*
X53090000Y-72710000D01*
X47300000Y-73900000D02*
X52490000Y-73900000D01*
X69600000Y-92600000D02*
X68800000Y-93400000D01*
X81575000Y-81075000D02*
X77400000Y-76900000D01*
X81015000Y-72415000D02*
X83450000Y-72415000D01*
X77400000Y-76900000D02*
X77400000Y-76030000D01*
%TO.N,Net-(MK1-+)*%
X45200000Y-82900000D02*
X45600000Y-82500000D01*
X45600000Y-82500000D02*
X45600000Y-77367500D01*
X45600000Y-77367500D02*
X43632500Y-75400000D01*
%TO.N,Net-(U3A-+)*%
X54900000Y-87600000D02*
X44700000Y-87600000D01*
X43500000Y-86400000D02*
X43500000Y-83100000D01*
X55975000Y-86525000D02*
X54900000Y-87600000D01*
X55975000Y-78595000D02*
X55975000Y-83300000D01*
X44700000Y-87600000D02*
X43500000Y-86400000D01*
X55630000Y-78250000D02*
X55975000Y-78595000D01*
X43500000Y-83100000D02*
X43300000Y-82900000D01*
X55975000Y-83300000D02*
X55975000Y-86525000D01*
%TO.N,Net-(U4-VCP)*%
X97900000Y-103760000D02*
X101275000Y-103760000D01*
%TO.N,Net-(U4-VINT)*%
X101365000Y-105800000D02*
X101275000Y-105710000D01*
X103300000Y-109100000D02*
X103300000Y-106300000D01*
X97900000Y-109560000D02*
X102840000Y-109560000D01*
X102800000Y-105800000D02*
X101365000Y-105800000D01*
X103300000Y-106300000D02*
X102800000Y-105800000D01*
X102840000Y-109560000D02*
X103300000Y-109100000D01*
%TO.N,Net-(D1-K)*%
X87700000Y-80800000D02*
X98660000Y-91760000D01*
X90800000Y-73900000D02*
X88300000Y-73900000D01*
X88300000Y-73900000D02*
X87700000Y-74500000D01*
X98660000Y-91760000D02*
X99300000Y-91760000D01*
X87700000Y-74500000D02*
X87700000Y-80800000D01*
%TO.N,Net-(D2-K)*%
X109900000Y-75600000D02*
X110100000Y-75400000D01*
X110100000Y-75200000D02*
X110570000Y-74730000D01*
X106600000Y-75600000D02*
X109900000Y-75600000D01*
X98600000Y-73960000D02*
X100060000Y-72500000D01*
X105800000Y-72500000D02*
X105800000Y-73875000D01*
X100060000Y-72500000D02*
X105800000Y-72500000D01*
X105800000Y-73875000D02*
X105670000Y-74005000D01*
X110570000Y-74730000D02*
X110570000Y-74005000D01*
X105670000Y-74005000D02*
X105670000Y-74670000D01*
X110100000Y-75400000D02*
X110100000Y-75200000D01*
X105670000Y-74670000D02*
X106600000Y-75600000D01*
D40*
%TO.N,Net-(J2-CC1)*%
X106840000Y-73975000D02*
X106870000Y-74005000D01*
X106840000Y-72000000D02*
X106840000Y-73975000D01*
X103940000Y-69100000D02*
X106840000Y-72000000D01*
X103940000Y-67500000D02*
X103940000Y-69100000D01*
%TO.N,Net-(J2-CC2)*%
X109740000Y-72400000D02*
X109940000Y-72600000D01*
X108040000Y-67500000D02*
X108040000Y-69600000D01*
X109940000Y-73935000D02*
X109870000Y-74005000D01*
X108040000Y-69600000D02*
X109640000Y-71200000D01*
X109640000Y-71200000D02*
X109640000Y-72000000D01*
X109740000Y-72100000D02*
X109740000Y-72400000D01*
X109640000Y-72000000D02*
X109740000Y-72100000D01*
X109940000Y-72600000D02*
X109940000Y-73935000D01*
D39*
%TO.N,Net-(J3-Pin_2)*%
X109460000Y-105060000D02*
X111220000Y-103300000D01*
X107060000Y-105000000D02*
X107000000Y-105060000D01*
X107000000Y-105060000D02*
X109460000Y-105060000D01*
X111220000Y-103300000D02*
X110500000Y-103300000D01*
%TO.N,Net-(J3-Pin_1)*%
X110020000Y-106360000D02*
X110360000Y-106700000D01*
X107000000Y-106360000D02*
X107100000Y-106460000D01*
X110360000Y-106700000D02*
X111220000Y-105840000D01*
X107000000Y-106360000D02*
X110020000Y-106360000D01*
%TO.N,Net-(MK1--)*%
X41732500Y-75400000D02*
X41732500Y-71232500D01*
X49200000Y-71200000D02*
X49200000Y-72425000D01*
X41700000Y-71200000D02*
X49200000Y-71200000D01*
X49200000Y-72425000D02*
X49125000Y-72500000D01*
X41732500Y-71232500D02*
X41700000Y-71200000D01*
%TO.N,Net-(U1-IO34)*%
X53090000Y-77710000D02*
X53090000Y-78250000D01*
X55700000Y-75100000D02*
X53090000Y-77710000D01*
X62560000Y-72300000D02*
X61000000Y-72300000D01*
X62675000Y-72415000D02*
X62560000Y-72300000D01*
X65950000Y-72415000D02*
X62675000Y-72415000D01*
X49100000Y-75675000D02*
X50515000Y-75675000D01*
X50515000Y-75675000D02*
X53090000Y-78250000D01*
X58200000Y-75100000D02*
X55700000Y-75100000D01*
X61000000Y-72300000D02*
X58200000Y-75100000D01*
%TO.N,Net-(U3A--)*%
X49100000Y-77500000D02*
X49100000Y-78400000D01*
X49100000Y-78400000D02*
X51300000Y-80600000D01*
X51900000Y-81200000D02*
X51300000Y-80600000D01*
X54200000Y-80700000D02*
X54200000Y-78410000D01*
X51300000Y-80600000D02*
X54100000Y-80600000D01*
X54200000Y-78410000D02*
X54360000Y-78250000D01*
X54100000Y-80600000D02*
X54200000Y-80700000D01*
X51900000Y-83300000D02*
X51900000Y-81200000D01*
D38*
%TO.N,Net-(U4-~{FAULT})*%
X107000000Y-102460000D02*
X107000000Y-100800000D01*
X100000000Y-98600000D02*
X93900000Y-98600000D01*
X100900000Y-99500000D02*
X100000000Y-98600000D01*
X107000000Y-100800000D02*
X105700000Y-99500000D01*
X105700000Y-99500000D02*
X100900000Y-99500000D01*
X93900000Y-98600000D02*
X91700000Y-96400000D01*
%TO.N,Net-(U1-IO19)*%
X93200000Y-106700000D02*
X84100000Y-106700000D01*
X93400000Y-106500000D02*
X93200000Y-106700000D01*
X84100000Y-106700000D02*
X80500000Y-103100000D01*
X99600000Y-106500000D02*
X93400000Y-106500000D01*
X81745000Y-74955000D02*
X83450000Y-74955000D01*
X101275000Y-106360000D02*
X99740000Y-106360000D01*
X80700000Y-76000000D02*
X81745000Y-74955000D01*
X99740000Y-106360000D02*
X99600000Y-106500000D01*
D39*
%TO.N,Net-(U1-IO22)*%
X107000000Y-108700000D02*
X107000000Y-107010000D01*
D38*
X91905000Y-68605000D02*
X94800000Y-71500000D01*
X107500000Y-109200000D02*
X107000000Y-108700000D01*
X108600000Y-109200000D02*
X107500000Y-109200000D01*
X83450000Y-68605000D02*
X91905000Y-68605000D01*
D39*
%TO.N,Net-(U1-IO18)*%
X85800000Y-76200000D02*
X83475000Y-76200000D01*
X83325000Y-76100000D02*
X83450000Y-76225000D01*
X83475000Y-76200000D02*
X83450000Y-76225000D01*
X93900000Y-90700000D02*
X85800000Y-82600000D01*
X101275000Y-107010000D02*
X101275000Y-107925000D01*
X85800000Y-82600000D02*
X85800000Y-76200000D01*
X101275000Y-107925000D02*
X100800000Y-108400000D01*
D38*
%TO.N,Net-(U3B--)*%
X54360000Y-73300000D02*
X55630000Y-73300000D01*
%TD*%
%TA.AperFunction,Conductor*%
%TO.N,GND*%
G36*
X62553275Y-67561131D02*
G01*
X62596672Y-67579107D01*
X62624177Y-67590500D01*
X62624178Y-67590500D01*
X64995501Y-67590500D01*
X65047827Y-67612174D01*
X65069501Y-67664500D01*
X65069501Y-67797854D01*
X65077071Y-67835919D01*
X65105911Y-67879083D01*
X65105914Y-67879086D01*
X65149892Y-67908471D01*
X65181358Y-67955563D01*
X65170309Y-68011112D01*
X65149892Y-68031529D01*
X65105914Y-68060913D01*
X65105913Y-68060914D01*
X65077071Y-68104080D01*
X65069500Y-68142145D01*
X65069500Y-69067854D01*
X65077071Y-69105919D01*
X65105911Y-69149083D01*
X65105914Y-69149086D01*
X65149892Y-69178471D01*
X65181358Y-69225563D01*
X65170309Y-69281112D01*
X65149892Y-69301529D01*
X65105914Y-69330913D01*
X65105913Y-69330914D01*
X65077071Y-69374080D01*
X65069500Y-69412145D01*
X65069500Y-70337854D01*
X65077071Y-70375919D01*
X65105911Y-70419083D01*
X65105914Y-70419086D01*
X65149892Y-70448471D01*
X65181358Y-70495563D01*
X65170309Y-70551112D01*
X65149892Y-70571529D01*
X65105914Y-70600913D01*
X65105913Y-70600914D01*
X65077071Y-70644080D01*
X65069500Y-70682145D01*
X65069500Y-71607854D01*
X65077071Y-71645919D01*
X65105911Y-71689083D01*
X65105914Y-71689086D01*
X65149892Y-71718471D01*
X65181358Y-71765563D01*
X65170309Y-71821112D01*
X65149892Y-71841529D01*
X65105914Y-71870913D01*
X65105913Y-71870914D01*
X65077071Y-71914080D01*
X65069500Y-71952145D01*
X65069500Y-72085500D01*
X65047826Y-72137826D01*
X64995500Y-72159500D01*
X62811484Y-72159500D01*
X62759159Y-72137826D01*
X62704730Y-72083398D01*
X62704729Y-72083397D01*
X62704724Y-72083395D01*
X62680698Y-72073443D01*
X62638327Y-72055892D01*
X62610823Y-72044500D01*
X62610822Y-72044500D01*
X61050823Y-72044500D01*
X60949177Y-72044500D01*
X60949176Y-72044500D01*
X60937784Y-72049218D01*
X60921672Y-72055892D01*
X60892712Y-72067887D01*
X60855274Y-72083395D01*
X60855272Y-72083396D01*
X60783396Y-72155272D01*
X58115843Y-74822826D01*
X58063517Y-74844500D01*
X57380801Y-74844500D01*
X57328475Y-74822826D01*
X57306801Y-74770500D01*
X57328475Y-74718174D01*
X57343132Y-74706805D01*
X57451556Y-74642682D01*
X57567682Y-74526556D01*
X57651281Y-74385199D01*
X57697099Y-74227493D01*
X57700000Y-74190641D01*
X57700000Y-73550000D01*
X56974000Y-73550000D01*
X56921674Y-73528326D01*
X56900000Y-73476000D01*
X56900000Y-73300000D01*
X56724000Y-73300000D01*
X56671674Y-73278326D01*
X56650000Y-73226000D01*
X56650000Y-73050000D01*
X57150000Y-73050000D01*
X57700000Y-73050000D01*
X57700000Y-72409358D01*
X57697099Y-72372506D01*
X57651281Y-72214800D01*
X57567682Y-72073443D01*
X57451556Y-71957317D01*
X57310199Y-71873718D01*
X57152493Y-71827900D01*
X57150000Y-71827703D01*
X57150000Y-73050000D01*
X56650000Y-73050000D01*
X56650000Y-71827703D01*
X56649999Y-71827703D01*
X56647506Y-71827900D01*
X56489800Y-71873718D01*
X56348443Y-71957317D01*
X56232317Y-72073443D01*
X56148718Y-72214800D01*
X56131347Y-72274592D01*
X56095934Y-72318793D01*
X56039639Y-72325008D01*
X56007959Y-72306272D01*
X55941267Y-72239580D01*
X55887349Y-72215773D01*
X55845333Y-72197221D01*
X55845334Y-72197221D01*
X55838394Y-72196416D01*
X55821880Y-72194500D01*
X55438120Y-72194500D01*
X55421606Y-72196416D01*
X55414666Y-72197221D01*
X55318732Y-72239580D01*
X55244580Y-72313732D01*
X55202925Y-72408073D01*
X55202221Y-72409667D01*
X55199501Y-72433118D01*
X55199500Y-72433123D01*
X55199500Y-72995500D01*
X55177826Y-73047826D01*
X55125500Y-73069500D01*
X54864500Y-73069500D01*
X54812174Y-73047826D01*
X54790500Y-72995500D01*
X54790500Y-72433123D01*
X54790500Y-72433120D01*
X54787779Y-72409667D01*
X54745420Y-72313733D01*
X54671267Y-72239580D01*
X54575333Y-72197221D01*
X54575334Y-72197221D01*
X54568394Y-72196416D01*
X54551880Y-72194500D01*
X54168120Y-72194500D01*
X54168119Y-72194500D01*
X54151598Y-72196416D01*
X54097124Y-72180915D01*
X54069566Y-72131434D01*
X54085067Y-72076960D01*
X54090738Y-72070592D01*
X58584157Y-67577174D01*
X58636483Y-67555500D01*
X62509177Y-67555500D01*
X62524960Y-67555500D01*
X62553275Y-67561131D01*
G37*
%TD.AperFunction*%
%TA.AperFunction,Conductor*%
G36*
X65060286Y-65021674D02*
G01*
X65081960Y-65074000D01*
X65060286Y-65126326D01*
X65033820Y-65143334D01*
X64957912Y-65171645D01*
X64957911Y-65171646D01*
X64842811Y-65257811D01*
X64756646Y-65372911D01*
X64756645Y-65372912D01*
X64706403Y-65507619D01*
X64706402Y-65507624D01*
X64700000Y-65567171D01*
X64700000Y-65815000D01*
X67200000Y-65815000D01*
X67200000Y-65567171D01*
X67193597Y-65507624D01*
X67193596Y-65507619D01*
X67143354Y-65372912D01*
X67143353Y-65372911D01*
X67057188Y-65257811D01*
X66942088Y-65171646D01*
X66942087Y-65171645D01*
X66866180Y-65143334D01*
X66824727Y-65104741D01*
X66822706Y-65048140D01*
X66861299Y-65006687D01*
X66892040Y-65000000D01*
X82507960Y-65000000D01*
X82560286Y-65021674D01*
X82581960Y-65074000D01*
X82560286Y-65126326D01*
X82533820Y-65143334D01*
X82457912Y-65171645D01*
X82457911Y-65171646D01*
X82342811Y-65257811D01*
X82256646Y-65372911D01*
X82256645Y-65372912D01*
X82206403Y-65507619D01*
X82206402Y-65507624D01*
X82200000Y-65567171D01*
X82200000Y-65815000D01*
X84700000Y-65815000D01*
X84700000Y-65567171D01*
X84693597Y-65507624D01*
X84693596Y-65507619D01*
X84643354Y-65372912D01*
X84643353Y-65372911D01*
X84557188Y-65257811D01*
X84442088Y-65171646D01*
X84442087Y-65171645D01*
X84366180Y-65143334D01*
X84324727Y-65104741D01*
X84322706Y-65048140D01*
X84361299Y-65006687D01*
X84392040Y-65000000D01*
X113325500Y-65000000D01*
X113377826Y-65021674D01*
X113399500Y-65074000D01*
X113399500Y-73762094D01*
X113377826Y-73814420D01*
X113325500Y-73836094D01*
X113273174Y-73814420D01*
X113263971Y-73803207D01*
X113216750Y-73732537D01*
X113077459Y-73593246D01*
X112913675Y-73483809D01*
X112731691Y-73408429D01*
X112731684Y-73408427D01*
X112690000Y-73400136D01*
X112690000Y-74203011D01*
X112680060Y-74185795D01*
X112624205Y-74129940D01*
X112555796Y-74090444D01*
X112479496Y-74070000D01*
X112400504Y-74070000D01*
X112324204Y-74090444D01*
X112255795Y-74129940D01*
X112199940Y-74185795D01*
X112190000Y-74203011D01*
X112190000Y-73400136D01*
X112189999Y-73400136D01*
X112148315Y-73408427D01*
X112148308Y-73408429D01*
X111966324Y-73483809D01*
X111802540Y-73593246D01*
X111663246Y-73732540D01*
X111553809Y-73896324D01*
X111478430Y-74078306D01*
X111478427Y-74078317D01*
X111440000Y-74271509D01*
X111440000Y-74670000D01*
X112140000Y-74670000D01*
X112140000Y-75170000D01*
X111555596Y-75170000D01*
X111503270Y-75148326D01*
X111491510Y-75133000D01*
X111486404Y-75124157D01*
X111470515Y-75096635D01*
X111363365Y-74989485D01*
X111358758Y-74986825D01*
X111232139Y-74913721D01*
X111232130Y-74913717D01*
X111085768Y-74874500D01*
X111085766Y-74874500D01*
X111064483Y-74874500D01*
X111012157Y-74852826D01*
X110990483Y-74800500D01*
X110991905Y-74786063D01*
X110992927Y-74780920D01*
X110992929Y-74780919D01*
X111000500Y-74742855D01*
X111000499Y-74005000D01*
X111000499Y-73267145D01*
X110998993Y-73259575D01*
X110992929Y-73229081D01*
X110970000Y-73194765D01*
X110964088Y-73185916D01*
X110964085Y-73185913D01*
X110920919Y-73157071D01*
X110906067Y-73154117D01*
X110882855Y-73149500D01*
X110882854Y-73149500D01*
X110257144Y-73149500D01*
X110233933Y-73154117D01*
X110178385Y-73143065D01*
X110146921Y-73095971D01*
X110145500Y-73081538D01*
X110145500Y-72559123D01*
X110145499Y-72559121D01*
X110142061Y-72550821D01*
X110129087Y-72519500D01*
X110129087Y-72519499D01*
X110114215Y-72483594D01*
X109967174Y-72336553D01*
X109945500Y-72284227D01*
X109945500Y-72059124D01*
X109945499Y-72059122D01*
X109937941Y-72040876D01*
X109914215Y-71983594D01*
X109867174Y-71936553D01*
X109845500Y-71884227D01*
X109845500Y-71159123D01*
X109845499Y-71159121D01*
X109841380Y-71149177D01*
X109841379Y-71149176D01*
X109815945Y-71087771D01*
X109814215Y-71083594D01*
X109756406Y-71025785D01*
X108267174Y-69536553D01*
X108245500Y-69484227D01*
X108245500Y-68404500D01*
X108267174Y-68352174D01*
X108319500Y-68330500D01*
X108338604Y-68330500D01*
X108338610Y-68330500D01*
X108412572Y-68319724D01*
X108526657Y-68263951D01*
X108616451Y-68174157D01*
X108672224Y-68060072D01*
X108680980Y-67999976D01*
X108852501Y-67999976D01*
X108862994Y-68102696D01*
X108918142Y-68269121D01*
X109010183Y-68418343D01*
X109010186Y-68418347D01*
X109134153Y-68542314D01*
X109134156Y-68542316D01*
X109283378Y-68634357D01*
X109449802Y-68689505D01*
X109552525Y-68699999D01*
X109614999Y-68699999D01*
X110115000Y-68699999D01*
X110177471Y-68699999D01*
X110177476Y-68699998D01*
X110280196Y-68689505D01*
X110446621Y-68634357D01*
X110595843Y-68542316D01*
X110595847Y-68542314D01*
X110719814Y-68418347D01*
X110719816Y-68418343D01*
X110811857Y-68269121D01*
X110867005Y-68102697D01*
X110877499Y-67999975D01*
X110877500Y-67999973D01*
X110877500Y-67750000D01*
X110115000Y-67750000D01*
X110115000Y-68699999D01*
X109614999Y-68699999D01*
X109615000Y-68699998D01*
X109615000Y-67750000D01*
X108852501Y-67750000D01*
X108852501Y-67999976D01*
X108680980Y-67999976D01*
X108683000Y-67986110D01*
X108683000Y-67013890D01*
X108680980Y-67000024D01*
X108852500Y-67000024D01*
X108852500Y-67250000D01*
X109615000Y-67250000D01*
X110115000Y-67250000D01*
X110877499Y-67250000D01*
X110877499Y-67000029D01*
X110877498Y-67000023D01*
X110867005Y-66897303D01*
X110811857Y-66730878D01*
X110719816Y-66581656D01*
X110719814Y-66581653D01*
X110595847Y-66457686D01*
X110595843Y-66457683D01*
X110446621Y-66365642D01*
X110280197Y-66310494D01*
X110177475Y-66300000D01*
X110115000Y-66300000D01*
X110115000Y-67250000D01*
X109615000Y-67250000D01*
X109615000Y-66300000D01*
X109552528Y-66300000D01*
X109552522Y-66300001D01*
X109449803Y-66310494D01*
X109283378Y-66365642D01*
X109134156Y-66457683D01*
X109010183Y-66581656D01*
X108918142Y-66730878D01*
X108862994Y-66897302D01*
X108852500Y-67000024D01*
X108680980Y-67000024D01*
X108672224Y-66939928D01*
X108616451Y-66825843D01*
X108526657Y-66736049D01*
X108516080Y-66730878D01*
X108412573Y-66680276D01*
X108338614Y-66669500D01*
X108338610Y-66669500D01*
X107741390Y-66669500D01*
X107741385Y-66669500D01*
X107667426Y-66680276D01*
X107553342Y-66736049D01*
X107463549Y-66825842D01*
X107407776Y-66939926D01*
X107397000Y-67013885D01*
X107397000Y-67986114D01*
X107407776Y-68060073D01*
X107447899Y-68142145D01*
X107463549Y-68174157D01*
X107553343Y-68263951D01*
X107667428Y-68319724D01*
X107741390Y-68330500D01*
X107760500Y-68330500D01*
X107812826Y-68352174D01*
X107834500Y-68404500D01*
X107834500Y-69640877D01*
X107865783Y-69716403D01*
X107865786Y-69716407D01*
X109412826Y-71263447D01*
X109434500Y-71315773D01*
X109434500Y-72040877D01*
X109465783Y-72116403D01*
X109465786Y-72116407D01*
X109512826Y-72163447D01*
X109534500Y-72215773D01*
X109534500Y-72440877D01*
X109540143Y-72454500D01*
X109540143Y-72454501D01*
X109565783Y-72516403D01*
X109565786Y-72516407D01*
X109712826Y-72663447D01*
X109734500Y-72715773D01*
X109734500Y-73083328D01*
X109712826Y-73135654D01*
X109689906Y-73151234D01*
X109682665Y-73154369D01*
X109669081Y-73157071D01*
X109655552Y-73166110D01*
X109649406Y-73168772D01*
X109627273Y-73169125D01*
X109605558Y-73173443D01*
X109596326Y-73169619D01*
X109592776Y-73169676D01*
X109590020Y-73167007D01*
X109578890Y-73162397D01*
X109578395Y-73162066D01*
X109570919Y-73157071D01*
X109532855Y-73149500D01*
X109532854Y-73149500D01*
X109207146Y-73149500D01*
X109169081Y-73157071D01*
X109161108Y-73162398D01*
X109105558Y-73173443D01*
X109078890Y-73162397D01*
X109078395Y-73162066D01*
X109070919Y-73157071D01*
X109032855Y-73149500D01*
X109032854Y-73149500D01*
X108707146Y-73149500D01*
X108669081Y-73157071D01*
X108661108Y-73162398D01*
X108605558Y-73173443D01*
X108578890Y-73162397D01*
X108578395Y-73162066D01*
X108570919Y-73157071D01*
X108532855Y-73149500D01*
X108532854Y-73149500D01*
X108207146Y-73149500D01*
X108169081Y-73157071D01*
X108161108Y-73162398D01*
X108105558Y-73173443D01*
X108078890Y-73162397D01*
X108078395Y-73162066D01*
X108070919Y-73157071D01*
X108032855Y-73149500D01*
X108032854Y-73149500D01*
X107707146Y-73149500D01*
X107669081Y-73157071D01*
X107661108Y-73162398D01*
X107605558Y-73173443D01*
X107578890Y-73162397D01*
X107578395Y-73162066D01*
X107570919Y-73157071D01*
X107532855Y-73149500D01*
X107532854Y-73149500D01*
X107207146Y-73149500D01*
X107169081Y-73157071D01*
X107161108Y-73162398D01*
X107146677Y-73165267D01*
X107134446Y-73173442D01*
X107120002Y-73170571D01*
X107105558Y-73173443D01*
X107078895Y-73162400D01*
X107078395Y-73162066D01*
X107046924Y-73114978D01*
X107045500Y-73100532D01*
X107045500Y-71959125D01*
X107044751Y-71957317D01*
X107042609Y-71952145D01*
X107026843Y-71914081D01*
X107014215Y-71883594D01*
X106956406Y-71825785D01*
X104167174Y-69036553D01*
X104145500Y-68984227D01*
X104145500Y-68404500D01*
X104167174Y-68352174D01*
X104219500Y-68330500D01*
X104238604Y-68330500D01*
X104238610Y-68330500D01*
X104312572Y-68319724D01*
X104426657Y-68263951D01*
X104516451Y-68174157D01*
X104572224Y-68060072D01*
X104580980Y-67999976D01*
X104752501Y-67999976D01*
X104762994Y-68102696D01*
X104818142Y-68269121D01*
X104910183Y-68418343D01*
X104910186Y-68418347D01*
X105034153Y-68542314D01*
X105034156Y-68542316D01*
X105183378Y-68634357D01*
X105349802Y-68689505D01*
X105452525Y-68699999D01*
X105514999Y-68699999D01*
X106015000Y-68699999D01*
X106077471Y-68699999D01*
X106077476Y-68699998D01*
X106180196Y-68689505D01*
X106346621Y-68634357D01*
X106495843Y-68542316D01*
X106495847Y-68542314D01*
X106619814Y-68418347D01*
X106619816Y-68418343D01*
X106711857Y-68269121D01*
X106767005Y-68102697D01*
X106777499Y-67999975D01*
X106777500Y-67999973D01*
X106777500Y-67750000D01*
X106015000Y-67750000D01*
X106015000Y-68699999D01*
X105514999Y-68699999D01*
X105515000Y-68699998D01*
X105515000Y-67750000D01*
X104752501Y-67750000D01*
X104752501Y-67999976D01*
X104580980Y-67999976D01*
X104583000Y-67986110D01*
X104583000Y-67013890D01*
X104580980Y-67000024D01*
X104752500Y-67000024D01*
X104752500Y-67250000D01*
X105515000Y-67250000D01*
X106015000Y-67250000D01*
X106777499Y-67250000D01*
X106777499Y-67000029D01*
X106777498Y-67000023D01*
X106767005Y-66897303D01*
X106711857Y-66730878D01*
X106619816Y-66581656D01*
X106619814Y-66581653D01*
X106495847Y-66457686D01*
X106495843Y-66457683D01*
X106346621Y-66365642D01*
X106180197Y-66310494D01*
X106077475Y-66300000D01*
X106015000Y-66300000D01*
X106015000Y-67250000D01*
X105515000Y-67250000D01*
X105515000Y-66300000D01*
X105452528Y-66300000D01*
X105452522Y-66300001D01*
X105349803Y-66310494D01*
X105183378Y-66365642D01*
X105034156Y-66457683D01*
X104910183Y-66581656D01*
X104818142Y-66730878D01*
X104762994Y-66897302D01*
X104752500Y-67000024D01*
X104580980Y-67000024D01*
X104572224Y-66939928D01*
X104516451Y-66825843D01*
X104426657Y-66736049D01*
X104416080Y-66730878D01*
X104312573Y-66680276D01*
X104238614Y-66669500D01*
X104238610Y-66669500D01*
X103641390Y-66669500D01*
X103641385Y-66669500D01*
X103567426Y-66680276D01*
X103453342Y-66736049D01*
X103363549Y-66825842D01*
X103307776Y-66939926D01*
X103297000Y-67013885D01*
X103297000Y-67986114D01*
X103307776Y-68060073D01*
X103347899Y-68142145D01*
X103363549Y-68174157D01*
X103453343Y-68263951D01*
X103567428Y-68319724D01*
X103641390Y-68330500D01*
X103660500Y-68330500D01*
X103712826Y-68352174D01*
X103734500Y-68404500D01*
X103734500Y-69059123D01*
X103734500Y-69140877D01*
X103747458Y-69172162D01*
X103747458Y-69172163D01*
X103765782Y-69216401D01*
X103765786Y-69216407D01*
X106612826Y-72063447D01*
X106634500Y-72115773D01*
X106634500Y-73079549D01*
X106612826Y-73131875D01*
X106560500Y-73153549D01*
X106546069Y-73152128D01*
X106532855Y-73149500D01*
X106532852Y-73149500D01*
X106207146Y-73149500D01*
X106169078Y-73157071D01*
X106162350Y-73159859D01*
X106161521Y-73157858D01*
X106115054Y-73167095D01*
X106067966Y-73135623D01*
X106055500Y-73094519D01*
X106055500Y-72449178D01*
X106055499Y-72449176D01*
X106016604Y-72355273D01*
X106016602Y-72355270D01*
X105944730Y-72283398D01*
X105944726Y-72283395D01*
X105850822Y-72244500D01*
X100110823Y-72244500D01*
X100009178Y-72244500D01*
X99915273Y-72283395D01*
X99915269Y-72283398D01*
X99564215Y-72634452D01*
X99511889Y-72656126D01*
X99479388Y-72648607D01*
X99474158Y-72646050D01*
X99474157Y-72646049D01*
X99360072Y-72590276D01*
X99286114Y-72579500D01*
X99286110Y-72579500D01*
X97913890Y-72579500D01*
X97913885Y-72579500D01*
X97839926Y-72590276D01*
X97725842Y-72646049D01*
X97636049Y-72735842D01*
X97580276Y-72849926D01*
X97569500Y-72923885D01*
X97569500Y-74996114D01*
X97580276Y-75070073D01*
X97629128Y-75170000D01*
X97636049Y-75184157D01*
X97725843Y-75273951D01*
X97839928Y-75329724D01*
X97913890Y-75340500D01*
X97913896Y-75340500D01*
X99286104Y-75340500D01*
X99286110Y-75340500D01*
X99360072Y-75329724D01*
X99474157Y-75273951D01*
X99563951Y-75184157D01*
X99619724Y-75070072D01*
X99630500Y-74996110D01*
X99630500Y-73321483D01*
X99652174Y-73269157D01*
X100144158Y-72777174D01*
X100196484Y-72755500D01*
X104213977Y-72755500D01*
X104266303Y-72777174D01*
X104287977Y-72829500D01*
X104266303Y-72881826D01*
X104258324Y-72888740D01*
X104212811Y-72922811D01*
X104126646Y-73037911D01*
X104126645Y-73037912D01*
X104076403Y-73172619D01*
X104076402Y-73172624D01*
X104070000Y-73232171D01*
X104070000Y-73348722D01*
X104050000Y-73397006D01*
X104050000Y-73755000D01*
X104796000Y-73755000D01*
X104848326Y-73776674D01*
X104870000Y-73829000D01*
X104870000Y-74005000D01*
X105046000Y-74005000D01*
X105098326Y-74026674D01*
X105120000Y-74079000D01*
X105120000Y-74826890D01*
X105098326Y-74879216D01*
X105065153Y-74898368D01*
X105007868Y-74913717D01*
X105007863Y-74913719D01*
X104876637Y-74989483D01*
X104876635Y-74989484D01*
X104876635Y-74989485D01*
X104769485Y-75096635D01*
X104769483Y-75096638D01*
X104769482Y-75096638D01*
X104758085Y-75116379D01*
X104713151Y-75150857D01*
X104656999Y-75143463D01*
X104622521Y-75098529D01*
X104620000Y-75079378D01*
X104620000Y-74255000D01*
X104079769Y-74255000D01*
X104079556Y-74254204D01*
X104040060Y-74185795D01*
X103984205Y-74129940D01*
X103915796Y-74090444D01*
X103839496Y-74070000D01*
X103760504Y-74070000D01*
X103684204Y-74090444D01*
X103615795Y-74129940D01*
X103559940Y-74185795D01*
X103550000Y-74203011D01*
X103550000Y-73400136D01*
X103549999Y-73400136D01*
X103508315Y-73408427D01*
X103508308Y-73408429D01*
X103326324Y-73483809D01*
X103162540Y-73593246D01*
X103023246Y-73732540D01*
X102913809Y-73896324D01*
X102838430Y-74078306D01*
X102838427Y-74078317D01*
X102800000Y-74271509D01*
X102800000Y-74670000D01*
X103500000Y-74670000D01*
X103500000Y-75170000D01*
X102800000Y-75170000D01*
X102800000Y-75568490D01*
X102838427Y-75761682D01*
X102838430Y-75761693D01*
X102913809Y-75943675D01*
X103023246Y-76107459D01*
X103162540Y-76246753D01*
X103326324Y-76356190D01*
X103508306Y-76431569D01*
X103508317Y-76431572D01*
X103549999Y-76439863D01*
X103550000Y-76439863D01*
X103550000Y-75636988D01*
X103559940Y-75654205D01*
X103615795Y-75710060D01*
X103684204Y-75749556D01*
X103760504Y-75770000D01*
X103839496Y-75770000D01*
X103915796Y-75749556D01*
X103984205Y-75710060D01*
X104040060Y-75654205D01*
X104050000Y-75636988D01*
X104050000Y-76439863D01*
X104091682Y-76431572D01*
X104091693Y-76431569D01*
X104273675Y-76356190D01*
X104437459Y-76246753D01*
X104576753Y-76107459D01*
X104686189Y-75943675D01*
X104709299Y-75887881D01*
X104749347Y-75847832D01*
X104805984Y-75847830D01*
X104829989Y-75863869D01*
X104876635Y-75910515D01*
X105007865Y-75986281D01*
X105154231Y-76025499D01*
X105154232Y-76025500D01*
X105154234Y-76025500D01*
X105305768Y-76025500D01*
X105305768Y-76025499D01*
X105452135Y-75986281D01*
X105583365Y-75910515D01*
X105690515Y-75803365D01*
X105766281Y-75672135D01*
X105805499Y-75525768D01*
X105805500Y-75525768D01*
X105805500Y-75374232D01*
X105801064Y-75357679D01*
X105808455Y-75301526D01*
X105853388Y-75267047D01*
X105909541Y-75274438D01*
X105924866Y-75286197D01*
X106455271Y-75816603D01*
X106549178Y-75855501D01*
X106549179Y-75855501D01*
X106659435Y-75855501D01*
X106659443Y-75855500D01*
X109950822Y-75855500D01*
X109950823Y-75855500D01*
X109978327Y-75844107D01*
X110044729Y-75816603D01*
X110116603Y-75744729D01*
X110127011Y-75734321D01*
X110127013Y-75734317D01*
X110321757Y-75539576D01*
X110324255Y-75542074D01*
X110360700Y-75517698D01*
X110416255Y-75528720D01*
X110446650Y-75571116D01*
X110473717Y-75672130D01*
X110473721Y-75672139D01*
X110549483Y-75803362D01*
X110549485Y-75803365D01*
X110656635Y-75910515D01*
X110787865Y-75986281D01*
X110934231Y-76025499D01*
X110934232Y-76025500D01*
X110934234Y-76025500D01*
X111085768Y-76025500D01*
X111085768Y-76025499D01*
X111232135Y-75986281D01*
X111363365Y-75910515D01*
X111410006Y-75863873D01*
X111462330Y-75842199D01*
X111514656Y-75863873D01*
X111530698Y-75887880D01*
X111553810Y-75943677D01*
X111663246Y-76107459D01*
X111802540Y-76246753D01*
X111966324Y-76356190D01*
X112148306Y-76431569D01*
X112148317Y-76431572D01*
X112189999Y-76439863D01*
X112190000Y-76439863D01*
X112190000Y-75636988D01*
X112199940Y-75654205D01*
X112255795Y-75710060D01*
X112324204Y-75749556D01*
X112400504Y-75770000D01*
X112479496Y-75770000D01*
X112555796Y-75749556D01*
X112624205Y-75710060D01*
X112680060Y-75654205D01*
X112690000Y-75636988D01*
X112690000Y-76439863D01*
X112731682Y-76431572D01*
X112731693Y-76431569D01*
X112913675Y-76356190D01*
X113077459Y-76246753D01*
X113216753Y-76107459D01*
X113263971Y-76036793D01*
X113311063Y-76005327D01*
X113366612Y-76016376D01*
X113398078Y-76063468D01*
X113399500Y-76077905D01*
X113399500Y-78192094D01*
X113377826Y-78244420D01*
X113325500Y-78266094D01*
X113273174Y-78244420D01*
X113263971Y-78233207D01*
X113216750Y-78162537D01*
X113077459Y-78023246D01*
X112913675Y-77913809D01*
X112731691Y-77838429D01*
X112731684Y-77838427D01*
X112690000Y-77830136D01*
X112690000Y-78633011D01*
X112680060Y-78615795D01*
X112624205Y-78559940D01*
X112555796Y-78520444D01*
X112479496Y-78500000D01*
X112400504Y-78500000D01*
X112324204Y-78520444D01*
X112255795Y-78559940D01*
X112199940Y-78615795D01*
X112190000Y-78633011D01*
X112190000Y-77830136D01*
X112189999Y-77830136D01*
X112148315Y-77838427D01*
X112148308Y-77838429D01*
X111966324Y-77913809D01*
X111802540Y-78023246D01*
X111663246Y-78162540D01*
X111553809Y-78326324D01*
X111478430Y-78508306D01*
X111478427Y-78508317D01*
X111440000Y-78701509D01*
X111440000Y-78850000D01*
X112140000Y-78850000D01*
X112140000Y-79350000D01*
X111440000Y-79350000D01*
X111440000Y-79498490D01*
X111478427Y-79691682D01*
X111478430Y-79691693D01*
X111553809Y-79873675D01*
X111663246Y-80037459D01*
X111802540Y-80176753D01*
X111966324Y-80286190D01*
X112148306Y-80361569D01*
X112148317Y-80361572D01*
X112189999Y-80369863D01*
X112190000Y-80369863D01*
X112190000Y-79566988D01*
X112199940Y-79584205D01*
X112255795Y-79640060D01*
X112324204Y-79679556D01*
X112400504Y-79700000D01*
X112479496Y-79700000D01*
X112555796Y-79679556D01*
X112624205Y-79640060D01*
X112680060Y-79584205D01*
X112690000Y-79566988D01*
X112690000Y-80369863D01*
X112731682Y-80361572D01*
X112731693Y-80361569D01*
X112913675Y-80286190D01*
X113077459Y-80176753D01*
X113216753Y-80037459D01*
X113263971Y-79966793D01*
X113311063Y-79935327D01*
X113366612Y-79946376D01*
X113398078Y-79993468D01*
X113399500Y-80007905D01*
X113399500Y-110825500D01*
X113377826Y-110877826D01*
X113325500Y-110899500D01*
X80759410Y-110899500D01*
X80758508Y-110899494D01*
X39872138Y-110400879D01*
X39820080Y-110378569D01*
X39799046Y-110327864D01*
X39767752Y-107959976D01*
X96675001Y-107959976D01*
X96685494Y-108062696D01*
X96740642Y-108229121D01*
X96832683Y-108378343D01*
X96832686Y-108378347D01*
X96956653Y-108502314D01*
X96956656Y-108502316D01*
X97105878Y-108594357D01*
X97272302Y-108649505D01*
X97375025Y-108659999D01*
X97650000Y-108659999D01*
X98150000Y-108659999D01*
X98424971Y-108659999D01*
X98424976Y-108659998D01*
X98527696Y-108649505D01*
X98694121Y-108594357D01*
X98843343Y-108502316D01*
X98843347Y-108502314D01*
X98967314Y-108378347D01*
X98967316Y-108378343D01*
X99059357Y-108229121D01*
X99114505Y-108062697D01*
X99124999Y-107959975D01*
X99125000Y-107959973D01*
X99125000Y-107910000D01*
X98150000Y-107910000D01*
X98150000Y-108659999D01*
X97650000Y-108659999D01*
X97650000Y-107910000D01*
X96675001Y-107910000D01*
X96675001Y-107959976D01*
X39767752Y-107959976D01*
X39599088Y-95197687D01*
X54700000Y-95197687D01*
X54700000Y-95402312D01*
X54732009Y-95604414D01*
X54732012Y-95604427D01*
X54795240Y-95799021D01*
X54888139Y-95981349D01*
X54920524Y-96025921D01*
X55600000Y-95346445D01*
X55600000Y-95352661D01*
X55627259Y-95454394D01*
X55679920Y-95545606D01*
X55754394Y-95620080D01*
X55845606Y-95672741D01*
X55947339Y-95700000D01*
X55953553Y-95700000D01*
X55274077Y-96379475D01*
X55318651Y-96411860D01*
X55500978Y-96504759D01*
X55695572Y-96567987D01*
X55695585Y-96567990D01*
X55897687Y-96600000D01*
X56102313Y-96600000D01*
X56304414Y-96567990D01*
X56304427Y-96567987D01*
X56499021Y-96504759D01*
X56681348Y-96411860D01*
X56725921Y-96379475D01*
X56725921Y-96379474D01*
X56706916Y-96360469D01*
X64966849Y-96360469D01*
X64966849Y-96744229D01*
X64969570Y-96767682D01*
X65011929Y-96863616D01*
X65086082Y-96937769D01*
X65182016Y-96980128D01*
X65205469Y-96982849D01*
X65205473Y-96982849D01*
X66939225Y-96982849D01*
X66939229Y-96982849D01*
X66962682Y-96980128D01*
X67058616Y-96937769D01*
X67132769Y-96863616D01*
X67159821Y-96802349D01*
X69550053Y-96802349D01*
X69550249Y-96804842D01*
X69596067Y-96962548D01*
X69679666Y-97103905D01*
X69795792Y-97220031D01*
X69937149Y-97303630D01*
X70094857Y-97349448D01*
X70094854Y-97349448D01*
X70131708Y-97352349D01*
X70772349Y-97352349D01*
X71272349Y-97352349D01*
X71912990Y-97352349D01*
X71949842Y-97349448D01*
X72107548Y-97303630D01*
X72248905Y-97220031D01*
X72365031Y-97103905D01*
X72448630Y-96962548D01*
X72494448Y-96804842D01*
X72494645Y-96802349D01*
X71272349Y-96802349D01*
X71272349Y-97352349D01*
X70772349Y-97352349D01*
X70772349Y-96802349D01*
X69550053Y-96802349D01*
X67159821Y-96802349D01*
X67175128Y-96767682D01*
X67177849Y-96744229D01*
X67177849Y-96360469D01*
X67175128Y-96337016D01*
X67132769Y-96241082D01*
X67058616Y-96166929D01*
X66962682Y-96124570D01*
X66962683Y-96124570D01*
X66957991Y-96124025D01*
X66939229Y-96121849D01*
X65205469Y-96121849D01*
X65186706Y-96124025D01*
X65182015Y-96124570D01*
X65086081Y-96166929D01*
X65011929Y-96241081D01*
X64972448Y-96330499D01*
X64969570Y-96337016D01*
X64966849Y-96360469D01*
X56706916Y-96360469D01*
X56046447Y-95700000D01*
X56052661Y-95700000D01*
X56154394Y-95672741D01*
X56245606Y-95620080D01*
X56320080Y-95545606D01*
X56372741Y-95454394D01*
X56400000Y-95352661D01*
X56400000Y-95346447D01*
X57079475Y-96025922D01*
X57079475Y-96025921D01*
X57111860Y-95981348D01*
X57204759Y-95799021D01*
X57267987Y-95604427D01*
X57267990Y-95604414D01*
X57300000Y-95402312D01*
X57300000Y-95197687D01*
X57267990Y-94995585D01*
X57267987Y-94995572D01*
X57204759Y-94800978D01*
X57111860Y-94618651D01*
X57079475Y-94574077D01*
X56400000Y-95253552D01*
X56400000Y-95247339D01*
X56372741Y-95145606D01*
X56320080Y-95054394D01*
X56245606Y-94979920D01*
X56154394Y-94927259D01*
X56052661Y-94900000D01*
X56046445Y-94900000D01*
X56725921Y-94220524D01*
X56681349Y-94188139D01*
X56499021Y-94095240D01*
X56304427Y-94032012D01*
X56304414Y-94032009D01*
X56102313Y-94000000D01*
X55897687Y-94000000D01*
X55695585Y-94032009D01*
X55695572Y-94032012D01*
X55500978Y-94095240D01*
X55318650Y-94188139D01*
X55274077Y-94220523D01*
X55274077Y-94220524D01*
X55953553Y-94900000D01*
X55947339Y-94900000D01*
X55845606Y-94927259D01*
X55754394Y-94979920D01*
X55679920Y-95054394D01*
X55627259Y-95145606D01*
X55600000Y-95247339D01*
X55600000Y-95253553D01*
X54920524Y-94574077D01*
X54920523Y-94574077D01*
X54888139Y-94618650D01*
X54795240Y-94800978D01*
X54732012Y-94995572D01*
X54732009Y-94995585D01*
X54700000Y-95197687D01*
X39599088Y-95197687D01*
X39564103Y-92550469D01*
X64966849Y-92550469D01*
X64966849Y-92934229D01*
X64969570Y-92957682D01*
X65011929Y-93053616D01*
X65086082Y-93127769D01*
X65182016Y-93170128D01*
X65205469Y-93172849D01*
X65205473Y-93172849D01*
X66939225Y-93172849D01*
X66939229Y-93172849D01*
X66962682Y-93170128D01*
X67058616Y-93127769D01*
X67132769Y-93053616D01*
X67175128Y-92957682D01*
X67177849Y-92934229D01*
X67177849Y-92550469D01*
X67175128Y-92527016D01*
X67132769Y-92431082D01*
X67058616Y-92356929D01*
X66962682Y-92314570D01*
X66962683Y-92314570D01*
X66957991Y-92314025D01*
X66939229Y-92311849D01*
X65205469Y-92311849D01*
X65186706Y-92314025D01*
X65182015Y-92314570D01*
X65086081Y-92356929D01*
X65011929Y-92431081D01*
X64997608Y-92463517D01*
X64969570Y-92527016D01*
X64966849Y-92550469D01*
X39564103Y-92550469D01*
X39429808Y-82388885D01*
X42669500Y-82388885D01*
X42669500Y-83411114D01*
X42680276Y-83485073D01*
X42724239Y-83575000D01*
X42736049Y-83599157D01*
X42825843Y-83688951D01*
X42939928Y-83744724D01*
X43013890Y-83755500D01*
X43170500Y-83755500D01*
X43222826Y-83777174D01*
X43244500Y-83829500D01*
X43244500Y-86450823D01*
X43283395Y-86544726D01*
X43283398Y-86544730D01*
X43365678Y-86627010D01*
X43365680Y-86627011D01*
X44479176Y-87740507D01*
X44479179Y-87740511D01*
X44483397Y-87744729D01*
X44555271Y-87816603D01*
X44621672Y-87844107D01*
X44649177Y-87855500D01*
X44649178Y-87855500D01*
X54950822Y-87855500D01*
X54950823Y-87855500D01*
X54978327Y-87844107D01*
X55044729Y-87816603D01*
X55116603Y-87744729D01*
X55116603Y-87744728D01*
X55127008Y-87734323D01*
X55127009Y-87734320D01*
X56191603Y-86669729D01*
X56230501Y-86575822D01*
X56230501Y-86474177D01*
X56230501Y-86468219D01*
X56230500Y-86468205D01*
X56230500Y-84622828D01*
X68040000Y-84622828D01*
X68046402Y-84682375D01*
X68046403Y-84682380D01*
X68096645Y-84817087D01*
X68096646Y-84817088D01*
X68182811Y-84932188D01*
X68297911Y-85018353D01*
X68297912Y-85018354D01*
X68432619Y-85068596D01*
X68432624Y-85068597D01*
X68492171Y-85075000D01*
X68740000Y-85075000D01*
X69240000Y-85075000D01*
X69487829Y-85075000D01*
X69547375Y-85068597D01*
X69547380Y-85068596D01*
X69682087Y-85018354D01*
X69682088Y-85018353D01*
X69797188Y-84932188D01*
X69883352Y-84817089D01*
X69907017Y-84753640D01*
X69945610Y-84712187D01*
X69976348Y-84705499D01*
X70722854Y-84705499D01*
X70760919Y-84697929D01*
X70804086Y-84669086D01*
X70832929Y-84625919D01*
X70832928Y-84625919D01*
X70833471Y-84625108D01*
X70880562Y-84593641D01*
X70936111Y-84604690D01*
X70956529Y-84625108D01*
X70985911Y-84669083D01*
X70985913Y-84669085D01*
X70985914Y-84669086D01*
X71029081Y-84697929D01*
X71067145Y-84705500D01*
X71992854Y-84705499D01*
X72030919Y-84697929D01*
X72074086Y-84669086D01*
X72102929Y-84625919D01*
X72102928Y-84625919D01*
X72103471Y-84625108D01*
X72150562Y-84593641D01*
X72206111Y-84604690D01*
X72226529Y-84625108D01*
X72255911Y-84669083D01*
X72255913Y-84669085D01*
X72255914Y-84669086D01*
X72299081Y-84697929D01*
X72337145Y-84705500D01*
X73262854Y-84705499D01*
X73300919Y-84697929D01*
X73344086Y-84669086D01*
X73372929Y-84625919D01*
X73372928Y-84625919D01*
X73373471Y-84625108D01*
X73420562Y-84593641D01*
X73476111Y-84604690D01*
X73496529Y-84625108D01*
X73525911Y-84669083D01*
X73525913Y-84669085D01*
X73525914Y-84669086D01*
X73569081Y-84697929D01*
X73607145Y-84705500D01*
X74532854Y-84705499D01*
X74570919Y-84697929D01*
X74614086Y-84669086D01*
X74642929Y-84625919D01*
X74642928Y-84625919D01*
X74643471Y-84625108D01*
X74690562Y-84593641D01*
X74746111Y-84604690D01*
X74766529Y-84625108D01*
X74795911Y-84669083D01*
X74795913Y-84669085D01*
X74795914Y-84669086D01*
X74839081Y-84697929D01*
X74877145Y-84705500D01*
X75802854Y-84705499D01*
X75840919Y-84697929D01*
X75884086Y-84669086D01*
X75912929Y-84625919D01*
X75912928Y-84625919D01*
X75913471Y-84625108D01*
X75960562Y-84593641D01*
X76016111Y-84604690D01*
X76036529Y-84625108D01*
X76065911Y-84669083D01*
X76065913Y-84669085D01*
X76065914Y-84669086D01*
X76109081Y-84697929D01*
X76147145Y-84705500D01*
X77072854Y-84705499D01*
X77110919Y-84697929D01*
X77154086Y-84669086D01*
X77182929Y-84625919D01*
X77182928Y-84625919D01*
X77183471Y-84625108D01*
X77230562Y-84593641D01*
X77286111Y-84604690D01*
X77306529Y-84625108D01*
X77335911Y-84669083D01*
X77335913Y-84669085D01*
X77335914Y-84669086D01*
X77379081Y-84697929D01*
X77417145Y-84705500D01*
X78342854Y-84705499D01*
X78380919Y-84697929D01*
X78424086Y-84669086D01*
X78452929Y-84625919D01*
X78452928Y-84625919D01*
X78453471Y-84625108D01*
X78500562Y-84593641D01*
X78556111Y-84604690D01*
X78576529Y-84625108D01*
X78605911Y-84669083D01*
X78605913Y-84669085D01*
X78605914Y-84669086D01*
X78649081Y-84697929D01*
X78687145Y-84705500D01*
X79612854Y-84705499D01*
X79650919Y-84697929D01*
X79694086Y-84669086D01*
X79722929Y-84625919D01*
X79722928Y-84625919D01*
X79723471Y-84625108D01*
X79770562Y-84593641D01*
X79826111Y-84604690D01*
X79846529Y-84625108D01*
X79875911Y-84669083D01*
X79875913Y-84669085D01*
X79875914Y-84669086D01*
X79919081Y-84697929D01*
X79957145Y-84705500D01*
X80882854Y-84705499D01*
X80920919Y-84697929D01*
X80964086Y-84669086D01*
X80992929Y-84625919D01*
X81000500Y-84587855D01*
X81000499Y-83062146D01*
X80992929Y-83024081D01*
X80983314Y-83009692D01*
X80964088Y-82980916D01*
X80964085Y-82980913D01*
X80920919Y-82952071D01*
X80882855Y-82944500D01*
X80882854Y-82944500D01*
X79957145Y-82944500D01*
X79919080Y-82952071D01*
X79875916Y-82980911D01*
X79875912Y-82980915D01*
X79846527Y-83024893D01*
X79799435Y-83056358D01*
X79743886Y-83045308D01*
X79723469Y-83024891D01*
X79722929Y-83024083D01*
X79722929Y-83024081D01*
X79694086Y-82980914D01*
X79674188Y-82967619D01*
X79650919Y-82952071D01*
X79612855Y-82944500D01*
X79612854Y-82944500D01*
X78687145Y-82944500D01*
X78649080Y-82952071D01*
X78605916Y-82980911D01*
X78605912Y-82980915D01*
X78576527Y-83024893D01*
X78529435Y-83056358D01*
X78473886Y-83045308D01*
X78453469Y-83024891D01*
X78452929Y-83024083D01*
X78452929Y-83024081D01*
X78424086Y-82980914D01*
X78404188Y-82967619D01*
X78380919Y-82952071D01*
X78342855Y-82944500D01*
X78342854Y-82944500D01*
X77417145Y-82944500D01*
X77379080Y-82952071D01*
X77335916Y-82980911D01*
X77335912Y-82980915D01*
X77306527Y-83024893D01*
X77259435Y-83056358D01*
X77203886Y-83045308D01*
X77183469Y-83024891D01*
X77182929Y-83024083D01*
X77182929Y-83024081D01*
X77154086Y-82980914D01*
X77134188Y-82967619D01*
X77110919Y-82952071D01*
X77072855Y-82944500D01*
X77072854Y-82944500D01*
X76147145Y-82944500D01*
X76109080Y-82952071D01*
X76065916Y-82980911D01*
X76065912Y-82980915D01*
X76036527Y-83024893D01*
X75989435Y-83056358D01*
X75933886Y-83045308D01*
X75913469Y-83024891D01*
X75912929Y-83024083D01*
X75912929Y-83024081D01*
X75884086Y-82980914D01*
X75864188Y-82967619D01*
X75840919Y-82952071D01*
X75802855Y-82944500D01*
X75802854Y-82944500D01*
X74877145Y-82944500D01*
X74839080Y-82952071D01*
X74795916Y-82980911D01*
X74795912Y-82980915D01*
X74766527Y-83024893D01*
X74719435Y-83056358D01*
X74663886Y-83045308D01*
X74643469Y-83024891D01*
X74642929Y-83024083D01*
X74642929Y-83024081D01*
X74614086Y-82980914D01*
X74594188Y-82967619D01*
X74570919Y-82952071D01*
X74532855Y-82944500D01*
X74532854Y-82944500D01*
X73607145Y-82944500D01*
X73569080Y-82952071D01*
X73525916Y-82980911D01*
X73525912Y-82980915D01*
X73496527Y-83024893D01*
X73449435Y-83056358D01*
X73393886Y-83045308D01*
X73373469Y-83024891D01*
X73372929Y-83024083D01*
X73372929Y-83024081D01*
X73344086Y-82980914D01*
X73324188Y-82967619D01*
X73300919Y-82952071D01*
X73262855Y-82944500D01*
X73262854Y-82944500D01*
X72337145Y-82944500D01*
X72299080Y-82952071D01*
X72255916Y-82980911D01*
X72255912Y-82980915D01*
X72226527Y-83024893D01*
X72179435Y-83056358D01*
X72123886Y-83045308D01*
X72103469Y-83024891D01*
X72102929Y-83024083D01*
X72102929Y-83024081D01*
X72074086Y-82980914D01*
X72054188Y-82967619D01*
X72030919Y-82952071D01*
X71992855Y-82944500D01*
X71992854Y-82944500D01*
X71067145Y-82944500D01*
X71029080Y-82952071D01*
X70985916Y-82980911D01*
X70985912Y-82980915D01*
X70956527Y-83024893D01*
X70909435Y-83056358D01*
X70853886Y-83045308D01*
X70833469Y-83024891D01*
X70832929Y-83024083D01*
X70832929Y-83024081D01*
X70804086Y-82980914D01*
X70784188Y-82967619D01*
X70760919Y-82952071D01*
X70722855Y-82944500D01*
X69976352Y-82944500D01*
X69924026Y-82922826D01*
X69907017Y-82896360D01*
X69883351Y-82832909D01*
X69797188Y-82717811D01*
X69682088Y-82631646D01*
X69682087Y-82631645D01*
X69547380Y-82581403D01*
X69547375Y-82581402D01*
X69487829Y-82575000D01*
X69240000Y-82575000D01*
X69240000Y-85075000D01*
X68740000Y-85075000D01*
X68740000Y-84075000D01*
X68040000Y-84075000D01*
X68040000Y-84622828D01*
X56230500Y-84622828D01*
X56230500Y-84200780D01*
X56252174Y-84148454D01*
X56293829Y-84127554D01*
X56347572Y-84119724D01*
X56461657Y-84063951D01*
X56551451Y-83974157D01*
X56607224Y-83860072D01*
X56615980Y-83799976D01*
X56787501Y-83799976D01*
X56797994Y-83902696D01*
X56853142Y-84069121D01*
X56945183Y-84218343D01*
X56945186Y-84218347D01*
X57069153Y-84342314D01*
X57069156Y-84342316D01*
X57218378Y-84434357D01*
X57384802Y-84489505D01*
X57487525Y-84499999D01*
X57549999Y-84499999D01*
X58050000Y-84499999D01*
X58112471Y-84499999D01*
X58112476Y-84499998D01*
X58215196Y-84489505D01*
X58381621Y-84434357D01*
X58530843Y-84342316D01*
X58530847Y-84342314D01*
X58654814Y-84218347D01*
X58654816Y-84218343D01*
X58746858Y-84069120D01*
X58762780Y-84021072D01*
X58762780Y-84021071D01*
X58802005Y-83902697D01*
X58812499Y-83799975D01*
X58812500Y-83799973D01*
X58812500Y-83550000D01*
X58050000Y-83550000D01*
X58050000Y-84499999D01*
X57549999Y-84499999D01*
X57550000Y-84499998D01*
X57550000Y-83550000D01*
X56787501Y-83550000D01*
X56787501Y-83799976D01*
X56615980Y-83799976D01*
X56618000Y-83786110D01*
X56618000Y-82813890D01*
X56615980Y-82800024D01*
X56787500Y-82800024D01*
X56787500Y-83050000D01*
X57550000Y-83050000D01*
X58050000Y-83050000D01*
X58812499Y-83050000D01*
X58812499Y-82800029D01*
X58812498Y-82800023D01*
X58802005Y-82697303D01*
X58746857Y-82530878D01*
X58654816Y-82381656D01*
X58654814Y-82381653D01*
X58530847Y-82257686D01*
X58530843Y-82257683D01*
X58381621Y-82165642D01*
X58215197Y-82110494D01*
X58112475Y-82100000D01*
X58050000Y-82100000D01*
X58050000Y-83050000D01*
X57550000Y-83050000D01*
X57550000Y-82100000D01*
X57487528Y-82100000D01*
X57487522Y-82100001D01*
X57384803Y-82110494D01*
X57218378Y-82165642D01*
X57069156Y-82257683D01*
X56945183Y-82381656D01*
X56853142Y-82530878D01*
X56797994Y-82697302D01*
X56787500Y-82800024D01*
X56615980Y-82800024D01*
X56607224Y-82739928D01*
X56551451Y-82625843D01*
X56461657Y-82536049D01*
X56451080Y-82530878D01*
X56347573Y-82480276D01*
X56293830Y-82472446D01*
X56245176Y-82443454D01*
X56230500Y-82399219D01*
X56230500Y-79652248D01*
X56252174Y-79599922D01*
X56304500Y-79578248D01*
X56343643Y-79591654D01*
X56344437Y-79590313D01*
X56489800Y-79676281D01*
X56647506Y-79722099D01*
X56650000Y-79722295D01*
X57150000Y-79722295D01*
X57152493Y-79722099D01*
X57310199Y-79676281D01*
X57451556Y-79592682D01*
X57567682Y-79476556D01*
X57651281Y-79335199D01*
X57697099Y-79177493D01*
X57700000Y-79140641D01*
X57700000Y-78500000D01*
X57150000Y-78500000D01*
X57150000Y-79722295D01*
X56650000Y-79722295D01*
X56650000Y-78000000D01*
X57150000Y-78000000D01*
X57700000Y-78000000D01*
X57700000Y-77359358D01*
X57697099Y-77322506D01*
X57651281Y-77164800D01*
X57567682Y-77023443D01*
X57451556Y-76907317D01*
X57310199Y-76823718D01*
X57152493Y-76777900D01*
X57150000Y-76777703D01*
X57150000Y-78000000D01*
X56650000Y-78000000D01*
X56650000Y-76777703D01*
X56649999Y-76777703D01*
X56647506Y-76777900D01*
X56489800Y-76823718D01*
X56348443Y-76907317D01*
X56232317Y-77023443D01*
X56148718Y-77164800D01*
X56131347Y-77224592D01*
X56095934Y-77268793D01*
X56039639Y-77275008D01*
X56007959Y-77256272D01*
X55941267Y-77189580D01*
X55845333Y-77147221D01*
X55845334Y-77147221D01*
X55840642Y-77146676D01*
X55821880Y-77144500D01*
X55438120Y-77144500D01*
X55419357Y-77146676D01*
X55414666Y-77147221D01*
X55318732Y-77189580D01*
X55244580Y-77263732D01*
X55202888Y-77358157D01*
X55202221Y-77359667D01*
X55199500Y-77383120D01*
X55199500Y-79116880D01*
X55202221Y-79140333D01*
X55244580Y-79236267D01*
X55318733Y-79310420D01*
X55414667Y-79352779D01*
X55438120Y-79355500D01*
X55645500Y-79355500D01*
X55697826Y-79377174D01*
X55719500Y-79429500D01*
X55719500Y-82399219D01*
X55697826Y-82451545D01*
X55656170Y-82472446D01*
X55602426Y-82480276D01*
X55488342Y-82536049D01*
X55398549Y-82625842D01*
X55342776Y-82739926D01*
X55332000Y-82813885D01*
X55332000Y-83786114D01*
X55342776Y-83860073D01*
X55363614Y-83902697D01*
X55398549Y-83974157D01*
X55488343Y-84063951D01*
X55602428Y-84119724D01*
X55656169Y-84127553D01*
X55704823Y-84156544D01*
X55719500Y-84200780D01*
X55719500Y-86388516D01*
X55697826Y-86440842D01*
X54815843Y-87322826D01*
X54763517Y-87344500D01*
X44836483Y-87344500D01*
X44784157Y-87322826D01*
X43777174Y-86315843D01*
X43755500Y-86263517D01*
X43755500Y-83738260D01*
X43777174Y-83685934D01*
X43863951Y-83599157D01*
X43919724Y-83485072D01*
X43930500Y-83411110D01*
X43930500Y-82388890D01*
X43919724Y-82314928D01*
X43863951Y-82200843D01*
X43774157Y-82111049D01*
X43751556Y-82100000D01*
X43660073Y-82055276D01*
X43586114Y-82044500D01*
X43586110Y-82044500D01*
X43013890Y-82044500D01*
X43013885Y-82044500D01*
X42939926Y-82055276D01*
X42825842Y-82111049D01*
X42736049Y-82200842D01*
X42680276Y-82314926D01*
X42669500Y-82388885D01*
X39429808Y-82388885D01*
X39333663Y-75113885D01*
X41102000Y-75113885D01*
X41102000Y-75686114D01*
X41112776Y-75760073D01*
X41153857Y-75844105D01*
X41168549Y-75874157D01*
X41258343Y-75963951D01*
X41372428Y-76019724D01*
X41446390Y-76030500D01*
X41446396Y-76030500D01*
X42018604Y-76030500D01*
X42018610Y-76030500D01*
X42092572Y-76019724D01*
X42206657Y-75963951D01*
X42296451Y-75874157D01*
X42352224Y-75760072D01*
X42363000Y-75686110D01*
X42363000Y-75337901D01*
X43002000Y-75337901D01*
X43002000Y-75462099D01*
X43007974Y-75492136D01*
X43026227Y-75583903D01*
X43026229Y-75583910D01*
X43068563Y-75686114D01*
X43073758Y-75698654D01*
X43142758Y-75801920D01*
X43230580Y-75889742D01*
X43333846Y-75958742D01*
X43448590Y-76006271D01*
X43570401Y-76030500D01*
X43694599Y-76030500D01*
X43816410Y-76006271D01*
X43816420Y-76006266D01*
X43819890Y-76005215D01*
X43820535Y-76007343D01*
X43870435Y-76007282D01*
X43894527Y-76023358D01*
X45322826Y-77451657D01*
X45344500Y-77503983D01*
X45344500Y-81970500D01*
X45322826Y-82022826D01*
X45270500Y-82044500D01*
X44913885Y-82044500D01*
X44839926Y-82055276D01*
X44725842Y-82111049D01*
X44636049Y-82200842D01*
X44580276Y-82314926D01*
X44569500Y-82388885D01*
X44569500Y-83411114D01*
X44580276Y-83485073D01*
X44624239Y-83575000D01*
X44636049Y-83599157D01*
X44725843Y-83688951D01*
X44839928Y-83744724D01*
X44913890Y-83755500D01*
X44913896Y-83755500D01*
X45486104Y-83755500D01*
X45486110Y-83755500D01*
X45560072Y-83744724D01*
X45674157Y-83688951D01*
X45763951Y-83599157D01*
X45819724Y-83485072D01*
X45830500Y-83411110D01*
X45830500Y-82625896D01*
X45836132Y-82597580D01*
X45855500Y-82550822D01*
X45855500Y-77316678D01*
X45816603Y-77222771D01*
X45744729Y-77150897D01*
X45740514Y-77146682D01*
X45740507Y-77146676D01*
X44255858Y-75662027D01*
X44234184Y-75609701D01*
X44238583Y-75587653D01*
X44237715Y-75587390D01*
X44238766Y-75583920D01*
X44238771Y-75583910D01*
X44263000Y-75462099D01*
X44263000Y-75337901D01*
X44238771Y-75216090D01*
X44191242Y-75101346D01*
X44122242Y-74998080D01*
X44034420Y-74910258D01*
X44016625Y-74898368D01*
X43980904Y-74874500D01*
X43931154Y-74841258D01*
X43931151Y-74841256D01*
X43931150Y-74841256D01*
X43816410Y-74793729D01*
X43816403Y-74793727D01*
X43694599Y-74769500D01*
X43570401Y-74769500D01*
X43448596Y-74793727D01*
X43448589Y-74793729D01*
X43333849Y-74841256D01*
X43230580Y-74910257D01*
X43230579Y-74910259D01*
X43142759Y-74998079D01*
X43142757Y-74998080D01*
X43073756Y-75101349D01*
X43026229Y-75216089D01*
X43026227Y-75216096D01*
X43003627Y-75329723D01*
X43002000Y-75337901D01*
X42363000Y-75337901D01*
X42363000Y-75113890D01*
X42352224Y-75039928D01*
X42296451Y-74925843D01*
X42206657Y-74836049D01*
X42182894Y-74824432D01*
X42092573Y-74780276D01*
X42051330Y-74774267D01*
X42002676Y-74745274D01*
X41988000Y-74701040D01*
X41988000Y-72013885D01*
X46657000Y-72013885D01*
X46657000Y-72986114D01*
X46667776Y-73060073D01*
X46712724Y-73152015D01*
X46723549Y-73174157D01*
X46813343Y-73263951D01*
X46927428Y-73319724D01*
X46981169Y-73327553D01*
X47029823Y-73356544D01*
X47044500Y-73400780D01*
X47044500Y-73950823D01*
X47083395Y-74044726D01*
X47083396Y-74044728D01*
X47083397Y-74044729D01*
X47155271Y-74116603D01*
X47249178Y-74155500D01*
X47249179Y-74155500D01*
X52540822Y-74155500D01*
X52540823Y-74155500D01*
X52563749Y-74146002D01*
X52620387Y-74146001D01*
X52659734Y-74185346D01*
X52659973Y-74185241D01*
X52660244Y-74185856D01*
X52660436Y-74186048D01*
X52660802Y-74187120D01*
X52692306Y-74258469D01*
X52704580Y-74286267D01*
X52778733Y-74360420D01*
X52874667Y-74402779D01*
X52898120Y-74405500D01*
X52898124Y-74405500D01*
X53281876Y-74405500D01*
X53281880Y-74405500D01*
X53305333Y-74402779D01*
X53401267Y-74360420D01*
X53475420Y-74286267D01*
X53517779Y-74190333D01*
X53520500Y-74166880D01*
X53520500Y-72671483D01*
X53542174Y-72619157D01*
X53648957Y-72512374D01*
X53805584Y-72355746D01*
X53857909Y-72334073D01*
X53910235Y-72355747D01*
X53931909Y-72408073D01*
X53931416Y-72416598D01*
X53929500Y-72433118D01*
X53929500Y-72433120D01*
X53929500Y-74166880D01*
X53932221Y-74190333D01*
X53974580Y-74286267D01*
X54048733Y-74360420D01*
X54144667Y-74402779D01*
X54168120Y-74405500D01*
X54168124Y-74405500D01*
X54551876Y-74405500D01*
X54551880Y-74405500D01*
X54575333Y-74402779D01*
X54671267Y-74360420D01*
X54745420Y-74286267D01*
X54787779Y-74190333D01*
X54790500Y-74166880D01*
X54790500Y-73604500D01*
X54812174Y-73552174D01*
X54864500Y-73530500D01*
X55125500Y-73530500D01*
X55177826Y-73552174D01*
X55199500Y-73604500D01*
X55199500Y-74166880D01*
X55202221Y-74190333D01*
X55244580Y-74286267D01*
X55318733Y-74360420D01*
X55414667Y-74402779D01*
X55438120Y-74405500D01*
X55438124Y-74405500D01*
X55821876Y-74405500D01*
X55821880Y-74405500D01*
X55845333Y-74402779D01*
X55941267Y-74360420D01*
X56007960Y-74293726D01*
X56060284Y-74272053D01*
X56112611Y-74293727D01*
X56131347Y-74325407D01*
X56148718Y-74385199D01*
X56232317Y-74526556D01*
X56348443Y-74642682D01*
X56456868Y-74706805D01*
X56490874Y-74752097D01*
X56482894Y-74808169D01*
X56437602Y-74842175D01*
X56419199Y-74844500D01*
X55649177Y-74844500D01*
X55628827Y-74852929D01*
X55555273Y-74883395D01*
X53315842Y-77122826D01*
X53263516Y-77144500D01*
X52898120Y-77144500D01*
X52879357Y-77146676D01*
X52874666Y-77147221D01*
X52778732Y-77189580D01*
X52704580Y-77263732D01*
X52674851Y-77331063D01*
X52633888Y-77370176D01*
X52577266Y-77368868D01*
X52554830Y-77353499D01*
X50742011Y-75540680D01*
X50742011Y-75540679D01*
X50704160Y-75502828D01*
X50659729Y-75458397D01*
X50593327Y-75430892D01*
X50565823Y-75419500D01*
X50565822Y-75419500D01*
X50565821Y-75419500D01*
X50000781Y-75419500D01*
X49948455Y-75397826D01*
X49927554Y-75356170D01*
X49923701Y-75329724D01*
X49919724Y-75302428D01*
X49863951Y-75188343D01*
X49774157Y-75098549D01*
X49770240Y-75096634D01*
X49660073Y-75042776D01*
X49586114Y-75032000D01*
X49586110Y-75032000D01*
X48613890Y-75032000D01*
X48613885Y-75032000D01*
X48539926Y-75042776D01*
X48425842Y-75098549D01*
X48336049Y-75188342D01*
X48280276Y-75302426D01*
X48269500Y-75376385D01*
X48269500Y-75973614D01*
X48280276Y-76047573D01*
X48323423Y-76135831D01*
X48336049Y-76161657D01*
X48425843Y-76251451D01*
X48539928Y-76307224D01*
X48613890Y-76318000D01*
X48613896Y-76318000D01*
X49586104Y-76318000D01*
X49586110Y-76318000D01*
X49660072Y-76307224D01*
X49774157Y-76251451D01*
X49863951Y-76161657D01*
X49919724Y-76047572D01*
X49927554Y-75993829D01*
X49956546Y-75945176D01*
X50000781Y-75930500D01*
X50378517Y-75930500D01*
X50430843Y-75952174D01*
X52637826Y-78159157D01*
X52659500Y-78211483D01*
X52659500Y-79116880D01*
X52662221Y-79140333D01*
X52704580Y-79236267D01*
X52778733Y-79310420D01*
X52874667Y-79352779D01*
X52898120Y-79355500D01*
X52898124Y-79355500D01*
X53281876Y-79355500D01*
X53281880Y-79355500D01*
X53305333Y-79352779D01*
X53401267Y-79310420D01*
X53475420Y-79236267D01*
X53517779Y-79140333D01*
X53520500Y-79116880D01*
X53520500Y-77671483D01*
X53542174Y-77619157D01*
X53803174Y-77358157D01*
X53855500Y-77336483D01*
X53907826Y-77358157D01*
X53929500Y-77410483D01*
X53929500Y-79116880D01*
X53931314Y-79132515D01*
X53932221Y-79140335D01*
X53938194Y-79153860D01*
X53944500Y-79183752D01*
X53944500Y-80270500D01*
X53922826Y-80322826D01*
X53870500Y-80344500D01*
X51436483Y-80344500D01*
X51384157Y-80322826D01*
X49377174Y-78315843D01*
X49355500Y-78263517D01*
X49355500Y-78217000D01*
X49377174Y-78164674D01*
X49429500Y-78143000D01*
X49586104Y-78143000D01*
X49586110Y-78143000D01*
X49660072Y-78132224D01*
X49774157Y-78076451D01*
X49863951Y-77986657D01*
X49919724Y-77872572D01*
X49930500Y-77798610D01*
X49930500Y-77201390D01*
X49919724Y-77127428D01*
X49863951Y-77013343D01*
X49774157Y-76923549D01*
X49728262Y-76901112D01*
X49660073Y-76867776D01*
X49586114Y-76857000D01*
X49586110Y-76857000D01*
X48613890Y-76857000D01*
X48613885Y-76857000D01*
X48539926Y-76867776D01*
X48425842Y-76923549D01*
X48336049Y-77013342D01*
X48280276Y-77127426D01*
X48269500Y-77201385D01*
X48269500Y-77798614D01*
X48280276Y-77872573D01*
X48321968Y-77957854D01*
X48336049Y-77986657D01*
X48425843Y-78076451D01*
X48539928Y-78132224D01*
X48613890Y-78143000D01*
X48770500Y-78143000D01*
X48822826Y-78164674D01*
X48844500Y-78217000D01*
X48844500Y-78349177D01*
X48844500Y-78450823D01*
X48855892Y-78478327D01*
X48883397Y-78544729D01*
X48955271Y-78616603D01*
X48965678Y-78627010D01*
X48965680Y-78627011D01*
X51083396Y-80744727D01*
X51083397Y-80744729D01*
X51155271Y-80816603D01*
X51155272Y-80816603D01*
X51622826Y-81284157D01*
X51644500Y-81336483D01*
X51644500Y-82399219D01*
X51622826Y-82451545D01*
X51581170Y-82472446D01*
X51527426Y-82480276D01*
X51413342Y-82536049D01*
X51323549Y-82625842D01*
X51267776Y-82739926D01*
X51257000Y-82813885D01*
X51257000Y-83786114D01*
X51267776Y-83860073D01*
X51288614Y-83902697D01*
X51323549Y-83974157D01*
X51413343Y-84063951D01*
X51527428Y-84119724D01*
X51601390Y-84130500D01*
X51601396Y-84130500D01*
X52198604Y-84130500D01*
X52198610Y-84130500D01*
X52272572Y-84119724D01*
X52386657Y-84063951D01*
X52476451Y-83974157D01*
X52532224Y-83860072D01*
X52540980Y-83799976D01*
X52712501Y-83799976D01*
X52722994Y-83902696D01*
X52778142Y-84069121D01*
X52870183Y-84218343D01*
X52870186Y-84218347D01*
X52994153Y-84342314D01*
X52994156Y-84342316D01*
X53143378Y-84434357D01*
X53309802Y-84489505D01*
X53412525Y-84499999D01*
X53474999Y-84499999D01*
X53975000Y-84499999D01*
X54037471Y-84499999D01*
X54037476Y-84499998D01*
X54140196Y-84489505D01*
X54306621Y-84434357D01*
X54455843Y-84342316D01*
X54455847Y-84342314D01*
X54579814Y-84218347D01*
X54579816Y-84218343D01*
X54671857Y-84069121D01*
X54727005Y-83902697D01*
X54737499Y-83799975D01*
X54737500Y-83799973D01*
X54737500Y-83550000D01*
X53975000Y-83550000D01*
X53975000Y-84499999D01*
X53474999Y-84499999D01*
X53475000Y-84499998D01*
X53475000Y-83550000D01*
X52712501Y-83550000D01*
X52712501Y-83799976D01*
X52540980Y-83799976D01*
X52543000Y-83786110D01*
X52543000Y-82813890D01*
X52540980Y-82800024D01*
X52712500Y-82800024D01*
X52712500Y-83050000D01*
X53475000Y-83050000D01*
X53975000Y-83050000D01*
X54737499Y-83050000D01*
X54737499Y-82800029D01*
X54737498Y-82800023D01*
X54727005Y-82697303D01*
X54671857Y-82530878D01*
X54579816Y-82381656D01*
X54579814Y-82381653D01*
X54455847Y-82257686D01*
X54455843Y-82257683D01*
X54306621Y-82165642D01*
X54140197Y-82110494D01*
X54037475Y-82100000D01*
X53975000Y-82100000D01*
X53975000Y-83050000D01*
X53475000Y-83050000D01*
X53475000Y-82100000D01*
X53412528Y-82100000D01*
X53412522Y-82100001D01*
X53309803Y-82110494D01*
X53143378Y-82165642D01*
X52994156Y-82257683D01*
X52870183Y-82381656D01*
X52778142Y-82530878D01*
X52722994Y-82697302D01*
X52712500Y-82800024D01*
X52540980Y-82800024D01*
X52532224Y-82739928D01*
X52476451Y-82625843D01*
X52386657Y-82536049D01*
X52376080Y-82530878D01*
X52272573Y-82480276D01*
X52218830Y-82472446D01*
X52170176Y-82443454D01*
X52155500Y-82399219D01*
X52155500Y-81149178D01*
X52155499Y-81149176D01*
X52116604Y-81055273D01*
X52116602Y-81055270D01*
X52043158Y-80981826D01*
X52021484Y-80929500D01*
X52043158Y-80877174D01*
X52095484Y-80855500D01*
X53963516Y-80855500D01*
X54015842Y-80877174D01*
X54055271Y-80916603D01*
X54121672Y-80944107D01*
X54149177Y-80955500D01*
X54149178Y-80955500D01*
X54250821Y-80955500D01*
X54250822Y-80955500D01*
X54344729Y-80916603D01*
X54416603Y-80844729D01*
X54455500Y-80750822D01*
X54455500Y-79429500D01*
X54477174Y-79377174D01*
X54529500Y-79355500D01*
X54551876Y-79355500D01*
X54551880Y-79355500D01*
X54575333Y-79352779D01*
X54671267Y-79310420D01*
X54745420Y-79236267D01*
X54787779Y-79140333D01*
X54790500Y-79116880D01*
X54790500Y-77383120D01*
X54787779Y-77359667D01*
X54745420Y-77263733D01*
X54671267Y-77189580D01*
X54575333Y-77147221D01*
X54575334Y-77147221D01*
X54570642Y-77146676D01*
X54551880Y-77144500D01*
X54195483Y-77144500D01*
X54143157Y-77122826D01*
X54121483Y-77070500D01*
X54143157Y-77018174D01*
X55784157Y-75377174D01*
X55836483Y-75355500D01*
X58250822Y-75355500D01*
X58250823Y-75355500D01*
X58278327Y-75344107D01*
X58344729Y-75316603D01*
X58416603Y-75244729D01*
X58416603Y-75244728D01*
X58427008Y-75234323D01*
X58427009Y-75234320D01*
X61084157Y-72577174D01*
X61136483Y-72555500D01*
X62423516Y-72555500D01*
X62475841Y-72577174D01*
X62515307Y-72616639D01*
X62530271Y-72631603D01*
X62624178Y-72670501D01*
X62624179Y-72670501D01*
X62734435Y-72670501D01*
X62734443Y-72670500D01*
X64995501Y-72670500D01*
X65047827Y-72692174D01*
X65069501Y-72744500D01*
X65069501Y-72877854D01*
X65077071Y-72915919D01*
X65105911Y-72959083D01*
X65105914Y-72959086D01*
X65149892Y-72988471D01*
X65181358Y-73035563D01*
X65170309Y-73091112D01*
X65149892Y-73111529D01*
X65105914Y-73140913D01*
X65105913Y-73140914D01*
X65077071Y-73184080D01*
X65069500Y-73222145D01*
X65069500Y-74147854D01*
X65077071Y-74185919D01*
X65105911Y-74229083D01*
X65105914Y-74229086D01*
X65149892Y-74258471D01*
X65181358Y-74305563D01*
X65170309Y-74361112D01*
X65149892Y-74381529D01*
X65105914Y-74410913D01*
X65105913Y-74410914D01*
X65077071Y-74454080D01*
X65069500Y-74492145D01*
X65069500Y-75417854D01*
X65077071Y-75455919D01*
X65105911Y-75499083D01*
X65105914Y-75499086D01*
X65149892Y-75528471D01*
X65181358Y-75575563D01*
X65170309Y-75631112D01*
X65149892Y-75651529D01*
X65105914Y-75680913D01*
X65105913Y-75680914D01*
X65077071Y-75724080D01*
X65069500Y-75762145D01*
X65069501Y-76687853D01*
X65077071Y-76725919D01*
X65105911Y-76769083D01*
X65105914Y-76769086D01*
X65149892Y-76798471D01*
X65181358Y-76845563D01*
X65170309Y-76901112D01*
X65149892Y-76921529D01*
X65105914Y-76950913D01*
X65105913Y-76950914D01*
X65077071Y-76994080D01*
X65069500Y-77032145D01*
X65069500Y-77957854D01*
X65077071Y-77995919D01*
X65105911Y-78039083D01*
X65105914Y-78039086D01*
X65149892Y-78068471D01*
X65181358Y-78115563D01*
X65170309Y-78171112D01*
X65149892Y-78191529D01*
X65105914Y-78220913D01*
X65105913Y-78220914D01*
X65077071Y-78264080D01*
X65069500Y-78302145D01*
X65069500Y-79227854D01*
X65077071Y-79265919D01*
X65105911Y-79309083D01*
X65105914Y-79309086D01*
X65149892Y-79338471D01*
X65181358Y-79385563D01*
X65170309Y-79441112D01*
X65149892Y-79461529D01*
X65105914Y-79490913D01*
X65105913Y-79490914D01*
X65077071Y-79534080D01*
X65069500Y-79572145D01*
X65069500Y-80497854D01*
X65077071Y-80535919D01*
X65105911Y-80579083D01*
X65105914Y-80579086D01*
X65149892Y-80608471D01*
X65181358Y-80655563D01*
X65170309Y-80711112D01*
X65149892Y-80731529D01*
X65105914Y-80760913D01*
X65105913Y-80760914D01*
X65077071Y-80804080D01*
X65069500Y-80842145D01*
X65069500Y-81767854D01*
X65077071Y-81805919D01*
X65105911Y-81849083D01*
X65105914Y-81849086D01*
X65149892Y-81878471D01*
X65181358Y-81925563D01*
X65170309Y-81981112D01*
X65149892Y-82001529D01*
X65105914Y-82030913D01*
X65105913Y-82030914D01*
X65077071Y-82074080D01*
X65069500Y-82112145D01*
X65069500Y-83037854D01*
X65077071Y-83075919D01*
X65105911Y-83119083D01*
X65105913Y-83119085D01*
X65105914Y-83119086D01*
X65149081Y-83147929D01*
X65187145Y-83155500D01*
X66712854Y-83155499D01*
X66750919Y-83147929D01*
X66794086Y-83119086D01*
X66822929Y-83075919D01*
X66830500Y-83037855D01*
X66830500Y-83027171D01*
X68040000Y-83027171D01*
X68040000Y-83575000D01*
X68740000Y-83575000D01*
X68740000Y-82575000D01*
X68492171Y-82575000D01*
X68432624Y-82581402D01*
X68432619Y-82581403D01*
X68297912Y-82631645D01*
X68297911Y-82631646D01*
X68182811Y-82717811D01*
X68096646Y-82832911D01*
X68096645Y-82832912D01*
X68046403Y-82967619D01*
X68046402Y-82967624D01*
X68040000Y-83027171D01*
X66830500Y-83027171D01*
X66830499Y-82575000D01*
X66830499Y-82112145D01*
X66828084Y-82100001D01*
X66822929Y-82074081D01*
X66803164Y-82044500D01*
X66794088Y-82030916D01*
X66794085Y-82030913D01*
X66750107Y-82001528D01*
X66718641Y-81954436D01*
X66729690Y-81898887D01*
X66750108Y-81878469D01*
X66750915Y-81877929D01*
X66750919Y-81877929D01*
X66794086Y-81849086D01*
X66822929Y-81805919D01*
X66830500Y-81767855D01*
X66830499Y-80842146D01*
X66822929Y-80804081D01*
X66813314Y-80789692D01*
X66794088Y-80760916D01*
X66794085Y-80760913D01*
X66750107Y-80731528D01*
X66718641Y-80684436D01*
X66729690Y-80628887D01*
X66750108Y-80608469D01*
X66750915Y-80607929D01*
X66750919Y-80607929D01*
X66794086Y-80579086D01*
X66822929Y-80535919D01*
X66830500Y-80497855D01*
X66830499Y-79572146D01*
X66822929Y-79534081D01*
X66813314Y-79519692D01*
X66794088Y-79490916D01*
X66794085Y-79490913D01*
X66750107Y-79461528D01*
X66718641Y-79414436D01*
X66729690Y-79358887D01*
X66750108Y-79338469D01*
X66750915Y-79337929D01*
X66750919Y-79337929D01*
X66794086Y-79309086D01*
X66822929Y-79265919D01*
X66830500Y-79227855D01*
X66830499Y-78302146D01*
X66822929Y-78264081D01*
X66799823Y-78229500D01*
X66794088Y-78220916D01*
X66794085Y-78220913D01*
X66750107Y-78191528D01*
X66718641Y-78144436D01*
X66729690Y-78088887D01*
X66750108Y-78068469D01*
X66750915Y-78067929D01*
X66750919Y-78067929D01*
X66794086Y-78039086D01*
X66822929Y-77995919D01*
X66830500Y-77957855D01*
X66830499Y-77032146D01*
X66822929Y-76994081D01*
X66813314Y-76979692D01*
X66794088Y-76950916D01*
X66794085Y-76950913D01*
X66750107Y-76921528D01*
X66718641Y-76874436D01*
X66729690Y-76818887D01*
X66750108Y-76798469D01*
X66750915Y-76797929D01*
X66750919Y-76797929D01*
X66794086Y-76769086D01*
X66822929Y-76725919D01*
X66830500Y-76687855D01*
X66830499Y-75762146D01*
X66822929Y-75724081D01*
X66813314Y-75709692D01*
X66794088Y-75680916D01*
X66794085Y-75680913D01*
X66750107Y-75651528D01*
X66718641Y-75604436D01*
X66729690Y-75548887D01*
X66750108Y-75528469D01*
X66750915Y-75527929D01*
X66750919Y-75527929D01*
X66788486Y-75502828D01*
X71470000Y-75502828D01*
X71476402Y-75562375D01*
X71476403Y-75562380D01*
X71526645Y-75697087D01*
X71526646Y-75697088D01*
X71612811Y-75812188D01*
X71727911Y-75898353D01*
X71727912Y-75898354D01*
X71862619Y-75948596D01*
X71862624Y-75948597D01*
X71922171Y-75955000D01*
X72245000Y-75955000D01*
X72745000Y-75955000D01*
X73067829Y-75955000D01*
X73127375Y-75948597D01*
X73127377Y-75948597D01*
X73231639Y-75909709D01*
X73283361Y-75909709D01*
X73387623Y-75948597D01*
X73447171Y-75955000D01*
X73770000Y-75955000D01*
X74270000Y-75955000D01*
X74592829Y-75955000D01*
X74652375Y-75948597D01*
X74652377Y-75948597D01*
X74756639Y-75909709D01*
X74808361Y-75909709D01*
X74912623Y-75948597D01*
X74972171Y-75955000D01*
X75295000Y-75955000D01*
X75795000Y-75955000D01*
X76117829Y-75955000D01*
X76177375Y-75948597D01*
X76177380Y-75948596D01*
X76312087Y-75898354D01*
X76312088Y-75898353D01*
X76427188Y-75812188D01*
X76513353Y-75697088D01*
X76513354Y-75697087D01*
X76563596Y-75562380D01*
X76563597Y-75562375D01*
X76570000Y-75502828D01*
X76570000Y-75180000D01*
X75795000Y-75180000D01*
X75795000Y-75955000D01*
X75295000Y-75955000D01*
X75295000Y-75180000D01*
X74270000Y-75180000D01*
X74270000Y-75955000D01*
X73770000Y-75955000D01*
X73770000Y-75180000D01*
X72745000Y-75180000D01*
X72745000Y-75955000D01*
X72245000Y-75955000D01*
X72245000Y-75180000D01*
X71470000Y-75180000D01*
X71470000Y-75502828D01*
X66788486Y-75502828D01*
X66794086Y-75499086D01*
X66822929Y-75455919D01*
X66830500Y-75417855D01*
X66830499Y-74946603D01*
X66830499Y-74492146D01*
X66830499Y-74492145D01*
X66822929Y-74454081D01*
X66813314Y-74439692D01*
X66794088Y-74410916D01*
X66794085Y-74410913D01*
X66750107Y-74381528D01*
X66718641Y-74334436D01*
X66729690Y-74278887D01*
X66750108Y-74258469D01*
X66750915Y-74257929D01*
X66750919Y-74257929D01*
X66794086Y-74229086D01*
X66822929Y-74185919D01*
X66830500Y-74147855D01*
X66830500Y-73977828D01*
X71470000Y-73977828D01*
X71476402Y-74037374D01*
X71515290Y-74141640D01*
X71515290Y-74193360D01*
X71476402Y-74297625D01*
X71470000Y-74357171D01*
X71470000Y-74680000D01*
X72245000Y-74680000D01*
X72745000Y-74680000D01*
X73770000Y-74680000D01*
X74270000Y-74680000D01*
X75295000Y-74680000D01*
X75795000Y-74680000D01*
X76570000Y-74680000D01*
X76570000Y-74357171D01*
X76563597Y-74297624D01*
X76563597Y-74297622D01*
X76524709Y-74193361D01*
X76524709Y-74141639D01*
X76563597Y-74037377D01*
X76563597Y-74037375D01*
X76570000Y-73977828D01*
X76570000Y-73655000D01*
X75795000Y-73655000D01*
X75795000Y-74680000D01*
X75295000Y-74680000D01*
X75295000Y-73655000D01*
X74270000Y-73655000D01*
X74270000Y-74680000D01*
X73770000Y-74680000D01*
X73770000Y-73655000D01*
X72745000Y-73655000D01*
X72745000Y-74680000D01*
X72245000Y-74680000D01*
X72245000Y-73655000D01*
X71470000Y-73655000D01*
X71470000Y-73977828D01*
X66830500Y-73977828D01*
X66830499Y-73222146D01*
X66822929Y-73184081D01*
X66810358Y-73165267D01*
X66794088Y-73140916D01*
X66794085Y-73140913D01*
X66750107Y-73111528D01*
X66718641Y-73064436D01*
X66729690Y-73008887D01*
X66750108Y-72988469D01*
X66750915Y-72987929D01*
X66750919Y-72987929D01*
X66794086Y-72959086D01*
X66822929Y-72915919D01*
X66830500Y-72877855D01*
X66830500Y-72452828D01*
X71470000Y-72452828D01*
X71476402Y-72512374D01*
X71515290Y-72616640D01*
X71515290Y-72668360D01*
X71476402Y-72772625D01*
X71470000Y-72832171D01*
X71470000Y-73155000D01*
X72245000Y-73155000D01*
X72745000Y-73155000D01*
X73770000Y-73155000D01*
X74270000Y-73155000D01*
X75295000Y-73155000D01*
X75795000Y-73155000D01*
X76570000Y-73155000D01*
X76570000Y-72832171D01*
X76563597Y-72772624D01*
X76563597Y-72772622D01*
X76524709Y-72668361D01*
X76524709Y-72616639D01*
X76563597Y-72512377D01*
X76563597Y-72512375D01*
X76570000Y-72452828D01*
X76570000Y-72130000D01*
X75795000Y-72130000D01*
X75795000Y-73155000D01*
X75295000Y-73155000D01*
X75295000Y-72130000D01*
X74270000Y-72130000D01*
X74270000Y-73155000D01*
X73770000Y-73155000D01*
X73770000Y-72130000D01*
X72745000Y-72130000D01*
X72745000Y-73155000D01*
X72245000Y-73155000D01*
X72245000Y-72130000D01*
X71470000Y-72130000D01*
X71470000Y-72452828D01*
X66830500Y-72452828D01*
X66830499Y-71952146D01*
X66822929Y-71914081D01*
X66813314Y-71899692D01*
X66794088Y-71870916D01*
X66794085Y-71870913D01*
X66750107Y-71841528D01*
X66718641Y-71794436D01*
X66729690Y-71738887D01*
X66750108Y-71718469D01*
X66750915Y-71717929D01*
X66750919Y-71717929D01*
X66794086Y-71689086D01*
X66822929Y-71645919D01*
X66830500Y-71607855D01*
X66830499Y-71307171D01*
X71470000Y-71307171D01*
X71470000Y-71630000D01*
X72245000Y-71630000D01*
X72745000Y-71630000D01*
X73770000Y-71630000D01*
X74270000Y-71630000D01*
X75295000Y-71630000D01*
X75795000Y-71630000D01*
X76570000Y-71630000D01*
X76570000Y-71307171D01*
X76563597Y-71247624D01*
X76563596Y-71247619D01*
X76513354Y-71112912D01*
X76513353Y-71112911D01*
X76427188Y-70997811D01*
X76312088Y-70911646D01*
X76312087Y-70911645D01*
X76177380Y-70861403D01*
X76177375Y-70861402D01*
X76117829Y-70855000D01*
X75795000Y-70855000D01*
X75795000Y-71630000D01*
X75295000Y-71630000D01*
X75295000Y-70855000D01*
X74972171Y-70855000D01*
X74912625Y-70861402D01*
X74808360Y-70900290D01*
X74756640Y-70900290D01*
X74652374Y-70861402D01*
X74592829Y-70855000D01*
X74270000Y-70855000D01*
X74270000Y-71630000D01*
X73770000Y-71630000D01*
X73770000Y-70855000D01*
X73447171Y-70855000D01*
X73387625Y-70861402D01*
X73283360Y-70900290D01*
X73231640Y-70900290D01*
X73127374Y-70861402D01*
X73067829Y-70855000D01*
X72745000Y-70855000D01*
X72745000Y-71630000D01*
X72245000Y-71630000D01*
X72245000Y-70855000D01*
X71922171Y-70855000D01*
X71862624Y-70861402D01*
X71862619Y-70861403D01*
X71727912Y-70911645D01*
X71727911Y-70911646D01*
X71612811Y-70997811D01*
X71526646Y-71112911D01*
X71526645Y-71112912D01*
X71476403Y-71247619D01*
X71476402Y-71247624D01*
X71470000Y-71307171D01*
X66830499Y-71307171D01*
X66830499Y-71112912D01*
X66830499Y-70682146D01*
X66830499Y-70682145D01*
X66822929Y-70644081D01*
X66813314Y-70629692D01*
X66794088Y-70600916D01*
X66794085Y-70600913D01*
X66750107Y-70571528D01*
X66718641Y-70524436D01*
X66729690Y-70468887D01*
X66750108Y-70448469D01*
X66750915Y-70447929D01*
X66750919Y-70447929D01*
X66794086Y-70419086D01*
X66822929Y-70375919D01*
X66830500Y-70337855D01*
X66830499Y-69412146D01*
X66822929Y-69374081D01*
X66813314Y-69359692D01*
X66794088Y-69330916D01*
X66794085Y-69330913D01*
X66750107Y-69301528D01*
X66718641Y-69254436D01*
X66729690Y-69198887D01*
X66750108Y-69178469D01*
X66750915Y-69177929D01*
X66750919Y-69177929D01*
X66794086Y-69149086D01*
X66822929Y-69105919D01*
X66830500Y-69067855D01*
X66830499Y-68142146D01*
X66822929Y-68104081D01*
X66813314Y-68089692D01*
X66794088Y-68060916D01*
X66794085Y-68060913D01*
X66750107Y-68031528D01*
X66718641Y-67984436D01*
X66729690Y-67928887D01*
X66750108Y-67908469D01*
X66750915Y-67907929D01*
X66750919Y-67907929D01*
X66794086Y-67879086D01*
X66822929Y-67835919D01*
X66830500Y-67797855D01*
X66830500Y-67664500D01*
X66852174Y-67612174D01*
X66904500Y-67590500D01*
X75798517Y-67590500D01*
X75850843Y-67612174D01*
X80601342Y-72362673D01*
X80623016Y-72414999D01*
X80601342Y-72467325D01*
X77255272Y-75813396D01*
X77183395Y-75885273D01*
X77144500Y-75979176D01*
X77144500Y-76950823D01*
X77183395Y-77044726D01*
X77183398Y-77044730D01*
X77265678Y-77127010D01*
X77265680Y-77127011D01*
X81297826Y-81159157D01*
X81319500Y-81211483D01*
X81319500Y-87770500D01*
X81297826Y-87822826D01*
X81245500Y-87844500D01*
X71049177Y-87844500D01*
X71022620Y-87855500D01*
X70955273Y-87883395D01*
X69383396Y-89455272D01*
X69383395Y-89455274D01*
X69355892Y-89521669D01*
X69355893Y-89521670D01*
X69346343Y-89544729D01*
X69346340Y-89544734D01*
X69344500Y-89549175D01*
X69344500Y-92463517D01*
X69322826Y-92515843D01*
X68103494Y-93735175D01*
X68051168Y-93756849D01*
X67205611Y-93756849D01*
X67153285Y-93735175D01*
X67137917Y-93712742D01*
X67132769Y-93701082D01*
X67058616Y-93626929D01*
X66962682Y-93584570D01*
X66962683Y-93584570D01*
X66957991Y-93584025D01*
X66939229Y-93581849D01*
X65205469Y-93581849D01*
X65186706Y-93584025D01*
X65182015Y-93584570D01*
X65086081Y-93626929D01*
X65011929Y-93701081D01*
X64971793Y-93791982D01*
X64969570Y-93797016D01*
X64966849Y-93820469D01*
X64966849Y-94204229D01*
X64969570Y-94227682D01*
X65011929Y-94323616D01*
X65086082Y-94397769D01*
X65182016Y-94440128D01*
X65205469Y-94442849D01*
X65742849Y-94442849D01*
X65795175Y-94464523D01*
X65816849Y-94516849D01*
X65816849Y-94777849D01*
X65795175Y-94830175D01*
X65742849Y-94851849D01*
X65205469Y-94851849D01*
X65186706Y-94854025D01*
X65182015Y-94854570D01*
X65086081Y-94896929D01*
X65011928Y-94971082D01*
X64998987Y-95000391D01*
X64958024Y-95039503D01*
X64931293Y-95044500D01*
X60504500Y-95044500D01*
X60452174Y-95022826D01*
X60430500Y-94970500D01*
X60430500Y-94713896D01*
X60430500Y-94713890D01*
X60419724Y-94639928D01*
X60363951Y-94525843D01*
X60274157Y-94436049D01*
X60160073Y-94380276D01*
X60086114Y-94369500D01*
X60086110Y-94369500D01*
X58913890Y-94369500D01*
X58913885Y-94369500D01*
X58839926Y-94380276D01*
X58725842Y-94436049D01*
X58636049Y-94525842D01*
X58580276Y-94639926D01*
X58569500Y-94713885D01*
X58569500Y-95886114D01*
X58580276Y-95960073D01*
X58600183Y-96000792D01*
X58636049Y-96074157D01*
X58725843Y-96163951D01*
X58839928Y-96219724D01*
X58913890Y-96230500D01*
X58913896Y-96230500D01*
X60086104Y-96230500D01*
X60086110Y-96230500D01*
X60160072Y-96219724D01*
X60274157Y-96163951D01*
X60363951Y-96074157D01*
X60419724Y-95960072D01*
X60430500Y-95886110D01*
X60430500Y-95629500D01*
X60452174Y-95577174D01*
X60504500Y-95555500D01*
X64946881Y-95555500D01*
X64999207Y-95577174D01*
X65007057Y-95588642D01*
X65008054Y-95587960D01*
X65011926Y-95593613D01*
X65011929Y-95593616D01*
X65086082Y-95667769D01*
X65182016Y-95710128D01*
X65205469Y-95712849D01*
X65205473Y-95712849D01*
X66939225Y-95712849D01*
X66939229Y-95712849D01*
X66962682Y-95710128D01*
X67058616Y-95667769D01*
X67132769Y-95593616D01*
X67175128Y-95497682D01*
X67177849Y-95474229D01*
X67177849Y-95090469D01*
X67175128Y-95067016D01*
X67132769Y-94971082D01*
X67058616Y-94896929D01*
X66962682Y-94854570D01*
X66962683Y-94854570D01*
X66957991Y-94854025D01*
X66939229Y-94851849D01*
X66939225Y-94851849D01*
X66401849Y-94851849D01*
X66349523Y-94830175D01*
X66327849Y-94777849D01*
X66327849Y-94516849D01*
X66349523Y-94464523D01*
X66401849Y-94442849D01*
X66939225Y-94442849D01*
X66939229Y-94442849D01*
X66962682Y-94440128D01*
X67058616Y-94397769D01*
X67132769Y-94323616D01*
X67137917Y-94311956D01*
X67178880Y-94272846D01*
X67205611Y-94267849D01*
X68238473Y-94267849D01*
X68238474Y-94267849D01*
X68265978Y-94256456D01*
X68332380Y-94228952D01*
X68404254Y-94157078D01*
X68404254Y-94157077D01*
X68414659Y-94146672D01*
X68414660Y-94146669D01*
X68747676Y-93813654D01*
X68799999Y-93791982D01*
X68852325Y-93813656D01*
X69191525Y-94152856D01*
X69191528Y-94152860D01*
X69195746Y-94157078D01*
X69267620Y-94228952D01*
X69334021Y-94256456D01*
X69361526Y-94267849D01*
X69361527Y-94267849D01*
X69889087Y-94267849D01*
X69941413Y-94289523D01*
X69956780Y-94311955D01*
X69961929Y-94323616D01*
X70036082Y-94397769D01*
X70132016Y-94440128D01*
X70155469Y-94442849D01*
X70692849Y-94442849D01*
X70745175Y-94464523D01*
X70766849Y-94516849D01*
X70766849Y-94777849D01*
X70745175Y-94830175D01*
X70692849Y-94851849D01*
X70155469Y-94851849D01*
X70136706Y-94854025D01*
X70132015Y-94854570D01*
X70036081Y-94896929D01*
X69961929Y-94971081D01*
X69919570Y-95067015D01*
X69916849Y-95090472D01*
X69916849Y-95474225D01*
X69919570Y-95497682D01*
X69961929Y-95593616D01*
X70028621Y-95660308D01*
X70050295Y-95712634D01*
X70028621Y-95764960D01*
X69996941Y-95783696D01*
X69937149Y-95801067D01*
X69795792Y-95884666D01*
X69679666Y-96000792D01*
X69596067Y-96142149D01*
X69550249Y-96299855D01*
X69550053Y-96302349D01*
X72494645Y-96302349D01*
X72494448Y-96299855D01*
X72448630Y-96142149D01*
X72365031Y-96000792D01*
X72248905Y-95884666D01*
X72107548Y-95801067D01*
X72047756Y-95783696D01*
X72003555Y-95748283D01*
X71997340Y-95691988D01*
X72016074Y-95660310D01*
X72082769Y-95593616D01*
X72125128Y-95497682D01*
X72127849Y-95474229D01*
X72127849Y-95297687D01*
X75552651Y-95297687D01*
X75552651Y-95502312D01*
X75584660Y-95704414D01*
X75584663Y-95704427D01*
X75647891Y-95899021D01*
X75740790Y-96081349D01*
X75773175Y-96125921D01*
X76452651Y-95446445D01*
X76452651Y-95452661D01*
X76479910Y-95554394D01*
X76532571Y-95645606D01*
X76607045Y-95720080D01*
X76698257Y-95772741D01*
X76799990Y-95800000D01*
X76806204Y-95800000D01*
X76126728Y-96479475D01*
X76171302Y-96511860D01*
X76353629Y-96604759D01*
X76548223Y-96667987D01*
X76548236Y-96667990D01*
X76750338Y-96700000D01*
X76954964Y-96700000D01*
X77157065Y-96667990D01*
X77157078Y-96667987D01*
X77351672Y-96604759D01*
X77533999Y-96511860D01*
X77578572Y-96479475D01*
X77578573Y-96479475D01*
X76899098Y-95800000D01*
X76905312Y-95800000D01*
X77007045Y-95772741D01*
X77098257Y-95720080D01*
X77172731Y-95645606D01*
X77225392Y-95554394D01*
X77252651Y-95452661D01*
X77252651Y-95446447D01*
X77932126Y-96125922D01*
X77932126Y-96125921D01*
X77964511Y-96081348D01*
X78057410Y-95899021D01*
X78120638Y-95704427D01*
X78120641Y-95704414D01*
X78152651Y-95502312D01*
X78152651Y-95297687D01*
X78120641Y-95095585D01*
X78120638Y-95095572D01*
X78057410Y-94900978D01*
X77964511Y-94718651D01*
X77932126Y-94674077D01*
X77252651Y-95353552D01*
X77252651Y-95347339D01*
X77225392Y-95245606D01*
X77172731Y-95154394D01*
X77098257Y-95079920D01*
X77007045Y-95027259D01*
X76905312Y-95000000D01*
X76899096Y-95000000D01*
X77578572Y-94320524D01*
X77534000Y-94288139D01*
X77351672Y-94195240D01*
X77157078Y-94132012D01*
X77157065Y-94132009D01*
X76954964Y-94100000D01*
X76750338Y-94100000D01*
X76548236Y-94132009D01*
X76548223Y-94132012D01*
X76353629Y-94195240D01*
X76171301Y-94288139D01*
X76126728Y-94320523D01*
X76126728Y-94320524D01*
X76806204Y-95000000D01*
X76799990Y-95000000D01*
X76698257Y-95027259D01*
X76607045Y-95079920D01*
X76532571Y-95154394D01*
X76479910Y-95245606D01*
X76452651Y-95347339D01*
X76452651Y-95353553D01*
X75773175Y-94674077D01*
X75773174Y-94674077D01*
X75740790Y-94718650D01*
X75647891Y-94900978D01*
X75584663Y-95095572D01*
X75584660Y-95095585D01*
X75552651Y-95297687D01*
X72127849Y-95297687D01*
X72127849Y-95090469D01*
X72125128Y-95067016D01*
X72082769Y-94971082D01*
X72008616Y-94896929D01*
X71912682Y-94854570D01*
X71912683Y-94854570D01*
X71907991Y-94854025D01*
X71889229Y-94851849D01*
X71889225Y-94851849D01*
X71351849Y-94851849D01*
X71299523Y-94830175D01*
X71277849Y-94777849D01*
X71277849Y-94516849D01*
X71299523Y-94464523D01*
X71351849Y-94442849D01*
X71889225Y-94442849D01*
X71889229Y-94442849D01*
X71912682Y-94440128D01*
X72008616Y-94397769D01*
X72082769Y-94323616D01*
X72125128Y-94227682D01*
X72127849Y-94204229D01*
X72127849Y-93820469D01*
X72125128Y-93797016D01*
X72082769Y-93701082D01*
X72008616Y-93626929D01*
X71912682Y-93584570D01*
X71912683Y-93584570D01*
X71907991Y-93584025D01*
X71889229Y-93581849D01*
X70155469Y-93581849D01*
X70136706Y-93584025D01*
X70132015Y-93584570D01*
X70036081Y-93626929D01*
X69961930Y-93701080D01*
X69961929Y-93701081D01*
X69961929Y-93701082D01*
X69956780Y-93712741D01*
X69915818Y-93751852D01*
X69889087Y-93756849D01*
X69548832Y-93756849D01*
X69496506Y-93735175D01*
X69213656Y-93452325D01*
X69191982Y-93399999D01*
X69213654Y-93347676D01*
X69744727Y-92816603D01*
X69744729Y-92816603D01*
X69790524Y-92770808D01*
X69812198Y-92761830D01*
X69842849Y-92749135D01*
X69842851Y-92749135D01*
X69873502Y-92761831D01*
X69895175Y-92770809D01*
X69895176Y-92770810D01*
X69904153Y-92792484D01*
X69916849Y-92823135D01*
X69916849Y-92934229D01*
X69919570Y-92957682D01*
X69961929Y-93053616D01*
X70036082Y-93127769D01*
X70132016Y-93170128D01*
X70155469Y-93172849D01*
X70155473Y-93172849D01*
X71889225Y-93172849D01*
X71889229Y-93172849D01*
X71912682Y-93170128D01*
X72008616Y-93127769D01*
X72082769Y-93053616D01*
X72087917Y-93041956D01*
X72128880Y-93002846D01*
X72155611Y-92997849D01*
X77558517Y-92997849D01*
X77610843Y-93019523D01*
X79400477Y-94809157D01*
X79422151Y-94861483D01*
X79422151Y-95986114D01*
X79432927Y-96060073D01*
X79450812Y-96096657D01*
X79488700Y-96174157D01*
X79578494Y-96263951D01*
X79692579Y-96319724D01*
X79766541Y-96330500D01*
X80891168Y-96330500D01*
X80943493Y-96352173D01*
X86807922Y-102216603D01*
X86901829Y-102255501D01*
X86901830Y-102255501D01*
X87012086Y-102255501D01*
X87012094Y-102255500D01*
X95770500Y-102255500D01*
X95822826Y-102277174D01*
X95844500Y-102329500D01*
X95844500Y-103910823D01*
X95883395Y-104004726D01*
X95883398Y-104004730D01*
X95965678Y-104087010D01*
X95965680Y-104087011D01*
X97058408Y-105179739D01*
X97080082Y-105232065D01*
X97072564Y-105264564D01*
X97055276Y-105299928D01*
X97044500Y-105373885D01*
X97044500Y-105946114D01*
X97055276Y-106020073D01*
X97111049Y-106134157D01*
X97120066Y-106143174D01*
X97141740Y-106195500D01*
X97120066Y-106247826D01*
X97067740Y-106269500D01*
X93454470Y-106269500D01*
X93454462Y-106269499D01*
X93445850Y-106269499D01*
X93354151Y-106269499D01*
X93311790Y-106287044D01*
X93311791Y-106287045D01*
X93269433Y-106304590D01*
X93204590Y-106369433D01*
X93126198Y-106447826D01*
X93073872Y-106469500D01*
X84226128Y-106469500D01*
X84173802Y-106447826D01*
X80950599Y-103224623D01*
X80928925Y-103172297D01*
X80930340Y-103161550D01*
X80929867Y-103161488D01*
X80930500Y-103156679D01*
X80930500Y-103043322D01*
X80930499Y-103043321D01*
X80901163Y-102933836D01*
X80901161Y-102933831D01*
X80849193Y-102843820D01*
X80844486Y-102835667D01*
X80764333Y-102755514D01*
X80744170Y-102743873D01*
X80666168Y-102698838D01*
X80666163Y-102698836D01*
X80556678Y-102669500D01*
X80556676Y-102669500D01*
X80443324Y-102669500D01*
X80443322Y-102669500D01*
X80333836Y-102698836D01*
X80333831Y-102698838D01*
X80235666Y-102755514D01*
X80155514Y-102835666D01*
X80098838Y-102933831D01*
X80098836Y-102933836D01*
X80069500Y-103043321D01*
X80069500Y-103156678D01*
X80098836Y-103266163D01*
X80098838Y-103266168D01*
X80155514Y-103364333D01*
X80235667Y-103444486D01*
X80290457Y-103476119D01*
X80321114Y-103493819D01*
X80333833Y-103501162D01*
X80333834Y-103501162D01*
X80333836Y-103501163D01*
X80388578Y-103515831D01*
X80443321Y-103530499D01*
X80443322Y-103530500D01*
X80443324Y-103530500D01*
X80556679Y-103530500D01*
X80561488Y-103529867D01*
X80561847Y-103532596D01*
X80609280Y-103538829D01*
X80624623Y-103550599D01*
X83900370Y-106826346D01*
X83900373Y-106826350D01*
X83904591Y-106830568D01*
X83969432Y-106895409D01*
X84004526Y-106909945D01*
X84011789Y-106912953D01*
X84011790Y-106912954D01*
X84054151Y-106930501D01*
X84154462Y-106930501D01*
X84154470Y-106930500D01*
X93145530Y-106930500D01*
X93145538Y-106930501D01*
X93154150Y-106930501D01*
X93245850Y-106930501D01*
X93295476Y-106909944D01*
X93330568Y-106895409D01*
X93395409Y-106830568D01*
X93395409Y-106830567D01*
X93405815Y-106820161D01*
X93405816Y-106820158D01*
X93473803Y-106752173D01*
X93484711Y-106747655D01*
X93526128Y-106730500D01*
X96865187Y-106730500D01*
X96917513Y-106752174D01*
X96939187Y-106804500D01*
X96917513Y-106856826D01*
X96832683Y-106941656D01*
X96740642Y-107090878D01*
X96685494Y-107257302D01*
X96675000Y-107360024D01*
X96675000Y-107410000D01*
X99124999Y-107410000D01*
X99124999Y-107360029D01*
X99124998Y-107360023D01*
X99114505Y-107257303D01*
X99059357Y-107090878D01*
X98967316Y-106941656D01*
X98967314Y-106941653D01*
X98882487Y-106856826D01*
X98860813Y-106804500D01*
X98882487Y-106752174D01*
X98934813Y-106730500D01*
X99545530Y-106730500D01*
X99545538Y-106730501D01*
X99554150Y-106730501D01*
X99645850Y-106730501D01*
X99695476Y-106709944D01*
X99730568Y-106695409D01*
X99795409Y-106630568D01*
X99795409Y-106630567D01*
X99805814Y-106620162D01*
X99805818Y-106620157D01*
X99813801Y-106612174D01*
X99866127Y-106590500D01*
X100407924Y-106590500D01*
X100460250Y-106612174D01*
X100469454Y-106623390D01*
X100471319Y-106626181D01*
X100476470Y-106631332D01*
X100474101Y-106633700D01*
X100498732Y-106670571D01*
X100487676Y-106726119D01*
X100475801Y-106737994D01*
X100476473Y-106738666D01*
X100471318Y-106743820D01*
X100420374Y-106820062D01*
X100407000Y-106887298D01*
X100407000Y-107132701D01*
X100420374Y-107199937D01*
X100420374Y-107199938D01*
X100454259Y-107250650D01*
X100471319Y-107276181D01*
X100547563Y-107327126D01*
X100614797Y-107340500D01*
X100945500Y-107340499D01*
X100997826Y-107362173D01*
X101019500Y-107414499D01*
X101019500Y-107788515D01*
X100997826Y-107840841D01*
X100890841Y-107947826D01*
X100838515Y-107969500D01*
X100743322Y-107969500D01*
X100633836Y-107998836D01*
X100633831Y-107998838D01*
X100535666Y-108055514D01*
X100455514Y-108135666D01*
X100398838Y-108233831D01*
X100398836Y-108233836D01*
X100369500Y-108343321D01*
X100369500Y-108456678D01*
X100398836Y-108566163D01*
X100398838Y-108566168D01*
X100453011Y-108659998D01*
X100455514Y-108664333D01*
X100535667Y-108744486D01*
X100578993Y-108769500D01*
X100629807Y-108798838D01*
X100633833Y-108801162D01*
X100633834Y-108801162D01*
X100633836Y-108801163D01*
X100688578Y-108815831D01*
X100743321Y-108830499D01*
X100743322Y-108830500D01*
X100743324Y-108830500D01*
X100856678Y-108830500D01*
X100856678Y-108830499D01*
X100966167Y-108801162D01*
X101064333Y-108744486D01*
X101144486Y-108664333D01*
X101201162Y-108566167D01*
X101230499Y-108456678D01*
X101230500Y-108456678D01*
X101230500Y-108361483D01*
X101252174Y-108309157D01*
X101491602Y-108069730D01*
X101491603Y-108069729D01*
X101514388Y-108014720D01*
X101530500Y-107975823D01*
X101530500Y-107874178D01*
X101530500Y-107414499D01*
X101552174Y-107362173D01*
X101604500Y-107340499D01*
X101935201Y-107340499D01*
X101935202Y-107340499D01*
X102002437Y-107327126D01*
X102078681Y-107276181D01*
X102129626Y-107199937D01*
X102143000Y-107132703D01*
X102142999Y-106887298D01*
X102129626Y-106820063D01*
X102078681Y-106743819D01*
X102078677Y-106743816D01*
X102073527Y-106738666D01*
X102075894Y-106736298D01*
X102051266Y-106699420D01*
X102062327Y-106643873D01*
X102074200Y-106632007D01*
X102073527Y-106631334D01*
X102078674Y-106626185D01*
X102078681Y-106626181D01*
X102129626Y-106549937D01*
X102143000Y-106482703D01*
X102142999Y-106237298D01*
X102129626Y-106170063D01*
X102129624Y-106170060D01*
X102126836Y-106163327D01*
X102128413Y-106162673D01*
X102118944Y-106115060D01*
X102150412Y-106067970D01*
X102191522Y-106055500D01*
X102663517Y-106055500D01*
X102715843Y-106077174D01*
X103022826Y-106384157D01*
X103044500Y-106436483D01*
X103044500Y-108963517D01*
X103022826Y-109015843D01*
X102755843Y-109282826D01*
X102703517Y-109304500D01*
X98823959Y-109304500D01*
X98771633Y-109282826D01*
X98750732Y-109241170D01*
X98744724Y-109199928D01*
X98688951Y-109085843D01*
X98599157Y-108996049D01*
X98595311Y-108994169D01*
X98485073Y-108940276D01*
X98411114Y-108929500D01*
X98411110Y-108929500D01*
X97388890Y-108929500D01*
X97388885Y-108929500D01*
X97314926Y-108940276D01*
X97200842Y-108996049D01*
X97111049Y-109085842D01*
X97055276Y-109199926D01*
X97044500Y-109273885D01*
X97044500Y-109846114D01*
X97049267Y-109878831D01*
X97055276Y-109920072D01*
X97111049Y-110034157D01*
X97200843Y-110123951D01*
X97314928Y-110179724D01*
X97388890Y-110190500D01*
X97388896Y-110190500D01*
X98411104Y-110190500D01*
X98411110Y-110190500D01*
X98485072Y-110179724D01*
X98599157Y-110123951D01*
X98688951Y-110034157D01*
X98744724Y-109920072D01*
X98750732Y-109878829D01*
X98779724Y-109830177D01*
X98823959Y-109815500D01*
X102890822Y-109815500D01*
X102890823Y-109815500D01*
X102918327Y-109804107D01*
X102984729Y-109776603D01*
X103056603Y-109704729D01*
X103056603Y-109704728D01*
X103067008Y-109694323D01*
X103067010Y-109694320D01*
X103434320Y-109327010D01*
X103434323Y-109327008D01*
X103444728Y-109316603D01*
X103444729Y-109316603D01*
X103516603Y-109244729D01*
X103555500Y-109150822D01*
X103555500Y-106249178D01*
X103522730Y-106170062D01*
X103516604Y-106155273D01*
X103516602Y-106155270D01*
X103444728Y-106083396D01*
X103027011Y-105665680D01*
X103027011Y-105665679D01*
X103016603Y-105655271D01*
X102944729Y-105583397D01*
X102878327Y-105555892D01*
X102850823Y-105544500D01*
X102850822Y-105544500D01*
X102850821Y-105544500D01*
X102513419Y-105544500D01*
X102461093Y-105522826D01*
X102439419Y-105470500D01*
X102445052Y-105442182D01*
X102497056Y-105316630D01*
X102504512Y-105260000D01*
X100045489Y-105260000D01*
X100052943Y-105316628D01*
X100052944Y-105316632D01*
X100113400Y-105462587D01*
X100209575Y-105587924D01*
X100334912Y-105684099D01*
X100361318Y-105695037D01*
X100401367Y-105735085D01*
X100407000Y-105763403D01*
X100407000Y-105832701D01*
X100420374Y-105899937D01*
X100420374Y-105899938D01*
X100429478Y-105913562D01*
X100471319Y-105976181D01*
X100471322Y-105976183D01*
X100476473Y-105981334D01*
X100474103Y-105983703D01*
X100498732Y-106020571D01*
X100487676Y-106076119D01*
X100481453Y-106084172D01*
X100475153Y-106091257D01*
X100471319Y-106093819D01*
X100466614Y-106100860D01*
X100463225Y-106104672D01*
X100441984Y-106114966D01*
X100422363Y-106128078D01*
X100413034Y-106128996D01*
X100412258Y-106129373D01*
X100411585Y-106129139D01*
X100407924Y-106129500D01*
X99794470Y-106129500D01*
X99794462Y-106129499D01*
X99785850Y-106129499D01*
X99694151Y-106129499D01*
X99651790Y-106147044D01*
X99651791Y-106147045D01*
X99609433Y-106164590D01*
X99526197Y-106247826D01*
X99473871Y-106269500D01*
X98732260Y-106269500D01*
X98679934Y-106247826D01*
X98658260Y-106195500D01*
X98679934Y-106143174D01*
X98688951Y-106134157D01*
X98744724Y-106020072D01*
X98754484Y-105953077D01*
X98783476Y-105904425D01*
X98799386Y-105895384D01*
X98844729Y-105876603D01*
X98916603Y-105804729D01*
X98916603Y-105804728D01*
X98927008Y-105794323D01*
X98927009Y-105794320D01*
X99919261Y-104802069D01*
X99971586Y-104780396D01*
X100023912Y-104802070D01*
X100045586Y-104854396D01*
X100045237Y-104859714D01*
X100045488Y-104860000D01*
X102504511Y-104860000D01*
X102504511Y-104859999D01*
X102497056Y-104803371D01*
X102497055Y-104803367D01*
X102436599Y-104657412D01*
X102340424Y-104532075D01*
X102215088Y-104435900D01*
X102215086Y-104435899D01*
X102188679Y-104424960D01*
X102148631Y-104384911D01*
X102142999Y-104356594D01*
X102142999Y-104287299D01*
X102138618Y-104265272D01*
X102129626Y-104220063D01*
X102078681Y-104143819D01*
X102078677Y-104143816D01*
X102073527Y-104138666D01*
X102075894Y-104136298D01*
X102051266Y-104099420D01*
X102062327Y-104043873D01*
X102074200Y-104032007D01*
X102073527Y-104031334D01*
X102078674Y-104026185D01*
X102078681Y-104026181D01*
X102129626Y-103949937D01*
X102143000Y-103882703D01*
X102142999Y-103637298D01*
X102129626Y-103570063D01*
X102116620Y-103550599D01*
X102104591Y-103532596D01*
X102078681Y-103493819D01*
X102078677Y-103493816D01*
X102073527Y-103488666D01*
X102075894Y-103486298D01*
X102051266Y-103449420D01*
X102062327Y-103393873D01*
X102074200Y-103382007D01*
X102073527Y-103381334D01*
X102078674Y-103376185D01*
X102078681Y-103376181D01*
X102129626Y-103299937D01*
X102143000Y-103232703D01*
X102142999Y-102987298D01*
X102129626Y-102920063D01*
X102078681Y-102843819D01*
X102078677Y-102843816D01*
X102073527Y-102838666D01*
X102075894Y-102836298D01*
X102051266Y-102799420D01*
X102062327Y-102743873D01*
X102074200Y-102732007D01*
X102073527Y-102731334D01*
X102078674Y-102726185D01*
X102078681Y-102726181D01*
X102129626Y-102649937D01*
X102143000Y-102582703D01*
X102142999Y-102337298D01*
X102129626Y-102270063D01*
X102078681Y-102193819D01*
X102002437Y-102142874D01*
X101935203Y-102129500D01*
X101935201Y-102129500D01*
X100614799Y-102129500D01*
X100547562Y-102142874D01*
X100547561Y-102142874D01*
X100471320Y-102193818D01*
X100471318Y-102193820D01*
X100420374Y-102270062D01*
X100407000Y-102337298D01*
X100407000Y-102582701D01*
X100420374Y-102649937D01*
X100420374Y-102649938D01*
X100453049Y-102698838D01*
X100471319Y-102726181D01*
X100471322Y-102726183D01*
X100476473Y-102731334D01*
X100474103Y-102733703D01*
X100498732Y-102770571D01*
X100487676Y-102826119D01*
X100475801Y-102837994D01*
X100476473Y-102838666D01*
X100471318Y-102843820D01*
X100420374Y-102920062D01*
X100407000Y-102987298D01*
X100407000Y-103232701D01*
X100420374Y-103299937D01*
X100420374Y-103299938D01*
X100454259Y-103350650D01*
X100471319Y-103376181D01*
X100471322Y-103376183D01*
X100473313Y-103378174D01*
X100474392Y-103380779D01*
X100475368Y-103382240D01*
X100475077Y-103382434D01*
X100494987Y-103430500D01*
X100473313Y-103482826D01*
X100420987Y-103504500D01*
X98823959Y-103504500D01*
X98771633Y-103482826D01*
X98750732Y-103441170D01*
X98744724Y-103399928D01*
X98688951Y-103285843D01*
X98599157Y-103196049D01*
X98485073Y-103140276D01*
X98411114Y-103129500D01*
X98411110Y-103129500D01*
X97388890Y-103129500D01*
X97388885Y-103129500D01*
X97314926Y-103140276D01*
X97200842Y-103196049D01*
X97111049Y-103285842D01*
X97055276Y-103399926D01*
X97044500Y-103473885D01*
X97044500Y-104046114D01*
X97055276Y-104120073D01*
X97104158Y-104220061D01*
X97111049Y-104234157D01*
X97200843Y-104323951D01*
X97314928Y-104379724D01*
X97388890Y-104390500D01*
X97388896Y-104390500D01*
X98411104Y-104390500D01*
X98411110Y-104390500D01*
X98485072Y-104379724D01*
X98599157Y-104323951D01*
X98688951Y-104234157D01*
X98744724Y-104120072D01*
X98750732Y-104078829D01*
X98779724Y-104030177D01*
X98823959Y-104015500D01*
X99862729Y-104015500D01*
X99915055Y-104037174D01*
X99936729Y-104089500D01*
X99915055Y-104141826D01*
X99891047Y-104157867D01*
X99871672Y-104165892D01*
X99842712Y-104177887D01*
X99805274Y-104193395D01*
X99805272Y-104193396D01*
X99733396Y-104265272D01*
X98802333Y-105196334D01*
X98750007Y-105218008D01*
X98697681Y-105196334D01*
X98689779Y-105187004D01*
X98688952Y-105185846D01*
X98688951Y-105185843D01*
X98599157Y-105096049D01*
X98485073Y-105040276D01*
X98411114Y-105029500D01*
X98411110Y-105029500D01*
X97661483Y-105029500D01*
X97609157Y-105007826D01*
X96377174Y-103775843D01*
X96355500Y-103723517D01*
X96355500Y-102129500D01*
X96377174Y-102077174D01*
X96429500Y-102055500D01*
X96976041Y-102055500D01*
X97028367Y-102077174D01*
X97049267Y-102118829D01*
X97055276Y-102160072D01*
X97111049Y-102274157D01*
X97200843Y-102363951D01*
X97314928Y-102419724D01*
X97388890Y-102430500D01*
X97388896Y-102430500D01*
X98411104Y-102430500D01*
X98411110Y-102430500D01*
X98485072Y-102419724D01*
X98599157Y-102363951D01*
X98688951Y-102274157D01*
X98744724Y-102160072D01*
X98755500Y-102086110D01*
X98755500Y-101513890D01*
X98744724Y-101439928D01*
X98688951Y-101325843D01*
X98599157Y-101236049D01*
X98485073Y-101180276D01*
X98411114Y-101169500D01*
X98411110Y-101169500D01*
X97388890Y-101169500D01*
X97388885Y-101169500D01*
X97314926Y-101180276D01*
X97200842Y-101236049D01*
X97111049Y-101325842D01*
X97055276Y-101439926D01*
X97055276Y-101439928D01*
X97049267Y-101481170D01*
X97020276Y-101529823D01*
X96976041Y-101544500D01*
X96149176Y-101544500D01*
X96137784Y-101549218D01*
X96121672Y-101555892D01*
X96092712Y-101567887D01*
X96055274Y-101583395D01*
X96055272Y-101583396D01*
X95915842Y-101722826D01*
X95863516Y-101744500D01*
X87089135Y-101744500D01*
X87036809Y-101722826D01*
X85513959Y-100199976D01*
X96675001Y-100199976D01*
X96685494Y-100302696D01*
X96740642Y-100469121D01*
X96832683Y-100618343D01*
X96832686Y-100618347D01*
X96956653Y-100742314D01*
X96956656Y-100742316D01*
X97105878Y-100834357D01*
X97272302Y-100889505D01*
X97375025Y-100899999D01*
X97650000Y-100899999D01*
X98150000Y-100899999D01*
X98424971Y-100899999D01*
X98424976Y-100899998D01*
X98527696Y-100889505D01*
X98694121Y-100834357D01*
X98843343Y-100742316D01*
X98843347Y-100742314D01*
X98967314Y-100618347D01*
X98967316Y-100618343D01*
X99059357Y-100469121D01*
X99114505Y-100302697D01*
X99124999Y-100199975D01*
X99125000Y-100199973D01*
X99125000Y-100150000D01*
X98150000Y-100150000D01*
X98150000Y-100899999D01*
X97650000Y-100899999D01*
X97650000Y-100150000D01*
X96675001Y-100150000D01*
X96675001Y-100199976D01*
X85513959Y-100199976D01*
X81304825Y-95990842D01*
X81283151Y-95938516D01*
X81283151Y-94813896D01*
X81283151Y-94813890D01*
X81272375Y-94739928D01*
X81216602Y-94625843D01*
X81126808Y-94536049D01*
X81012724Y-94480276D01*
X80938765Y-94469500D01*
X80938761Y-94469500D01*
X79814134Y-94469500D01*
X79761808Y-94447826D01*
X77972174Y-92658192D01*
X77950500Y-92605866D01*
X77950500Y-90144178D01*
X77950499Y-90144176D01*
X77911604Y-90050273D01*
X77911602Y-90050270D01*
X77352174Y-89490842D01*
X77330500Y-89438516D01*
X77330500Y-89343322D01*
X77330499Y-89343321D01*
X77301163Y-89233836D01*
X77301161Y-89233831D01*
X77244485Y-89135666D01*
X77164333Y-89055514D01*
X77066168Y-88998838D01*
X77066163Y-88998836D01*
X76956678Y-88969500D01*
X76956676Y-88969500D01*
X76843324Y-88969500D01*
X76843322Y-88969500D01*
X76733836Y-88998836D01*
X76733831Y-88998838D01*
X76635666Y-89055514D01*
X76555514Y-89135666D01*
X76498838Y-89233831D01*
X76498836Y-89233836D01*
X76469500Y-89343321D01*
X76469500Y-89456678D01*
X76498836Y-89566163D01*
X76498838Y-89566168D01*
X76555514Y-89664333D01*
X76635667Y-89744486D01*
X76733833Y-89801162D01*
X76733834Y-89801162D01*
X76733836Y-89801163D01*
X76788578Y-89815831D01*
X76843321Y-89830499D01*
X76843322Y-89830500D01*
X76938517Y-89830500D01*
X76990843Y-89852174D01*
X77417826Y-90279157D01*
X77439500Y-90331483D01*
X77439500Y-92412849D01*
X77417826Y-92465175D01*
X77365500Y-92486849D01*
X72155611Y-92486849D01*
X72103285Y-92465175D01*
X72087917Y-92442742D01*
X72082769Y-92431082D01*
X72008616Y-92356929D01*
X71912682Y-92314570D01*
X71912683Y-92314570D01*
X71907991Y-92314025D01*
X71889229Y-92311849D01*
X70155469Y-92311849D01*
X70136706Y-92314025D01*
X70132015Y-92314570D01*
X70036081Y-92356929D01*
X69981826Y-92411185D01*
X69929500Y-92432859D01*
X69877174Y-92411185D01*
X69855500Y-92358859D01*
X69855500Y-89736483D01*
X69877174Y-89684157D01*
X71184157Y-88377174D01*
X71236483Y-88355500D01*
X81438517Y-88355500D01*
X81490843Y-88377174D01*
X89210326Y-96096657D01*
X89232000Y-96148983D01*
X89232000Y-96886114D01*
X89242776Y-96960073D01*
X89253911Y-96982849D01*
X89298549Y-97074157D01*
X89388343Y-97163951D01*
X89502428Y-97219724D01*
X89576390Y-97230500D01*
X89576396Y-97230500D01*
X90173604Y-97230500D01*
X90173610Y-97230500D01*
X90247572Y-97219724D01*
X90361657Y-97163951D01*
X90451451Y-97074157D01*
X90507224Y-96960072D01*
X90518000Y-96886110D01*
X90518000Y-95913890D01*
X90517999Y-95913885D01*
X91057000Y-95913885D01*
X91057000Y-96886114D01*
X91067776Y-96960073D01*
X91078911Y-96982849D01*
X91123549Y-97074157D01*
X91213343Y-97163951D01*
X91327428Y-97219724D01*
X91401390Y-97230500D01*
X91401396Y-97230500D01*
X91998604Y-97230500D01*
X91998610Y-97230500D01*
X92072572Y-97219724D01*
X92106492Y-97203140D01*
X92163019Y-97199630D01*
X92191319Y-97217295D01*
X93700370Y-98726346D01*
X93700373Y-98726350D01*
X93769432Y-98795409D01*
X93811789Y-98812953D01*
X93811790Y-98812954D01*
X93854151Y-98830501D01*
X93954462Y-98830501D01*
X93954470Y-98830500D01*
X97064046Y-98830500D01*
X97116372Y-98852174D01*
X97138046Y-98904500D01*
X97116372Y-98956826D01*
X97102894Y-98967483D01*
X96956656Y-99057683D01*
X96832683Y-99181656D01*
X96740642Y-99330878D01*
X96685494Y-99497302D01*
X96675000Y-99600024D01*
X96675000Y-99650000D01*
X99124999Y-99650000D01*
X99124999Y-99600029D01*
X99124998Y-99600023D01*
X99114505Y-99497303D01*
X99059357Y-99330878D01*
X98967316Y-99181656D01*
X98967314Y-99181653D01*
X98843347Y-99057686D01*
X98843343Y-99057683D01*
X98697106Y-98967483D01*
X98663949Y-98921566D01*
X98672971Y-98865652D01*
X98718888Y-98832495D01*
X98735954Y-98830500D01*
X99873872Y-98830500D01*
X99926198Y-98852174D01*
X100700370Y-99626346D01*
X100700373Y-99626350D01*
X100769432Y-99695409D01*
X100769431Y-99695409D01*
X100829337Y-99720221D01*
X100829339Y-99720221D01*
X100842728Y-99725768D01*
X100854149Y-99730500D01*
X100854150Y-99730500D01*
X100854151Y-99730500D01*
X105573872Y-99730500D01*
X105626198Y-99752174D01*
X106747826Y-100873802D01*
X106769500Y-100926128D01*
X106769500Y-102055500D01*
X106747826Y-102107826D01*
X106695500Y-102129500D01*
X106339798Y-102129500D01*
X106272562Y-102142874D01*
X106272561Y-102142874D01*
X106196320Y-102193818D01*
X106196318Y-102193820D01*
X106145374Y-102270062D01*
X106132000Y-102337298D01*
X106132000Y-102582701D01*
X106145374Y-102649937D01*
X106145374Y-102649938D01*
X106178049Y-102698838D01*
X106196319Y-102726181D01*
X106196322Y-102726183D01*
X106201473Y-102731334D01*
X106199103Y-102733703D01*
X106223732Y-102770571D01*
X106212676Y-102826119D01*
X106200801Y-102837994D01*
X106201473Y-102838666D01*
X106196318Y-102843820D01*
X106145374Y-102920062D01*
X106132000Y-102987298D01*
X106132000Y-103232701D01*
X106145374Y-103299937D01*
X106145374Y-103299938D01*
X106179259Y-103350650D01*
X106196319Y-103376181D01*
X106196322Y-103376183D01*
X106201473Y-103381334D01*
X106199103Y-103383703D01*
X106223732Y-103420571D01*
X106212676Y-103476119D01*
X106200801Y-103487994D01*
X106201473Y-103488666D01*
X106196318Y-103493820D01*
X106145374Y-103570062D01*
X106132000Y-103637298D01*
X106132000Y-103882701D01*
X106145374Y-103949937D01*
X106145374Y-103949938D01*
X106179259Y-104000650D01*
X106196319Y-104026181D01*
X106196322Y-104026183D01*
X106201473Y-104031334D01*
X106199103Y-104033703D01*
X106223732Y-104070571D01*
X106212676Y-104126119D01*
X106200801Y-104137994D01*
X106201473Y-104138666D01*
X106196318Y-104143820D01*
X106145374Y-104220062D01*
X106132000Y-104287298D01*
X106132000Y-104532701D01*
X106145374Y-104599937D01*
X106145374Y-104599938D01*
X106179259Y-104650650D01*
X106196319Y-104676181D01*
X106196322Y-104676183D01*
X106201473Y-104681334D01*
X106199103Y-104683703D01*
X106223732Y-104720571D01*
X106212676Y-104776119D01*
X106200801Y-104787994D01*
X106201473Y-104788666D01*
X106196318Y-104793820D01*
X106145374Y-104870062D01*
X106132000Y-104937298D01*
X106132000Y-105182701D01*
X106145374Y-105249937D01*
X106145374Y-105249938D01*
X106178777Y-105299928D01*
X106196319Y-105326181D01*
X106196322Y-105326183D01*
X106201473Y-105331334D01*
X106199103Y-105333703D01*
X106223732Y-105370571D01*
X106212676Y-105426119D01*
X106200801Y-105437994D01*
X106201473Y-105438666D01*
X106196318Y-105443820D01*
X106145374Y-105520062D01*
X106132000Y-105587298D01*
X106132000Y-105832701D01*
X106145374Y-105899937D01*
X106145374Y-105899938D01*
X106154478Y-105913562D01*
X106196319Y-105976181D01*
X106196322Y-105976183D01*
X106201473Y-105981334D01*
X106199103Y-105983703D01*
X106223732Y-106020571D01*
X106212676Y-106076119D01*
X106200801Y-106087994D01*
X106201473Y-106088666D01*
X106196318Y-106093820D01*
X106145374Y-106170062D01*
X106145374Y-106170063D01*
X106133565Y-106229432D01*
X106132000Y-106237298D01*
X106132000Y-106482701D01*
X106145374Y-106549937D01*
X106145374Y-106549938D01*
X106179259Y-106600650D01*
X106196319Y-106626181D01*
X106196322Y-106626183D01*
X106201473Y-106631334D01*
X106199103Y-106633703D01*
X106223732Y-106670571D01*
X106212676Y-106726119D01*
X106200801Y-106737994D01*
X106201473Y-106738666D01*
X106196318Y-106743820D01*
X106145374Y-106820062D01*
X106132000Y-106887298D01*
X106132000Y-107132701D01*
X106145374Y-107199937D01*
X106145374Y-107199938D01*
X106179259Y-107250650D01*
X106196319Y-107276181D01*
X106272563Y-107327126D01*
X106339797Y-107340500D01*
X106670500Y-107340499D01*
X106722826Y-107362173D01*
X106744500Y-107414499D01*
X106744500Y-108750823D01*
X106783395Y-108844726D01*
X106783396Y-108844728D01*
X106783397Y-108844729D01*
X106855271Y-108916603D01*
X106902028Y-108935969D01*
X106926033Y-108952009D01*
X107300370Y-109326346D01*
X107300373Y-109326350D01*
X107369432Y-109395409D01*
X107411789Y-109412953D01*
X107411790Y-109412954D01*
X107454151Y-109430501D01*
X107554462Y-109430501D01*
X107554470Y-109430500D01*
X108193257Y-109430500D01*
X108245583Y-109452174D01*
X108252182Y-109460777D01*
X108252562Y-109460486D01*
X108255512Y-109464331D01*
X108255514Y-109464333D01*
X108335667Y-109544486D01*
X108433833Y-109601162D01*
X108433834Y-109601162D01*
X108433836Y-109601163D01*
X108488578Y-109615831D01*
X108543321Y-109630499D01*
X108543322Y-109630500D01*
X108543324Y-109630500D01*
X108656678Y-109630500D01*
X108656678Y-109630499D01*
X108766167Y-109601162D01*
X108864333Y-109544486D01*
X108944486Y-109464333D01*
X109001162Y-109366167D01*
X109030499Y-109256678D01*
X109030500Y-109256678D01*
X109030500Y-109143322D01*
X109030499Y-109143321D01*
X109001163Y-109033836D01*
X109001161Y-109033831D01*
X108951506Y-108947826D01*
X108944486Y-108935667D01*
X108864333Y-108855514D01*
X108845648Y-108844726D01*
X108766168Y-108798838D01*
X108766163Y-108798836D01*
X108656678Y-108769500D01*
X108656676Y-108769500D01*
X108543324Y-108769500D01*
X108543322Y-108769500D01*
X108433836Y-108798836D01*
X108433831Y-108798838D01*
X108335666Y-108855514D01*
X108255512Y-108935668D01*
X108252562Y-108939514D01*
X108250377Y-108937837D01*
X108212431Y-108966973D01*
X108193257Y-108969500D01*
X107626128Y-108969500D01*
X107573802Y-108947826D01*
X107277174Y-108651198D01*
X107255500Y-108598872D01*
X107255500Y-107414499D01*
X107277174Y-107362173D01*
X107329500Y-107340499D01*
X107660201Y-107340499D01*
X107660202Y-107340499D01*
X107727437Y-107327126D01*
X107803681Y-107276181D01*
X107854626Y-107199937D01*
X107868000Y-107132703D01*
X107867999Y-106887298D01*
X107854626Y-106820063D01*
X107803681Y-106743819D01*
X107803677Y-106743816D01*
X107801687Y-106741826D01*
X107800607Y-106739220D01*
X107799632Y-106737760D01*
X107799922Y-106737565D01*
X107780013Y-106689500D01*
X107801687Y-106637174D01*
X107854013Y-106615500D01*
X109883517Y-106615500D01*
X109935842Y-106637173D01*
X110215271Y-106916603D01*
X110309178Y-106955501D01*
X110309179Y-106955501D01*
X110410822Y-106955501D01*
X110410823Y-106955501D01*
X110504729Y-106916603D01*
X110576603Y-106844729D01*
X110576603Y-106844728D01*
X110579159Y-106842173D01*
X110631485Y-106820499D01*
X112082854Y-106820499D01*
X112120919Y-106812929D01*
X112164086Y-106784086D01*
X112192929Y-106740919D01*
X112200500Y-106702855D01*
X112200499Y-104977146D01*
X112192929Y-104939081D01*
X112183314Y-104924692D01*
X112164088Y-104895916D01*
X112164085Y-104895913D01*
X112120919Y-104867071D01*
X112082855Y-104859500D01*
X112082854Y-104859500D01*
X110357145Y-104859500D01*
X110319080Y-104867071D01*
X110275916Y-104895911D01*
X110275913Y-104895914D01*
X110247071Y-104939080D01*
X110239500Y-104977145D01*
X110239500Y-106063619D01*
X110217826Y-106115945D01*
X110165500Y-106137619D01*
X110137182Y-106131986D01*
X110098328Y-106115892D01*
X110098327Y-106115892D01*
X110070823Y-106104500D01*
X110070822Y-106104500D01*
X110070821Y-106104500D01*
X107854013Y-106104500D01*
X107801687Y-106082826D01*
X107780013Y-106030500D01*
X107799922Y-105982434D01*
X107799632Y-105982240D01*
X107800607Y-105980779D01*
X107801687Y-105978174D01*
X107803674Y-105976185D01*
X107803681Y-105976181D01*
X107854626Y-105899937D01*
X107868000Y-105832703D01*
X107867999Y-105587298D01*
X107854626Y-105520063D01*
X107803681Y-105443819D01*
X107803677Y-105443816D01*
X107801687Y-105441826D01*
X107800607Y-105439220D01*
X107799632Y-105437760D01*
X107799922Y-105437565D01*
X107780013Y-105389500D01*
X107801687Y-105337174D01*
X107854013Y-105315500D01*
X109510822Y-105315500D01*
X109510823Y-105315500D01*
X109538327Y-105304107D01*
X109604729Y-105276603D01*
X109676603Y-105204729D01*
X109676603Y-105204728D01*
X109687008Y-105194323D01*
X109687010Y-105194320D01*
X110690094Y-104191235D01*
X110742419Y-104169562D01*
X110770737Y-104175195D01*
X110933994Y-104242818D01*
X110933999Y-104242820D01*
X111123429Y-104280500D01*
X111123431Y-104280500D01*
X111316569Y-104280500D01*
X111316571Y-104280500D01*
X111506001Y-104242820D01*
X111684441Y-104168908D01*
X111845032Y-104061604D01*
X111981604Y-103925032D01*
X112088908Y-103764441D01*
X112162820Y-103586001D01*
X112200500Y-103396571D01*
X112200500Y-103203429D01*
X112162820Y-103013999D01*
X112129614Y-102933833D01*
X112088909Y-102835561D01*
X112064760Y-102799420D01*
X111981604Y-102674968D01*
X111845032Y-102538396D01*
X111684441Y-102431092D01*
X111684440Y-102431091D01*
X111684438Y-102431090D01*
X111506005Y-102357181D01*
X111505995Y-102357178D01*
X111366844Y-102329500D01*
X111316571Y-102319500D01*
X111123429Y-102319500D01*
X111073156Y-102329500D01*
X110934004Y-102357178D01*
X110933994Y-102357181D01*
X110755561Y-102431090D01*
X110594971Y-102538393D01*
X110458393Y-102674971D01*
X110351090Y-102835561D01*
X110277181Y-103013994D01*
X110277178Y-103014004D01*
X110254205Y-103129500D01*
X110239500Y-103203429D01*
X110239500Y-103396571D01*
X110240168Y-103399928D01*
X110277178Y-103585995D01*
X110277181Y-103586005D01*
X110344803Y-103749261D01*
X110344803Y-103805898D01*
X110328762Y-103829905D01*
X109375843Y-104782826D01*
X109323517Y-104804500D01*
X107854013Y-104804500D01*
X107801687Y-104782826D01*
X107780013Y-104730500D01*
X107799922Y-104682434D01*
X107799632Y-104682240D01*
X107800607Y-104680779D01*
X107801687Y-104678174D01*
X107803674Y-104676185D01*
X107803681Y-104676181D01*
X107854626Y-104599937D01*
X107868000Y-104532703D01*
X107867999Y-104287298D01*
X107854626Y-104220063D01*
X107803681Y-104143819D01*
X107803677Y-104143816D01*
X107798527Y-104138666D01*
X107800894Y-104136298D01*
X107776266Y-104099420D01*
X107787327Y-104043873D01*
X107799200Y-104032007D01*
X107798527Y-104031334D01*
X107803674Y-104026185D01*
X107803681Y-104026181D01*
X107854626Y-103949937D01*
X107868000Y-103882703D01*
X107867999Y-103637298D01*
X107854626Y-103570063D01*
X107841620Y-103550599D01*
X107829591Y-103532596D01*
X107803681Y-103493819D01*
X107803677Y-103493816D01*
X107798527Y-103488666D01*
X107800894Y-103486298D01*
X107776266Y-103449420D01*
X107787327Y-103393873D01*
X107799200Y-103382007D01*
X107798527Y-103381334D01*
X107803674Y-103376185D01*
X107803681Y-103376181D01*
X107854626Y-103299937D01*
X107868000Y-103232703D01*
X107867999Y-102987298D01*
X107854626Y-102920063D01*
X107803681Y-102843819D01*
X107803677Y-102843816D01*
X107798527Y-102838666D01*
X107800894Y-102836298D01*
X107776266Y-102799420D01*
X107787327Y-102743873D01*
X107799200Y-102732007D01*
X107798527Y-102731334D01*
X107803674Y-102726185D01*
X107803681Y-102726181D01*
X107854626Y-102649937D01*
X107868000Y-102582703D01*
X107867999Y-102337298D01*
X107854626Y-102270063D01*
X107803681Y-102193819D01*
X107727437Y-102142874D01*
X107660203Y-102129500D01*
X107660201Y-102129500D01*
X107304500Y-102129500D01*
X107252174Y-102107826D01*
X107230500Y-102055500D01*
X107230500Y-100854470D01*
X107230501Y-100854461D01*
X107230501Y-100754151D01*
X107195409Y-100669432D01*
X107195408Y-100669431D01*
X105905817Y-99379841D01*
X105905817Y-99379840D01*
X105895409Y-99369432D01*
X105830568Y-99304591D01*
X105830566Y-99304590D01*
X105830564Y-99304589D01*
X105795476Y-99290055D01*
X105795476Y-99290054D01*
X105745850Y-99269499D01*
X105654150Y-99269499D01*
X105645538Y-99269499D01*
X105645530Y-99269500D01*
X101026128Y-99269500D01*
X100973802Y-99247826D01*
X100205817Y-98479841D01*
X100205817Y-98479840D01*
X100195409Y-98469432D01*
X100130568Y-98404591D01*
X100130566Y-98404590D01*
X100130564Y-98404589D01*
X100095476Y-98390055D01*
X100095476Y-98390054D01*
X100045850Y-98369499D01*
X99954150Y-98369499D01*
X99945538Y-98369499D01*
X99945530Y-98369500D01*
X94026128Y-98369500D01*
X93973802Y-98347826D01*
X92364674Y-96738698D01*
X92343000Y-96686372D01*
X92343000Y-95913896D01*
X92343000Y-95913890D01*
X92332224Y-95839928D01*
X92276451Y-95725843D01*
X92186657Y-95636049D01*
X92130213Y-95608455D01*
X92072573Y-95580276D01*
X91998614Y-95569500D01*
X91998610Y-95569500D01*
X91401390Y-95569500D01*
X91401385Y-95569500D01*
X91327426Y-95580276D01*
X91213342Y-95636049D01*
X91123549Y-95725842D01*
X91067776Y-95839926D01*
X91057000Y-95913885D01*
X90517999Y-95913885D01*
X90507224Y-95839928D01*
X90451451Y-95725843D01*
X90361657Y-95636049D01*
X90305213Y-95608455D01*
X90247573Y-95580276D01*
X90173614Y-95569500D01*
X90173610Y-95569500D01*
X89576390Y-95569500D01*
X89576385Y-95569500D01*
X89502424Y-95580276D01*
X89492248Y-95585251D01*
X89435719Y-95588757D01*
X89407426Y-95571094D01*
X81852174Y-88015842D01*
X81830500Y-87963516D01*
X81830500Y-81134443D01*
X81830501Y-81134434D01*
X81830501Y-81024178D01*
X81802053Y-80955499D01*
X81791603Y-80930271D01*
X77677174Y-76815842D01*
X77655500Y-76763516D01*
X77655500Y-76166483D01*
X77677174Y-76114157D01*
X81099157Y-72692174D01*
X81151483Y-72670500D01*
X82495501Y-72670500D01*
X82547827Y-72692174D01*
X82569501Y-72744500D01*
X82569501Y-72877854D01*
X82577071Y-72915919D01*
X82605911Y-72959083D01*
X82605914Y-72959086D01*
X82649892Y-72988471D01*
X82681358Y-73035563D01*
X82670309Y-73091112D01*
X82649892Y-73111529D01*
X82605914Y-73140913D01*
X82605913Y-73140914D01*
X82577071Y-73184080D01*
X82569500Y-73222145D01*
X82569500Y-74147854D01*
X82577071Y-74185919D01*
X82605911Y-74229083D01*
X82605914Y-74229086D01*
X82649892Y-74258471D01*
X82681358Y-74305563D01*
X82670309Y-74361112D01*
X82649892Y-74381529D01*
X82605914Y-74410913D01*
X82605913Y-74410914D01*
X82577071Y-74454080D01*
X82569500Y-74492145D01*
X82569500Y-74650500D01*
X82547826Y-74702826D01*
X82495500Y-74724500D01*
X81699150Y-74724500D01*
X81674336Y-74734778D01*
X81614434Y-74759589D01*
X81549590Y-74824433D01*
X80824622Y-75549400D01*
X80772296Y-75571074D01*
X80761546Y-75569662D01*
X80761485Y-75570133D01*
X80756677Y-75569500D01*
X80756676Y-75569500D01*
X80643324Y-75569500D01*
X80643322Y-75569500D01*
X80533836Y-75598836D01*
X80533831Y-75598838D01*
X80435666Y-75655514D01*
X80355514Y-75735666D01*
X80298838Y-75833831D01*
X80298836Y-75833836D01*
X80269500Y-75943321D01*
X80269500Y-76056678D01*
X80298836Y-76166163D01*
X80298838Y-76166168D01*
X80299020Y-76166483D01*
X80355514Y-76264333D01*
X80435667Y-76344486D01*
X80533833Y-76401162D01*
X80533834Y-76401162D01*
X80533836Y-76401163D01*
X80588578Y-76415831D01*
X80643321Y-76430499D01*
X80643322Y-76430500D01*
X80643324Y-76430500D01*
X80756678Y-76430500D01*
X80756678Y-76430499D01*
X80866167Y-76401162D01*
X80964333Y-76344486D01*
X81044486Y-76264333D01*
X81101162Y-76166167D01*
X81130499Y-76056678D01*
X81130500Y-76056678D01*
X81130500Y-75943322D01*
X81129867Y-75938513D01*
X81132603Y-75938152D01*
X81138815Y-75890743D01*
X81150594Y-75875380D01*
X81818802Y-75207174D01*
X81871128Y-75185500D01*
X82495501Y-75185500D01*
X82547827Y-75207174D01*
X82569501Y-75259500D01*
X82569501Y-75417854D01*
X82577071Y-75455919D01*
X82605911Y-75499083D01*
X82605914Y-75499086D01*
X82649892Y-75528471D01*
X82681358Y-75575563D01*
X82670309Y-75631112D01*
X82649892Y-75651529D01*
X82605914Y-75680913D01*
X82605913Y-75680914D01*
X82577071Y-75724080D01*
X82569500Y-75762145D01*
X82569501Y-76687853D01*
X82577071Y-76725919D01*
X82605911Y-76769083D01*
X82605914Y-76769086D01*
X82649892Y-76798471D01*
X82681358Y-76845563D01*
X82670309Y-76901112D01*
X82649892Y-76921529D01*
X82605914Y-76950913D01*
X82605913Y-76950914D01*
X82577071Y-76994080D01*
X82569500Y-77032145D01*
X82569500Y-77957854D01*
X82577071Y-77995919D01*
X82605911Y-78039083D01*
X82605914Y-78039086D01*
X82649892Y-78068471D01*
X82681358Y-78115563D01*
X82670309Y-78171112D01*
X82649892Y-78191529D01*
X82605914Y-78220913D01*
X82605913Y-78220914D01*
X82577071Y-78264080D01*
X82569500Y-78302145D01*
X82569500Y-79227854D01*
X82577071Y-79265919D01*
X82605911Y-79309083D01*
X82605914Y-79309086D01*
X82649892Y-79338471D01*
X82681358Y-79385563D01*
X82670309Y-79441112D01*
X82649892Y-79461529D01*
X82605914Y-79490913D01*
X82605913Y-79490914D01*
X82577071Y-79534080D01*
X82569500Y-79572145D01*
X82569500Y-80497854D01*
X82577071Y-80535919D01*
X82605911Y-80579083D01*
X82605914Y-80579086D01*
X82649892Y-80608471D01*
X82681358Y-80655563D01*
X82670309Y-80711112D01*
X82649892Y-80731529D01*
X82605914Y-80760913D01*
X82605913Y-80760914D01*
X82577071Y-80804080D01*
X82569500Y-80842145D01*
X82569500Y-81767854D01*
X82577071Y-81805919D01*
X82605911Y-81849083D01*
X82605914Y-81849086D01*
X82649892Y-81878471D01*
X82681358Y-81925563D01*
X82670309Y-81981112D01*
X82649892Y-82001529D01*
X82605914Y-82030913D01*
X82605913Y-82030914D01*
X82577071Y-82074080D01*
X82569500Y-82112145D01*
X82569500Y-83037854D01*
X82577071Y-83075919D01*
X82605911Y-83119083D01*
X82605913Y-83119085D01*
X82605914Y-83119086D01*
X82649081Y-83147929D01*
X82687145Y-83155500D01*
X84212854Y-83155499D01*
X84250919Y-83147929D01*
X84294086Y-83119086D01*
X84322929Y-83075919D01*
X84330500Y-83037855D01*
X84330499Y-82112146D01*
X84330170Y-82110494D01*
X84328084Y-82100001D01*
X84322929Y-82074081D01*
X84303164Y-82044500D01*
X84294088Y-82030916D01*
X84294085Y-82030913D01*
X84250107Y-82001528D01*
X84218641Y-81954436D01*
X84229690Y-81898887D01*
X84250108Y-81878469D01*
X84250915Y-81877929D01*
X84250919Y-81877929D01*
X84294086Y-81849086D01*
X84322929Y-81805919D01*
X84330500Y-81767855D01*
X84330499Y-80842146D01*
X84322929Y-80804081D01*
X84313314Y-80789692D01*
X84294088Y-80760916D01*
X84294085Y-80760913D01*
X84250107Y-80731528D01*
X84218641Y-80684436D01*
X84229690Y-80628887D01*
X84250108Y-80608469D01*
X84250915Y-80607929D01*
X84250919Y-80607929D01*
X84294086Y-80579086D01*
X84322929Y-80535919D01*
X84330500Y-80497855D01*
X84330499Y-79572146D01*
X84322929Y-79534081D01*
X84313314Y-79519692D01*
X84294088Y-79490916D01*
X84294085Y-79490913D01*
X84250107Y-79461528D01*
X84218641Y-79414436D01*
X84229690Y-79358887D01*
X84250108Y-79338469D01*
X84250915Y-79337929D01*
X84250919Y-79337929D01*
X84294086Y-79309086D01*
X84322929Y-79265919D01*
X84330500Y-79227855D01*
X84330499Y-78302146D01*
X84322929Y-78264081D01*
X84299823Y-78229500D01*
X84294088Y-78220916D01*
X84294085Y-78220913D01*
X84250107Y-78191528D01*
X84218641Y-78144436D01*
X84229690Y-78088887D01*
X84250108Y-78068469D01*
X84250915Y-78067929D01*
X84250919Y-78067929D01*
X84294086Y-78039086D01*
X84322929Y-77995919D01*
X84330500Y-77957855D01*
X84330499Y-77032146D01*
X84322929Y-76994081D01*
X84313314Y-76979692D01*
X84294088Y-76950916D01*
X84294085Y-76950913D01*
X84250107Y-76921528D01*
X84218641Y-76874436D01*
X84229690Y-76818887D01*
X84250108Y-76798469D01*
X84250915Y-76797929D01*
X84250919Y-76797929D01*
X84294086Y-76769086D01*
X84322929Y-76725919D01*
X84330500Y-76687855D01*
X84330500Y-76529500D01*
X84352174Y-76477174D01*
X84404500Y-76455500D01*
X85470500Y-76455500D01*
X85522826Y-76477174D01*
X85544500Y-76529500D01*
X85544500Y-82650823D01*
X85583395Y-82744726D01*
X85583398Y-82744730D01*
X85665678Y-82827010D01*
X85665680Y-82827011D01*
X93447826Y-90609157D01*
X93469500Y-90661483D01*
X93469500Y-90756678D01*
X93498836Y-90866163D01*
X93498838Y-90866168D01*
X93555514Y-90964333D01*
X93635667Y-91044486D01*
X93733833Y-91101162D01*
X93733834Y-91101162D01*
X93733836Y-91101163D01*
X93788578Y-91115831D01*
X93843321Y-91130499D01*
X93843322Y-91130500D01*
X93843324Y-91130500D01*
X93956678Y-91130500D01*
X93956678Y-91130499D01*
X94066167Y-91101162D01*
X94164333Y-91044486D01*
X94244486Y-90964333D01*
X94301162Y-90866167D01*
X94330499Y-90756678D01*
X94330500Y-90756678D01*
X94330500Y-90643322D01*
X94330499Y-90643321D01*
X94301163Y-90533836D01*
X94301161Y-90533831D01*
X94244485Y-90435666D01*
X94164333Y-90355514D01*
X94066168Y-90298838D01*
X94066163Y-90298836D01*
X93956678Y-90269500D01*
X93956676Y-90269500D01*
X93861483Y-90269500D01*
X93809157Y-90247826D01*
X86077174Y-82515843D01*
X86055500Y-82463517D01*
X86055500Y-76149178D01*
X86055499Y-76149176D01*
X86049971Y-76135831D01*
X86016603Y-76055271D01*
X85944729Y-75983397D01*
X85944728Y-75983396D01*
X85944726Y-75983395D01*
X85850822Y-75944500D01*
X84404499Y-75944500D01*
X84352173Y-75922826D01*
X84330499Y-75870500D01*
X84330499Y-75762145D01*
X84325233Y-75735667D01*
X84322929Y-75724081D01*
X84313314Y-75709692D01*
X84294088Y-75680916D01*
X84294085Y-75680913D01*
X84250107Y-75651528D01*
X84218641Y-75604436D01*
X84229690Y-75548887D01*
X84250108Y-75528469D01*
X84250915Y-75527929D01*
X84250919Y-75527929D01*
X84294086Y-75499086D01*
X84322929Y-75455919D01*
X84330500Y-75417855D01*
X84330499Y-74492146D01*
X84323375Y-74456323D01*
X84323375Y-74456321D01*
X84322929Y-74454082D01*
X84322929Y-74454081D01*
X84319652Y-74449176D01*
X87444500Y-74449176D01*
X87444500Y-74449178D01*
X87444500Y-80749177D01*
X87444500Y-80850823D01*
X87455892Y-80878327D01*
X87483397Y-80944729D01*
X87555271Y-81016603D01*
X87565678Y-81027010D01*
X87565680Y-81027011D01*
X97397826Y-90859158D01*
X97419500Y-90911484D01*
X97419500Y-93522854D01*
X97427071Y-93560919D01*
X97455911Y-93604083D01*
X97455913Y-93604085D01*
X97455914Y-93604086D01*
X97499081Y-93632929D01*
X97537145Y-93640500D01*
X101062854Y-93640499D01*
X101100919Y-93632929D01*
X101144086Y-93604086D01*
X101172929Y-93560919D01*
X101180500Y-93522855D01*
X101180499Y-90695809D01*
X103300000Y-90695809D01*
X103300000Y-91510000D01*
X104800000Y-91510000D01*
X104800000Y-92010000D01*
X103300001Y-92010000D01*
X103300001Y-92824190D01*
X103310398Y-92956323D01*
X103310400Y-92956335D01*
X103365376Y-93174514D01*
X103365379Y-93174522D01*
X103458430Y-93379379D01*
X103586563Y-93564329D01*
X103745670Y-93723436D01*
X103930620Y-93851569D01*
X104135477Y-93944620D01*
X104135485Y-93944623D01*
X104353667Y-93999599D01*
X104353662Y-93999599D01*
X104485809Y-94009999D01*
X105050000Y-94009999D01*
X105050000Y-93193012D01*
X105107007Y-93225925D01*
X105234174Y-93260000D01*
X105365826Y-93260000D01*
X105492993Y-93225925D01*
X105550000Y-93193012D01*
X105550000Y-94009999D01*
X106114191Y-94009999D01*
X106246323Y-93999601D01*
X106246335Y-93999599D01*
X106464514Y-93944623D01*
X106464522Y-93944620D01*
X106669379Y-93851569D01*
X106854329Y-93723436D01*
X107013436Y-93564329D01*
X107141569Y-93379379D01*
X107234620Y-93174522D01*
X107234623Y-93174514D01*
X107289599Y-92956334D01*
X107300000Y-92824190D01*
X107300000Y-92010000D01*
X105800000Y-92010000D01*
X105800000Y-91510000D01*
X107299999Y-91510000D01*
X107299999Y-90695809D01*
X107289601Y-90563676D01*
X107289599Y-90563664D01*
X107234623Y-90345485D01*
X107234620Y-90345477D01*
X107141569Y-90140620D01*
X107013436Y-89955670D01*
X106854329Y-89796563D01*
X106669379Y-89668430D01*
X106464522Y-89575379D01*
X106464514Y-89575376D01*
X106246332Y-89520400D01*
X106246337Y-89520400D01*
X106114190Y-89510000D01*
X105550000Y-89510000D01*
X105550000Y-90326988D01*
X105492993Y-90294075D01*
X105365826Y-90260000D01*
X105234174Y-90260000D01*
X105107007Y-90294075D01*
X105050000Y-90326988D01*
X105050000Y-89510000D01*
X104485809Y-89510000D01*
X104353676Y-89520398D01*
X104353664Y-89520400D01*
X104135485Y-89575376D01*
X104135477Y-89575379D01*
X103930620Y-89668430D01*
X103745670Y-89796563D01*
X103586563Y-89955670D01*
X103458430Y-90140620D01*
X103365379Y-90345477D01*
X103365376Y-90345485D01*
X103310400Y-90563665D01*
X103300000Y-90695809D01*
X101180499Y-90695809D01*
X101180499Y-89997146D01*
X101172929Y-89959081D01*
X101163314Y-89944692D01*
X101144088Y-89915916D01*
X101144085Y-89915913D01*
X101100919Y-89887071D01*
X101062855Y-89879500D01*
X101062854Y-89879500D01*
X97537145Y-89879500D01*
X97499080Y-89887071D01*
X97455916Y-89915911D01*
X97455913Y-89915914D01*
X97427071Y-89959080D01*
X97419793Y-89995669D01*
X97388326Y-90042760D01*
X97332777Y-90053809D01*
X97294889Y-90033557D01*
X93387987Y-86126655D01*
X100419500Y-86126655D01*
X100419500Y-87993326D01*
X100419501Y-87993345D01*
X100430165Y-88113298D01*
X100430167Y-88113309D01*
X100486421Y-88309911D01*
X100486424Y-88309918D01*
X100581104Y-88491170D01*
X100581106Y-88491173D01*
X100710336Y-88649662D01*
X100710337Y-88649663D01*
X100868826Y-88778893D01*
X100868829Y-88778895D01*
X101050081Y-88873575D01*
X101050088Y-88873578D01*
X101246690Y-88929832D01*
X101246692Y-88929832D01*
X101246695Y-88929833D01*
X101366671Y-88940500D01*
X103233328Y-88940499D01*
X103233330Y-88940498D01*
X103233345Y-88940498D01*
X103353298Y-88929834D01*
X103353302Y-88929833D01*
X103353305Y-88929833D01*
X103353307Y-88929832D01*
X103353309Y-88929832D01*
X103549911Y-88873578D01*
X103549911Y-88873577D01*
X103549914Y-88873577D01*
X103731173Y-88778894D01*
X103889663Y-88649663D01*
X104018894Y-88491173D01*
X104113577Y-88309914D01*
X104169833Y-88113305D01*
X104176776Y-88035207D01*
X104180499Y-87993344D01*
X104180499Y-87993340D01*
X104180500Y-87993329D01*
X104180499Y-86126672D01*
X104180498Y-86126670D01*
X104180498Y-86126654D01*
X104169834Y-86006701D01*
X104169832Y-86006690D01*
X104113578Y-85810088D01*
X104113575Y-85810081D01*
X104018895Y-85628829D01*
X104018893Y-85628826D01*
X103889663Y-85470337D01*
X103889662Y-85470336D01*
X103731173Y-85341106D01*
X103731170Y-85341104D01*
X103549918Y-85246424D01*
X103549911Y-85246421D01*
X103353309Y-85190167D01*
X103353298Y-85190166D01*
X103233336Y-85179500D01*
X101366673Y-85179500D01*
X101366654Y-85179501D01*
X101246701Y-85190165D01*
X101246690Y-85190167D01*
X101050088Y-85246421D01*
X101050081Y-85246424D01*
X100868829Y-85341104D01*
X100868826Y-85341106D01*
X100710337Y-85470336D01*
X100710336Y-85470337D01*
X100581106Y-85628826D01*
X100581104Y-85628829D01*
X100486424Y-85810081D01*
X100486421Y-85810088D01*
X100430167Y-86006690D01*
X100430166Y-86006701D01*
X100419500Y-86126655D01*
X93387987Y-86126655D01*
X87977174Y-80715842D01*
X87955500Y-80663516D01*
X87955500Y-76863885D01*
X89769500Y-76863885D01*
X89769500Y-78936114D01*
X89780276Y-79010073D01*
X89832491Y-79116880D01*
X89836049Y-79124157D01*
X89925843Y-79213951D01*
X90039928Y-79269724D01*
X90113890Y-79280500D01*
X90113896Y-79280500D01*
X91486104Y-79280500D01*
X91486110Y-79280500D01*
X91560072Y-79269724D01*
X91674157Y-79213951D01*
X91763951Y-79124157D01*
X91819724Y-79010072D01*
X91830500Y-78936110D01*
X91830500Y-78825896D01*
X91836133Y-78797577D01*
X91855500Y-78750823D01*
X91855500Y-78649178D01*
X91842007Y-78616603D01*
X91836133Y-78602421D01*
X91830500Y-78574103D01*
X91830500Y-78229500D01*
X91852174Y-78177174D01*
X91904500Y-78155500D01*
X97495500Y-78155500D01*
X97547826Y-78177174D01*
X97569500Y-78229500D01*
X97569500Y-78996114D01*
X97580276Y-79070073D01*
X97614775Y-79140641D01*
X97636049Y-79184157D01*
X97725843Y-79273951D01*
X97839928Y-79329724D01*
X97913890Y-79340500D01*
X97913896Y-79340500D01*
X99286104Y-79340500D01*
X99286110Y-79340500D01*
X99360072Y-79329724D01*
X99474157Y-79273951D01*
X99563951Y-79184157D01*
X99619724Y-79070072D01*
X99630500Y-78996110D01*
X99630500Y-78701509D01*
X102800000Y-78701509D01*
X102800000Y-78850000D01*
X103500000Y-78850000D01*
X103500000Y-79350000D01*
X102800000Y-79350000D01*
X102800000Y-79498490D01*
X102838427Y-79691682D01*
X102838430Y-79691693D01*
X102913809Y-79873675D01*
X103023246Y-80037459D01*
X103162540Y-80176753D01*
X103326324Y-80286190D01*
X103508306Y-80361569D01*
X103508317Y-80361572D01*
X103549999Y-80369863D01*
X103550000Y-80369863D01*
X103550000Y-79566988D01*
X103559940Y-79584205D01*
X103615795Y-79640060D01*
X103684204Y-79679556D01*
X103760504Y-79700000D01*
X103839496Y-79700000D01*
X103915796Y-79679556D01*
X103984205Y-79640060D01*
X104040060Y-79584205D01*
X104050000Y-79566988D01*
X104050000Y-80369863D01*
X104091682Y-80361572D01*
X104091693Y-80361569D01*
X104273675Y-80286190D01*
X104437459Y-80176753D01*
X104576753Y-80037459D01*
X104686190Y-79873675D01*
X104761569Y-79691693D01*
X104761572Y-79691682D01*
X104800000Y-79498490D01*
X104800000Y-79350000D01*
X104100000Y-79350000D01*
X104100000Y-78850000D01*
X104800000Y-78850000D01*
X104800000Y-78701509D01*
X104761572Y-78508317D01*
X104761569Y-78508306D01*
X104686190Y-78326324D01*
X104576753Y-78162540D01*
X104437459Y-78023246D01*
X104273675Y-77913809D01*
X104091691Y-77838429D01*
X104091684Y-77838427D01*
X104050000Y-77830136D01*
X104050000Y-78633011D01*
X104040060Y-78615795D01*
X103984205Y-78559940D01*
X103915796Y-78520444D01*
X103839496Y-78500000D01*
X103760504Y-78500000D01*
X103684204Y-78520444D01*
X103615795Y-78559940D01*
X103559940Y-78615795D01*
X103550000Y-78633011D01*
X103550000Y-77830136D01*
X103549999Y-77830136D01*
X103508315Y-77838427D01*
X103508308Y-77838429D01*
X103326324Y-77913809D01*
X103162540Y-78023246D01*
X103023246Y-78162540D01*
X102913809Y-78326324D01*
X102838430Y-78508306D01*
X102838427Y-78508317D01*
X102800000Y-78701509D01*
X99630500Y-78701509D01*
X99630500Y-76923890D01*
X99619724Y-76849928D01*
X99563951Y-76735843D01*
X99474157Y-76646049D01*
X99431674Y-76625280D01*
X99360073Y-76590276D01*
X99286114Y-76579500D01*
X99286110Y-76579500D01*
X97913890Y-76579500D01*
X97913885Y-76579500D01*
X97839926Y-76590276D01*
X97725842Y-76646049D01*
X97636049Y-76735842D01*
X97580276Y-76849926D01*
X97569500Y-76923885D01*
X97569500Y-77570500D01*
X97547826Y-77622826D01*
X97495500Y-77644500D01*
X91904500Y-77644500D01*
X91852174Y-77622826D01*
X91830500Y-77570500D01*
X91830500Y-77261483D01*
X91852174Y-77209157D01*
X93409157Y-75652174D01*
X93461483Y-75630500D01*
X93556678Y-75630500D01*
X93556678Y-75630499D01*
X93666167Y-75601162D01*
X93764333Y-75544486D01*
X93844486Y-75464333D01*
X93901162Y-75366167D01*
X93930499Y-75256678D01*
X93930500Y-75256678D01*
X93930500Y-75143322D01*
X93930499Y-75143321D01*
X93901163Y-75033836D01*
X93901161Y-75033831D01*
X93875558Y-74989485D01*
X93844486Y-74935667D01*
X93764333Y-74855514D01*
X93750636Y-74847606D01*
X93666168Y-74798838D01*
X93666163Y-74798836D01*
X93556678Y-74769500D01*
X93556676Y-74769500D01*
X93443324Y-74769500D01*
X93443322Y-74769500D01*
X93333836Y-74798836D01*
X93333831Y-74798838D01*
X93235666Y-74855514D01*
X93155514Y-74935666D01*
X93098838Y-75033831D01*
X93098836Y-75033836D01*
X93069500Y-75143321D01*
X93069500Y-75238515D01*
X93047826Y-75290841D01*
X91764215Y-76574452D01*
X91711889Y-76596126D01*
X91679388Y-76588607D01*
X91674158Y-76586050D01*
X91674157Y-76586049D01*
X91560072Y-76530276D01*
X91554746Y-76529500D01*
X91486114Y-76519500D01*
X91486110Y-76519500D01*
X90113890Y-76519500D01*
X90113885Y-76519500D01*
X90039926Y-76530276D01*
X89925842Y-76586049D01*
X89836049Y-76675842D01*
X89780276Y-76789926D01*
X89769500Y-76863885D01*
X87955500Y-76863885D01*
X87955500Y-74636483D01*
X87977174Y-74584157D01*
X88384157Y-74177174D01*
X88436483Y-74155500D01*
X89695500Y-74155500D01*
X89747826Y-74177174D01*
X89769500Y-74229500D01*
X89769500Y-74936114D01*
X89780276Y-75010073D01*
X89809608Y-75070072D01*
X89836049Y-75124157D01*
X89925843Y-75213951D01*
X90039928Y-75269724D01*
X90113890Y-75280500D01*
X90113896Y-75280500D01*
X91486104Y-75280500D01*
X91486110Y-75280500D01*
X91560072Y-75269724D01*
X91674157Y-75213951D01*
X91763951Y-75124157D01*
X91819724Y-75010072D01*
X91830500Y-74936110D01*
X91830500Y-72863890D01*
X91819724Y-72789928D01*
X91763951Y-72675843D01*
X91674157Y-72586049D01*
X91656003Y-72577174D01*
X91560073Y-72530276D01*
X91486114Y-72519500D01*
X91486110Y-72519500D01*
X90113890Y-72519500D01*
X90113885Y-72519500D01*
X90039926Y-72530276D01*
X89925842Y-72586049D01*
X89836049Y-72675842D01*
X89780276Y-72789926D01*
X89769500Y-72863885D01*
X89769500Y-73570500D01*
X89747826Y-73622826D01*
X89695500Y-73644500D01*
X88249176Y-73644500D01*
X88237784Y-73649218D01*
X88221672Y-73655892D01*
X88192712Y-73667887D01*
X88155274Y-73683395D01*
X88155272Y-73683396D01*
X87483395Y-74355273D01*
X87444500Y-74449176D01*
X84319652Y-74449176D01*
X84308459Y-74432425D01*
X84294088Y-74410916D01*
X84294085Y-74410913D01*
X84250107Y-74381528D01*
X84218641Y-74334436D01*
X84229690Y-74278887D01*
X84250108Y-74258469D01*
X84250915Y-74257929D01*
X84250919Y-74257929D01*
X84294086Y-74229086D01*
X84322929Y-74185919D01*
X84330500Y-74147855D01*
X84330499Y-73222146D01*
X84322929Y-73184081D01*
X84310358Y-73165267D01*
X84294088Y-73140916D01*
X84294085Y-73140913D01*
X84250107Y-73111528D01*
X84218641Y-73064436D01*
X84229690Y-73008887D01*
X84250108Y-72988469D01*
X84250915Y-72987929D01*
X84250919Y-72987929D01*
X84294086Y-72959086D01*
X84322929Y-72915919D01*
X84330500Y-72877855D01*
X84330499Y-71952146D01*
X84322929Y-71914081D01*
X84313314Y-71899692D01*
X84294088Y-71870916D01*
X84294085Y-71870913D01*
X84250107Y-71841528D01*
X84218641Y-71794436D01*
X84229690Y-71738887D01*
X84250108Y-71718469D01*
X84250915Y-71717929D01*
X84250919Y-71717929D01*
X84294086Y-71689086D01*
X84322929Y-71645919D01*
X84330500Y-71607855D01*
X84330499Y-70682146D01*
X84322929Y-70644081D01*
X84313314Y-70629692D01*
X84294088Y-70600916D01*
X84294085Y-70600913D01*
X84250107Y-70571528D01*
X84218641Y-70524436D01*
X84229690Y-70468887D01*
X84250108Y-70448469D01*
X84250915Y-70447929D01*
X84250919Y-70447929D01*
X84294086Y-70419086D01*
X84322929Y-70375919D01*
X84330500Y-70337855D01*
X84330499Y-69412146D01*
X84322929Y-69374081D01*
X84313314Y-69359692D01*
X84294088Y-69330916D01*
X84294085Y-69330913D01*
X84250107Y-69301528D01*
X84218641Y-69254436D01*
X84229690Y-69198887D01*
X84250108Y-69178469D01*
X84250915Y-69177929D01*
X84250919Y-69177929D01*
X84294086Y-69149086D01*
X84322929Y-69105919D01*
X84330500Y-69067855D01*
X84330500Y-68909500D01*
X84352174Y-68857174D01*
X84404500Y-68835500D01*
X91778872Y-68835500D01*
X91831198Y-68857174D01*
X94349401Y-71375377D01*
X94371075Y-71427703D01*
X94369660Y-71438452D01*
X94370133Y-71438515D01*
X94369500Y-71443323D01*
X94369500Y-71556678D01*
X94398836Y-71666163D01*
X94398838Y-71666168D01*
X94433093Y-71725499D01*
X94455514Y-71764333D01*
X94535667Y-71844486D01*
X94633833Y-71901162D01*
X94633834Y-71901162D01*
X94633836Y-71901163D01*
X94682040Y-71914079D01*
X94743321Y-71930499D01*
X94743322Y-71930500D01*
X94743324Y-71930500D01*
X94856678Y-71930500D01*
X94856678Y-71930499D01*
X94966167Y-71901162D01*
X95064333Y-71844486D01*
X95144486Y-71764333D01*
X95201162Y-71666167D01*
X95230499Y-71556678D01*
X95230500Y-71556678D01*
X95230500Y-71443322D01*
X95230499Y-71443321D01*
X95229194Y-71438452D01*
X95201162Y-71333833D01*
X95144486Y-71235667D01*
X95064333Y-71155514D01*
X95053355Y-71149176D01*
X94966168Y-71098838D01*
X94966163Y-71098836D01*
X94856678Y-71069500D01*
X94856676Y-71069500D01*
X94743324Y-71069500D01*
X94743323Y-71069500D01*
X94738515Y-71070133D01*
X94738156Y-71067411D01*
X94690692Y-71061154D01*
X94675377Y-71049401D01*
X92110817Y-68484841D01*
X92110817Y-68484840D01*
X92100409Y-68474432D01*
X92035568Y-68409591D01*
X92035566Y-68409590D01*
X92035564Y-68409589D01*
X92000476Y-68395055D01*
X92000476Y-68395054D01*
X91950850Y-68374499D01*
X91859150Y-68374499D01*
X91850538Y-68374499D01*
X91850530Y-68374500D01*
X84404499Y-68374500D01*
X84352173Y-68352826D01*
X84330499Y-68300500D01*
X84330499Y-68142145D01*
X84328993Y-68134575D01*
X84322929Y-68104081D01*
X84313314Y-68089692D01*
X84294088Y-68060916D01*
X84294085Y-68060913D01*
X84250107Y-68031528D01*
X84218641Y-67984436D01*
X84229690Y-67928887D01*
X84250108Y-67908469D01*
X84250915Y-67907929D01*
X84250919Y-67907929D01*
X84294086Y-67879086D01*
X84322929Y-67835919D01*
X84330500Y-67797855D01*
X84330499Y-67051351D01*
X84352173Y-66999026D01*
X84378640Y-66982017D01*
X84442089Y-66958352D01*
X84557188Y-66872188D01*
X84643353Y-66757088D01*
X84643354Y-66757087D01*
X84693596Y-66622380D01*
X84693597Y-66622375D01*
X84700000Y-66562828D01*
X84700000Y-66315000D01*
X82200000Y-66315000D01*
X82200000Y-66562828D01*
X82206402Y-66622375D01*
X82206403Y-66622380D01*
X82256645Y-66757087D01*
X82256646Y-66757088D01*
X82342811Y-66872188D01*
X82457909Y-66958351D01*
X82521360Y-66982017D01*
X82562812Y-67020611D01*
X82569500Y-67051352D01*
X82569500Y-67797854D01*
X82577071Y-67835919D01*
X82605911Y-67879083D01*
X82605914Y-67879086D01*
X82649892Y-67908471D01*
X82681358Y-67955563D01*
X82670309Y-68011112D01*
X82649892Y-68031529D01*
X82605914Y-68060913D01*
X82605913Y-68060914D01*
X82577071Y-68104080D01*
X82569500Y-68142145D01*
X82569500Y-69067854D01*
X82577071Y-69105919D01*
X82605911Y-69149083D01*
X82605914Y-69149086D01*
X82649892Y-69178471D01*
X82681358Y-69225563D01*
X82670309Y-69281112D01*
X82649892Y-69301529D01*
X82605914Y-69330913D01*
X82605913Y-69330914D01*
X82577071Y-69374080D01*
X82569500Y-69412145D01*
X82569500Y-70337854D01*
X82577071Y-70375919D01*
X82605911Y-70419083D01*
X82605914Y-70419086D01*
X82649892Y-70448471D01*
X82681358Y-70495563D01*
X82670309Y-70551112D01*
X82649892Y-70571529D01*
X82605914Y-70600913D01*
X82605913Y-70600914D01*
X82577071Y-70644080D01*
X82569500Y-70682145D01*
X82569500Y-71607854D01*
X82577071Y-71645919D01*
X82605911Y-71689083D01*
X82605914Y-71689086D01*
X82649892Y-71718471D01*
X82681358Y-71765563D01*
X82670309Y-71821112D01*
X82649892Y-71841529D01*
X82605914Y-71870913D01*
X82605913Y-71870914D01*
X82577071Y-71914080D01*
X82569500Y-71952145D01*
X82569500Y-72085500D01*
X82547826Y-72137826D01*
X82495500Y-72159500D01*
X81151483Y-72159500D01*
X81099157Y-72137826D01*
X76162011Y-67200680D01*
X76162011Y-67200679D01*
X76079730Y-67118398D01*
X76079726Y-67118395D01*
X75995233Y-67083398D01*
X75985823Y-67079500D01*
X67002590Y-67079500D01*
X66950264Y-67057826D01*
X66928590Y-67005500D01*
X66950264Y-66953174D01*
X66958243Y-66946260D01*
X67057188Y-66872188D01*
X67143353Y-66757088D01*
X67143354Y-66757087D01*
X67193596Y-66622380D01*
X67193597Y-66622375D01*
X67200000Y-66562828D01*
X67200000Y-66315000D01*
X64700000Y-66315000D01*
X64700000Y-66562828D01*
X64706402Y-66622375D01*
X64706403Y-66622380D01*
X64756645Y-66757087D01*
X64756646Y-66757088D01*
X64842811Y-66872188D01*
X64941757Y-66946260D01*
X64970657Y-66994969D01*
X64956650Y-67049847D01*
X64907941Y-67078747D01*
X64897410Y-67079500D01*
X62811484Y-67079500D01*
X62759159Y-67057826D01*
X62744730Y-67043397D01*
X62650823Y-67004499D01*
X62549178Y-67004499D01*
X62466206Y-67038867D01*
X62437889Y-67044500D01*
X58449176Y-67044500D01*
X58437784Y-67049218D01*
X58421672Y-67055892D01*
X58392712Y-67067887D01*
X58355274Y-67083395D01*
X58355272Y-67083396D01*
X58283396Y-67155272D01*
X53265843Y-72172826D01*
X53213517Y-72194500D01*
X52898120Y-72194500D01*
X52881606Y-72196416D01*
X52874666Y-72197221D01*
X52778732Y-72239580D01*
X52704580Y-72313732D01*
X52662925Y-72408073D01*
X52662221Y-72409667D01*
X52659501Y-72433118D01*
X52659500Y-72433123D01*
X52659500Y-73338517D01*
X52637826Y-73390843D01*
X52405843Y-73622826D01*
X52353517Y-73644500D01*
X47629500Y-73644500D01*
X47577174Y-73622826D01*
X47555500Y-73570500D01*
X47555500Y-73400780D01*
X47577174Y-73348454D01*
X47618829Y-73327554D01*
X47672572Y-73319724D01*
X47786657Y-73263951D01*
X47876451Y-73174157D01*
X47932224Y-73060072D01*
X47943000Y-72986110D01*
X47943000Y-72013890D01*
X47932224Y-71939928D01*
X47876451Y-71825843D01*
X47786657Y-71736049D01*
X47749592Y-71717929D01*
X47672573Y-71680276D01*
X47598614Y-71669500D01*
X47598610Y-71669500D01*
X47001390Y-71669500D01*
X47001385Y-71669500D01*
X46927426Y-71680276D01*
X46813342Y-71736049D01*
X46723549Y-71825842D01*
X46667776Y-71939926D01*
X46657000Y-72013885D01*
X41988000Y-72013885D01*
X41988000Y-71529500D01*
X42009674Y-71477174D01*
X42062000Y-71455500D01*
X48870500Y-71455500D01*
X48922826Y-71477174D01*
X48944500Y-71529500D01*
X48944500Y-71595500D01*
X48922826Y-71647826D01*
X48870500Y-71669500D01*
X48826385Y-71669500D01*
X48752426Y-71680276D01*
X48638342Y-71736049D01*
X48548549Y-71825842D01*
X48492776Y-71939926D01*
X48482000Y-72013885D01*
X48482000Y-72986114D01*
X48492776Y-73060073D01*
X48537724Y-73152015D01*
X48548549Y-73174157D01*
X48638343Y-73263951D01*
X48752428Y-73319724D01*
X48826390Y-73330500D01*
X48826396Y-73330500D01*
X49423604Y-73330500D01*
X49423610Y-73330500D01*
X49497572Y-73319724D01*
X49611657Y-73263951D01*
X49701451Y-73174157D01*
X49757224Y-73060072D01*
X49768000Y-72986110D01*
X49768000Y-72013890D01*
X49757224Y-71939928D01*
X49701451Y-71825843D01*
X49611657Y-71736049D01*
X49575697Y-71718469D01*
X49496999Y-71679995D01*
X49459509Y-71637541D01*
X49455500Y-71613514D01*
X49455500Y-71149177D01*
X49416604Y-71055273D01*
X49416602Y-71055270D01*
X49344730Y-70983398D01*
X49344726Y-70983395D01*
X49250822Y-70944500D01*
X41750823Y-70944500D01*
X41649177Y-70944500D01*
X41649176Y-70944500D01*
X41637784Y-70949218D01*
X41621672Y-70955892D01*
X41592712Y-70967887D01*
X41555274Y-70983395D01*
X41555272Y-70983396D01*
X41483397Y-71055270D01*
X41483395Y-71055273D01*
X41444500Y-71149177D01*
X41444500Y-71250821D01*
X41444499Y-71250821D01*
X41449729Y-71263447D01*
X41471367Y-71315686D01*
X41477000Y-71344003D01*
X41477000Y-74701040D01*
X41455326Y-74753366D01*
X41413670Y-74774267D01*
X41372426Y-74780276D01*
X41258342Y-74836049D01*
X41168549Y-74925842D01*
X41112776Y-75039926D01*
X41102000Y-75113885D01*
X39333663Y-75113885D01*
X39227110Y-67051352D01*
X39200991Y-65074978D01*
X39221972Y-65022370D01*
X39274007Y-65000006D01*
X39274985Y-65000000D01*
X65007960Y-65000000D01*
X65060286Y-65021674D01*
G37*
%TD.AperFunction*%
%TD*%
M02*
