%TF.GenerationSoftware,KiCad,Pcbnew,9.0.7*%
%TF.CreationDate,2026-04-29T13:09:46+03:00*%
%TF.ProjectId,PawsLink IoT,50617773-4c69-46e6-9b20-496f542e6b69,rev?*%
%TF.SameCoordinates,Original*%
%TF.FileFunction,Legend,Top*%
%TF.FilePolarity,Positive*%
%FSLAX46Y46*%
G04 Gerber Fmt 4.6, Leading zero omitted, Abs format (unit mm)*
G04 Created by KiCad (PCBNEW 9.0.7) date 2026-04-29 13:09:46*
%MOMM*%
%LPD*%
G01*
G04 APERTURE LIST*
%ADD10C,0.150000*%
%ADD11C,0.120000*%
G04 APERTURE END LIST*
D10*
X67738095Y-90254819D02*
X67738095Y-91064342D01*
X67738095Y-91064342D02*
X67785714Y-91159580D01*
X67785714Y-91159580D02*
X67833333Y-91207200D01*
X67833333Y-91207200D02*
X67928571Y-91254819D01*
X67928571Y-91254819D02*
X68119047Y-91254819D01*
X68119047Y-91254819D02*
X68214285Y-91207200D01*
X68214285Y-91207200D02*
X68261904Y-91159580D01*
X68261904Y-91159580D02*
X68309523Y-91064342D01*
X68309523Y-91064342D02*
X68309523Y-90254819D01*
X68738095Y-90350057D02*
X68785714Y-90302438D01*
X68785714Y-90302438D02*
X68880952Y-90254819D01*
X68880952Y-90254819D02*
X69119047Y-90254819D01*
X69119047Y-90254819D02*
X69214285Y-90302438D01*
X69214285Y-90302438D02*
X69261904Y-90350057D01*
X69261904Y-90350057D02*
X69309523Y-90445295D01*
X69309523Y-90445295D02*
X69309523Y-90540533D01*
X69309523Y-90540533D02*
X69261904Y-90683390D01*
X69261904Y-90683390D02*
X68690476Y-91254819D01*
X68690476Y-91254819D02*
X69309523Y-91254819D01*
X107786666Y-71859819D02*
X107786666Y-72574104D01*
X107786666Y-72574104D02*
X107739047Y-72716961D01*
X107739047Y-72716961D02*
X107643809Y-72812200D01*
X107643809Y-72812200D02*
X107500952Y-72859819D01*
X107500952Y-72859819D02*
X107405714Y-72859819D01*
X108215238Y-71955057D02*
X108262857Y-71907438D01*
X108262857Y-71907438D02*
X108358095Y-71859819D01*
X108358095Y-71859819D02*
X108596190Y-71859819D01*
X108596190Y-71859819D02*
X108691428Y-71907438D01*
X108691428Y-71907438D02*
X108739047Y-71955057D01*
X108739047Y-71955057D02*
X108786666Y-72050295D01*
X108786666Y-72050295D02*
X108786666Y-72145533D01*
X108786666Y-72145533D02*
X108739047Y-72288390D01*
X108739047Y-72288390D02*
X108167619Y-72859819D01*
X108167619Y-72859819D02*
X108786666Y-72859819D01*
X108785833Y-66304819D02*
X108452500Y-65828628D01*
X108214405Y-66304819D02*
X108214405Y-65304819D01*
X108214405Y-65304819D02*
X108595357Y-65304819D01*
X108595357Y-65304819D02*
X108690595Y-65352438D01*
X108690595Y-65352438D02*
X108738214Y-65400057D01*
X108738214Y-65400057D02*
X108785833Y-65495295D01*
X108785833Y-65495295D02*
X108785833Y-65638152D01*
X108785833Y-65638152D02*
X108738214Y-65733390D01*
X108738214Y-65733390D02*
X108690595Y-65781009D01*
X108690595Y-65781009D02*
X108595357Y-65828628D01*
X108595357Y-65828628D02*
X108214405Y-65828628D01*
X109119167Y-65304819D02*
X109785833Y-65304819D01*
X109785833Y-65304819D02*
X109357262Y-66304819D01*
X52645833Y-82104819D02*
X52312500Y-81628628D01*
X52074405Y-82104819D02*
X52074405Y-81104819D01*
X52074405Y-81104819D02*
X52455357Y-81104819D01*
X52455357Y-81104819D02*
X52550595Y-81152438D01*
X52550595Y-81152438D02*
X52598214Y-81200057D01*
X52598214Y-81200057D02*
X52645833Y-81295295D01*
X52645833Y-81295295D02*
X52645833Y-81438152D01*
X52645833Y-81438152D02*
X52598214Y-81533390D01*
X52598214Y-81533390D02*
X52550595Y-81581009D01*
X52550595Y-81581009D02*
X52455357Y-81628628D01*
X52455357Y-81628628D02*
X52074405Y-81628628D01*
X52979167Y-81104819D02*
X53598214Y-81104819D01*
X53598214Y-81104819D02*
X53264881Y-81485771D01*
X53264881Y-81485771D02*
X53407738Y-81485771D01*
X53407738Y-81485771D02*
X53502976Y-81533390D01*
X53502976Y-81533390D02*
X53550595Y-81581009D01*
X53550595Y-81581009D02*
X53598214Y-81676247D01*
X53598214Y-81676247D02*
X53598214Y-81914342D01*
X53598214Y-81914342D02*
X53550595Y-82009580D01*
X53550595Y-82009580D02*
X53502976Y-82057200D01*
X53502976Y-82057200D02*
X53407738Y-82104819D01*
X53407738Y-82104819D02*
X53122024Y-82104819D01*
X53122024Y-82104819D02*
X53026786Y-82057200D01*
X53026786Y-82057200D02*
X52979167Y-82009580D01*
X55838095Y-70454819D02*
X55838095Y-71264342D01*
X55838095Y-71264342D02*
X55885714Y-71359580D01*
X55885714Y-71359580D02*
X55933333Y-71407200D01*
X55933333Y-71407200D02*
X56028571Y-71454819D01*
X56028571Y-71454819D02*
X56219047Y-71454819D01*
X56219047Y-71454819D02*
X56314285Y-71407200D01*
X56314285Y-71407200D02*
X56361904Y-71359580D01*
X56361904Y-71359580D02*
X56409523Y-71264342D01*
X56409523Y-71264342D02*
X56409523Y-70454819D01*
X56790476Y-70454819D02*
X57409523Y-70454819D01*
X57409523Y-70454819D02*
X57076190Y-70835771D01*
X57076190Y-70835771D02*
X57219047Y-70835771D01*
X57219047Y-70835771D02*
X57314285Y-70883390D01*
X57314285Y-70883390D02*
X57361904Y-70931009D01*
X57361904Y-70931009D02*
X57409523Y-71026247D01*
X57409523Y-71026247D02*
X57409523Y-71264342D01*
X57409523Y-71264342D02*
X57361904Y-71359580D01*
X57361904Y-71359580D02*
X57314285Y-71407200D01*
X57314285Y-71407200D02*
X57219047Y-71454819D01*
X57219047Y-71454819D02*
X56933333Y-71454819D01*
X56933333Y-71454819D02*
X56838095Y-71407200D01*
X56838095Y-71407200D02*
X56790476Y-71359580D01*
X97661905Y-72054819D02*
X97661905Y-71054819D01*
X97661905Y-71054819D02*
X97900000Y-71054819D01*
X97900000Y-71054819D02*
X98042857Y-71102438D01*
X98042857Y-71102438D02*
X98138095Y-71197676D01*
X98138095Y-71197676D02*
X98185714Y-71292914D01*
X98185714Y-71292914D02*
X98233333Y-71483390D01*
X98233333Y-71483390D02*
X98233333Y-71626247D01*
X98233333Y-71626247D02*
X98185714Y-71816723D01*
X98185714Y-71816723D02*
X98138095Y-71911961D01*
X98138095Y-71911961D02*
X98042857Y-72007200D01*
X98042857Y-72007200D02*
X97900000Y-72054819D01*
X97900000Y-72054819D02*
X97661905Y-72054819D01*
X98614286Y-71150057D02*
X98661905Y-71102438D01*
X98661905Y-71102438D02*
X98757143Y-71054819D01*
X98757143Y-71054819D02*
X98995238Y-71054819D01*
X98995238Y-71054819D02*
X99090476Y-71102438D01*
X99090476Y-71102438D02*
X99138095Y-71150057D01*
X99138095Y-71150057D02*
X99185714Y-71245295D01*
X99185714Y-71245295D02*
X99185714Y-71340533D01*
X99185714Y-71340533D02*
X99138095Y-71483390D01*
X99138095Y-71483390D02*
X98566667Y-72054819D01*
X98566667Y-72054819D02*
X99185714Y-72054819D01*
X95333333Y-105059580D02*
X95285714Y-105107200D01*
X95285714Y-105107200D02*
X95142857Y-105154819D01*
X95142857Y-105154819D02*
X95047619Y-105154819D01*
X95047619Y-105154819D02*
X94904762Y-105107200D01*
X94904762Y-105107200D02*
X94809524Y-105011961D01*
X94809524Y-105011961D02*
X94761905Y-104916723D01*
X94761905Y-104916723D02*
X94714286Y-104726247D01*
X94714286Y-104726247D02*
X94714286Y-104583390D01*
X94714286Y-104583390D02*
X94761905Y-104392914D01*
X94761905Y-104392914D02*
X94809524Y-104297676D01*
X94809524Y-104297676D02*
X94904762Y-104202438D01*
X94904762Y-104202438D02*
X95047619Y-104154819D01*
X95047619Y-104154819D02*
X95142857Y-104154819D01*
X95142857Y-104154819D02*
X95285714Y-104202438D01*
X95285714Y-104202438D02*
X95333333Y-104250057D01*
X96238095Y-104154819D02*
X95761905Y-104154819D01*
X95761905Y-104154819D02*
X95714286Y-104631009D01*
X95714286Y-104631009D02*
X95761905Y-104583390D01*
X95761905Y-104583390D02*
X95857143Y-104535771D01*
X95857143Y-104535771D02*
X96095238Y-104535771D01*
X96095238Y-104535771D02*
X96190476Y-104583390D01*
X96190476Y-104583390D02*
X96238095Y-104631009D01*
X96238095Y-104631009D02*
X96285714Y-104726247D01*
X96285714Y-104726247D02*
X96285714Y-104964342D01*
X96285714Y-104964342D02*
X96238095Y-105059580D01*
X96238095Y-105059580D02*
X96190476Y-105107200D01*
X96190476Y-105107200D02*
X96095238Y-105154819D01*
X96095238Y-105154819D02*
X95857143Y-105154819D01*
X95857143Y-105154819D02*
X95761905Y-105107200D01*
X95761905Y-105107200D02*
X95714286Y-105059580D01*
X78485984Y-90159580D02*
X78438365Y-90207200D01*
X78438365Y-90207200D02*
X78295508Y-90254819D01*
X78295508Y-90254819D02*
X78200270Y-90254819D01*
X78200270Y-90254819D02*
X78057413Y-90207200D01*
X78057413Y-90207200D02*
X77962175Y-90111961D01*
X77962175Y-90111961D02*
X77914556Y-90016723D01*
X77914556Y-90016723D02*
X77866937Y-89826247D01*
X77866937Y-89826247D02*
X77866937Y-89683390D01*
X77866937Y-89683390D02*
X77914556Y-89492914D01*
X77914556Y-89492914D02*
X77962175Y-89397676D01*
X77962175Y-89397676D02*
X78057413Y-89302438D01*
X78057413Y-89302438D02*
X78200270Y-89254819D01*
X78200270Y-89254819D02*
X78295508Y-89254819D01*
X78295508Y-89254819D02*
X78438365Y-89302438D01*
X78438365Y-89302438D02*
X78485984Y-89350057D01*
X79438365Y-90254819D02*
X78866937Y-90254819D01*
X79152651Y-90254819D02*
X79152651Y-89254819D01*
X79152651Y-89254819D02*
X79057413Y-89397676D01*
X79057413Y-89397676D02*
X78962175Y-89492914D01*
X78962175Y-89492914D02*
X78866937Y-89540533D01*
X42190476Y-72954819D02*
X42190476Y-71954819D01*
X42190476Y-71954819D02*
X42523809Y-72669104D01*
X42523809Y-72669104D02*
X42857142Y-71954819D01*
X42857142Y-71954819D02*
X42857142Y-72954819D01*
X43333333Y-72954819D02*
X43333333Y-71954819D01*
X43904761Y-72954819D02*
X43476190Y-72383390D01*
X43904761Y-71954819D02*
X43333333Y-72526247D01*
X44857142Y-72954819D02*
X44285714Y-72954819D01*
X44571428Y-72954819D02*
X44571428Y-71954819D01*
X44571428Y-71954819D02*
X44476190Y-72097676D01*
X44476190Y-72097676D02*
X44380952Y-72192914D01*
X44380952Y-72192914D02*
X44285714Y-72240533D01*
X73938095Y-85354819D02*
X73938095Y-86164342D01*
X73938095Y-86164342D02*
X73985714Y-86259580D01*
X73985714Y-86259580D02*
X74033333Y-86307200D01*
X74033333Y-86307200D02*
X74128571Y-86354819D01*
X74128571Y-86354819D02*
X74319047Y-86354819D01*
X74319047Y-86354819D02*
X74414285Y-86307200D01*
X74414285Y-86307200D02*
X74461904Y-86259580D01*
X74461904Y-86259580D02*
X74509523Y-86164342D01*
X74509523Y-86164342D02*
X74509523Y-85354819D01*
X75509523Y-86354819D02*
X74938095Y-86354819D01*
X75223809Y-86354819D02*
X75223809Y-85354819D01*
X75223809Y-85354819D02*
X75128571Y-85497676D01*
X75128571Y-85497676D02*
X75033333Y-85592914D01*
X75033333Y-85592914D02*
X74938095Y-85640533D01*
X103338095Y-100254819D02*
X103338095Y-101064342D01*
X103338095Y-101064342D02*
X103385714Y-101159580D01*
X103385714Y-101159580D02*
X103433333Y-101207200D01*
X103433333Y-101207200D02*
X103528571Y-101254819D01*
X103528571Y-101254819D02*
X103719047Y-101254819D01*
X103719047Y-101254819D02*
X103814285Y-101207200D01*
X103814285Y-101207200D02*
X103861904Y-101159580D01*
X103861904Y-101159580D02*
X103909523Y-101064342D01*
X103909523Y-101064342D02*
X103909523Y-100254819D01*
X104814285Y-100588152D02*
X104814285Y-101254819D01*
X104576190Y-100207200D02*
X104338095Y-100921485D01*
X104338095Y-100921485D02*
X104957142Y-100921485D01*
X90061905Y-71954819D02*
X90061905Y-70954819D01*
X90061905Y-70954819D02*
X90300000Y-70954819D01*
X90300000Y-70954819D02*
X90442857Y-71002438D01*
X90442857Y-71002438D02*
X90538095Y-71097676D01*
X90538095Y-71097676D02*
X90585714Y-71192914D01*
X90585714Y-71192914D02*
X90633333Y-71383390D01*
X90633333Y-71383390D02*
X90633333Y-71526247D01*
X90633333Y-71526247D02*
X90585714Y-71716723D01*
X90585714Y-71716723D02*
X90538095Y-71811961D01*
X90538095Y-71811961D02*
X90442857Y-71907200D01*
X90442857Y-71907200D02*
X90300000Y-71954819D01*
X90300000Y-71954819D02*
X90061905Y-71954819D01*
X91585714Y-71954819D02*
X91014286Y-71954819D01*
X91300000Y-71954819D02*
X91300000Y-70954819D01*
X91300000Y-70954819D02*
X91204762Y-71097676D01*
X91204762Y-71097676D02*
X91109524Y-71192914D01*
X91109524Y-71192914D02*
X91014286Y-71240533D01*
X110826666Y-99994819D02*
X110826666Y-100709104D01*
X110826666Y-100709104D02*
X110779047Y-100851961D01*
X110779047Y-100851961D02*
X110683809Y-100947200D01*
X110683809Y-100947200D02*
X110540952Y-100994819D01*
X110540952Y-100994819D02*
X110445714Y-100994819D01*
X111207619Y-99994819D02*
X111826666Y-99994819D01*
X111826666Y-99994819D02*
X111493333Y-100375771D01*
X111493333Y-100375771D02*
X111636190Y-100375771D01*
X111636190Y-100375771D02*
X111731428Y-100423390D01*
X111731428Y-100423390D02*
X111779047Y-100471009D01*
X111779047Y-100471009D02*
X111826666Y-100566247D01*
X111826666Y-100566247D02*
X111826666Y-100804342D01*
X111826666Y-100804342D02*
X111779047Y-100899580D01*
X111779047Y-100899580D02*
X111731428Y-100947200D01*
X111731428Y-100947200D02*
X111636190Y-100994819D01*
X111636190Y-100994819D02*
X111350476Y-100994819D01*
X111350476Y-100994819D02*
X111255238Y-100947200D01*
X111255238Y-100947200D02*
X111207619Y-100899580D01*
X48033333Y-70554819D02*
X47700000Y-70078628D01*
X47461905Y-70554819D02*
X47461905Y-69554819D01*
X47461905Y-69554819D02*
X47842857Y-69554819D01*
X47842857Y-69554819D02*
X47938095Y-69602438D01*
X47938095Y-69602438D02*
X47985714Y-69650057D01*
X47985714Y-69650057D02*
X48033333Y-69745295D01*
X48033333Y-69745295D02*
X48033333Y-69888152D01*
X48033333Y-69888152D02*
X47985714Y-69983390D01*
X47985714Y-69983390D02*
X47938095Y-70031009D01*
X47938095Y-70031009D02*
X47842857Y-70078628D01*
X47842857Y-70078628D02*
X47461905Y-70078628D01*
X48985714Y-70554819D02*
X48414286Y-70554819D01*
X48700000Y-70554819D02*
X48700000Y-69554819D01*
X48700000Y-69554819D02*
X48604762Y-69697676D01*
X48604762Y-69697676D02*
X48509524Y-69792914D01*
X48509524Y-69792914D02*
X48414286Y-69840533D01*
X44083333Y-81579580D02*
X44035714Y-81627200D01*
X44035714Y-81627200D02*
X43892857Y-81674819D01*
X43892857Y-81674819D02*
X43797619Y-81674819D01*
X43797619Y-81674819D02*
X43654762Y-81627200D01*
X43654762Y-81627200D02*
X43559524Y-81531961D01*
X43559524Y-81531961D02*
X43511905Y-81436723D01*
X43511905Y-81436723D02*
X43464286Y-81246247D01*
X43464286Y-81246247D02*
X43464286Y-81103390D01*
X43464286Y-81103390D02*
X43511905Y-80912914D01*
X43511905Y-80912914D02*
X43559524Y-80817676D01*
X43559524Y-80817676D02*
X43654762Y-80722438D01*
X43654762Y-80722438D02*
X43797619Y-80674819D01*
X43797619Y-80674819D02*
X43892857Y-80674819D01*
X43892857Y-80674819D02*
X44035714Y-80722438D01*
X44035714Y-80722438D02*
X44083333Y-80770057D01*
X44416667Y-80674819D02*
X45035714Y-80674819D01*
X45035714Y-80674819D02*
X44702381Y-81055771D01*
X44702381Y-81055771D02*
X44845238Y-81055771D01*
X44845238Y-81055771D02*
X44940476Y-81103390D01*
X44940476Y-81103390D02*
X44988095Y-81151009D01*
X44988095Y-81151009D02*
X45035714Y-81246247D01*
X45035714Y-81246247D02*
X45035714Y-81484342D01*
X45035714Y-81484342D02*
X44988095Y-81579580D01*
X44988095Y-81579580D02*
X44940476Y-81627200D01*
X44940476Y-81627200D02*
X44845238Y-81674819D01*
X44845238Y-81674819D02*
X44559524Y-81674819D01*
X44559524Y-81674819D02*
X44464286Y-81627200D01*
X44464286Y-81627200D02*
X44416667Y-81579580D01*
X95333333Y-101259580D02*
X95285714Y-101307200D01*
X95285714Y-101307200D02*
X95142857Y-101354819D01*
X95142857Y-101354819D02*
X95047619Y-101354819D01*
X95047619Y-101354819D02*
X94904762Y-101307200D01*
X94904762Y-101307200D02*
X94809524Y-101211961D01*
X94809524Y-101211961D02*
X94761905Y-101116723D01*
X94761905Y-101116723D02*
X94714286Y-100926247D01*
X94714286Y-100926247D02*
X94714286Y-100783390D01*
X94714286Y-100783390D02*
X94761905Y-100592914D01*
X94761905Y-100592914D02*
X94809524Y-100497676D01*
X94809524Y-100497676D02*
X94904762Y-100402438D01*
X94904762Y-100402438D02*
X95047619Y-100354819D01*
X95047619Y-100354819D02*
X95142857Y-100354819D01*
X95142857Y-100354819D02*
X95285714Y-100402438D01*
X95285714Y-100402438D02*
X95333333Y-100450057D01*
X96190476Y-100688152D02*
X96190476Y-101354819D01*
X95952381Y-100307200D02*
X95714286Y-101021485D01*
X95714286Y-101021485D02*
X96333333Y-101021485D01*
X107416666Y-85464819D02*
X107416666Y-86179104D01*
X107416666Y-86179104D02*
X107369047Y-86321961D01*
X107369047Y-86321961D02*
X107273809Y-86417200D01*
X107273809Y-86417200D02*
X107130952Y-86464819D01*
X107130952Y-86464819D02*
X107035714Y-86464819D01*
X108416666Y-86464819D02*
X107845238Y-86464819D01*
X108130952Y-86464819D02*
X108130952Y-85464819D01*
X108130952Y-85464819D02*
X108035714Y-85607676D01*
X108035714Y-85607676D02*
X107940476Y-85702914D01*
X107940476Y-85702914D02*
X107845238Y-85750533D01*
X57433333Y-90059580D02*
X57385714Y-90107200D01*
X57385714Y-90107200D02*
X57242857Y-90154819D01*
X57242857Y-90154819D02*
X57147619Y-90154819D01*
X57147619Y-90154819D02*
X57004762Y-90107200D01*
X57004762Y-90107200D02*
X56909524Y-90011961D01*
X56909524Y-90011961D02*
X56861905Y-89916723D01*
X56861905Y-89916723D02*
X56814286Y-89726247D01*
X56814286Y-89726247D02*
X56814286Y-89583390D01*
X56814286Y-89583390D02*
X56861905Y-89392914D01*
X56861905Y-89392914D02*
X56909524Y-89297676D01*
X56909524Y-89297676D02*
X57004762Y-89202438D01*
X57004762Y-89202438D02*
X57147619Y-89154819D01*
X57147619Y-89154819D02*
X57242857Y-89154819D01*
X57242857Y-89154819D02*
X57385714Y-89202438D01*
X57385714Y-89202438D02*
X57433333Y-89250057D01*
X57814286Y-89250057D02*
X57861905Y-89202438D01*
X57861905Y-89202438D02*
X57957143Y-89154819D01*
X57957143Y-89154819D02*
X58195238Y-89154819D01*
X58195238Y-89154819D02*
X58290476Y-89202438D01*
X58290476Y-89202438D02*
X58338095Y-89250057D01*
X58338095Y-89250057D02*
X58385714Y-89345295D01*
X58385714Y-89345295D02*
X58385714Y-89440533D01*
X58385714Y-89440533D02*
X58338095Y-89583390D01*
X58338095Y-89583390D02*
X57766667Y-90154819D01*
X57766667Y-90154819D02*
X58385714Y-90154819D01*
X48833333Y-79654819D02*
X48500000Y-79178628D01*
X48261905Y-79654819D02*
X48261905Y-78654819D01*
X48261905Y-78654819D02*
X48642857Y-78654819D01*
X48642857Y-78654819D02*
X48738095Y-78702438D01*
X48738095Y-78702438D02*
X48785714Y-78750057D01*
X48785714Y-78750057D02*
X48833333Y-78845295D01*
X48833333Y-78845295D02*
X48833333Y-78988152D01*
X48833333Y-78988152D02*
X48785714Y-79083390D01*
X48785714Y-79083390D02*
X48738095Y-79131009D01*
X48738095Y-79131009D02*
X48642857Y-79178628D01*
X48642857Y-79178628D02*
X48261905Y-79178628D01*
X49214286Y-78750057D02*
X49261905Y-78702438D01*
X49261905Y-78702438D02*
X49357143Y-78654819D01*
X49357143Y-78654819D02*
X49595238Y-78654819D01*
X49595238Y-78654819D02*
X49690476Y-78702438D01*
X49690476Y-78702438D02*
X49738095Y-78750057D01*
X49738095Y-78750057D02*
X49785714Y-78845295D01*
X49785714Y-78845295D02*
X49785714Y-78940533D01*
X49785714Y-78940533D02*
X49738095Y-79083390D01*
X49738095Y-79083390D02*
X49166667Y-79654819D01*
X49166667Y-79654819D02*
X49785714Y-79654819D01*
X104685833Y-66304819D02*
X104352500Y-65828628D01*
X104114405Y-66304819D02*
X104114405Y-65304819D01*
X104114405Y-65304819D02*
X104495357Y-65304819D01*
X104495357Y-65304819D02*
X104590595Y-65352438D01*
X104590595Y-65352438D02*
X104638214Y-65400057D01*
X104638214Y-65400057D02*
X104685833Y-65495295D01*
X104685833Y-65495295D02*
X104685833Y-65638152D01*
X104685833Y-65638152D02*
X104638214Y-65733390D01*
X104638214Y-65733390D02*
X104590595Y-65781009D01*
X104590595Y-65781009D02*
X104495357Y-65828628D01*
X104495357Y-65828628D02*
X104114405Y-65828628D01*
X105542976Y-65304819D02*
X105352500Y-65304819D01*
X105352500Y-65304819D02*
X105257262Y-65352438D01*
X105257262Y-65352438D02*
X105209643Y-65400057D01*
X105209643Y-65400057D02*
X105114405Y-65542914D01*
X105114405Y-65542914D02*
X105066786Y-65733390D01*
X105066786Y-65733390D02*
X105066786Y-66114342D01*
X105066786Y-66114342D02*
X105114405Y-66209580D01*
X105114405Y-66209580D02*
X105162024Y-66257200D01*
X105162024Y-66257200D02*
X105257262Y-66304819D01*
X105257262Y-66304819D02*
X105447738Y-66304819D01*
X105447738Y-66304819D02*
X105542976Y-66257200D01*
X105542976Y-66257200D02*
X105590595Y-66209580D01*
X105590595Y-66209580D02*
X105638214Y-66114342D01*
X105638214Y-66114342D02*
X105638214Y-65876247D01*
X105638214Y-65876247D02*
X105590595Y-65781009D01*
X105590595Y-65781009D02*
X105542976Y-65733390D01*
X105542976Y-65733390D02*
X105447738Y-65685771D01*
X105447738Y-65685771D02*
X105257262Y-65685771D01*
X105257262Y-65685771D02*
X105162024Y-65733390D01*
X105162024Y-65733390D02*
X105114405Y-65781009D01*
X105114405Y-65781009D02*
X105066786Y-65876247D01*
X95333333Y-108959580D02*
X95285714Y-109007200D01*
X95285714Y-109007200D02*
X95142857Y-109054819D01*
X95142857Y-109054819D02*
X95047619Y-109054819D01*
X95047619Y-109054819D02*
X94904762Y-109007200D01*
X94904762Y-109007200D02*
X94809524Y-108911961D01*
X94809524Y-108911961D02*
X94761905Y-108816723D01*
X94761905Y-108816723D02*
X94714286Y-108626247D01*
X94714286Y-108626247D02*
X94714286Y-108483390D01*
X94714286Y-108483390D02*
X94761905Y-108292914D01*
X94761905Y-108292914D02*
X94809524Y-108197676D01*
X94809524Y-108197676D02*
X94904762Y-108102438D01*
X94904762Y-108102438D02*
X95047619Y-108054819D01*
X95047619Y-108054819D02*
X95142857Y-108054819D01*
X95142857Y-108054819D02*
X95285714Y-108102438D01*
X95285714Y-108102438D02*
X95333333Y-108150057D01*
X96190476Y-108054819D02*
X96000000Y-108054819D01*
X96000000Y-108054819D02*
X95904762Y-108102438D01*
X95904762Y-108102438D02*
X95857143Y-108150057D01*
X95857143Y-108150057D02*
X95761905Y-108292914D01*
X95761905Y-108292914D02*
X95714286Y-108483390D01*
X95714286Y-108483390D02*
X95714286Y-108864342D01*
X95714286Y-108864342D02*
X95761905Y-108959580D01*
X95761905Y-108959580D02*
X95809524Y-109007200D01*
X95809524Y-109007200D02*
X95904762Y-109054819D01*
X95904762Y-109054819D02*
X96095238Y-109054819D01*
X96095238Y-109054819D02*
X96190476Y-109007200D01*
X96190476Y-109007200D02*
X96238095Y-108959580D01*
X96238095Y-108959580D02*
X96285714Y-108864342D01*
X96285714Y-108864342D02*
X96285714Y-108626247D01*
X96285714Y-108626247D02*
X96238095Y-108531009D01*
X96238095Y-108531009D02*
X96190476Y-108483390D01*
X96190476Y-108483390D02*
X96095238Y-108435771D01*
X96095238Y-108435771D02*
X95904762Y-108435771D01*
X95904762Y-108435771D02*
X95809524Y-108483390D01*
X95809524Y-108483390D02*
X95761905Y-108531009D01*
X95761905Y-108531009D02*
X95714286Y-108626247D01*
X56508333Y-82254819D02*
X56175000Y-81778628D01*
X55936905Y-82254819D02*
X55936905Y-81254819D01*
X55936905Y-81254819D02*
X56317857Y-81254819D01*
X56317857Y-81254819D02*
X56413095Y-81302438D01*
X56413095Y-81302438D02*
X56460714Y-81350057D01*
X56460714Y-81350057D02*
X56508333Y-81445295D01*
X56508333Y-81445295D02*
X56508333Y-81588152D01*
X56508333Y-81588152D02*
X56460714Y-81683390D01*
X56460714Y-81683390D02*
X56413095Y-81731009D01*
X56413095Y-81731009D02*
X56317857Y-81778628D01*
X56317857Y-81778628D02*
X55936905Y-81778628D01*
X57365476Y-81588152D02*
X57365476Y-82254819D01*
X57127381Y-81207200D02*
X56889286Y-81921485D01*
X56889286Y-81921485D02*
X57508333Y-81921485D01*
X90620833Y-95204819D02*
X90287500Y-94728628D01*
X90049405Y-95204819D02*
X90049405Y-94204819D01*
X90049405Y-94204819D02*
X90430357Y-94204819D01*
X90430357Y-94204819D02*
X90525595Y-94252438D01*
X90525595Y-94252438D02*
X90573214Y-94300057D01*
X90573214Y-94300057D02*
X90620833Y-94395295D01*
X90620833Y-94395295D02*
X90620833Y-94538152D01*
X90620833Y-94538152D02*
X90573214Y-94633390D01*
X90573214Y-94633390D02*
X90525595Y-94681009D01*
X90525595Y-94681009D02*
X90430357Y-94728628D01*
X90430357Y-94728628D02*
X90049405Y-94728628D01*
X91525595Y-94204819D02*
X91049405Y-94204819D01*
X91049405Y-94204819D02*
X91001786Y-94681009D01*
X91001786Y-94681009D02*
X91049405Y-94633390D01*
X91049405Y-94633390D02*
X91144643Y-94585771D01*
X91144643Y-94585771D02*
X91382738Y-94585771D01*
X91382738Y-94585771D02*
X91477976Y-94633390D01*
X91477976Y-94633390D02*
X91525595Y-94681009D01*
X91525595Y-94681009D02*
X91573214Y-94776247D01*
X91573214Y-94776247D02*
X91573214Y-95014342D01*
X91573214Y-95014342D02*
X91525595Y-95109580D01*
X91525595Y-95109580D02*
X91477976Y-95157200D01*
X91477976Y-95157200D02*
X91382738Y-95204819D01*
X91382738Y-95204819D02*
X91144643Y-95204819D01*
X91144643Y-95204819D02*
X91049405Y-95157200D01*
X91049405Y-95157200D02*
X91001786Y-95109580D01*
D11*
%TO.C,U2*%
X66487349Y-92087349D02*
X70607349Y-92087349D01*
X66487349Y-92182349D02*
X66487349Y-92087349D01*
X66487349Y-97207349D02*
X66487349Y-97112349D01*
X70607349Y-92087349D02*
X70607349Y-92182349D01*
X70607349Y-97112349D02*
X70607349Y-97207349D01*
X70607349Y-97207349D02*
X66487349Y-97207349D01*
X71387349Y-97447349D02*
X70907349Y-97447349D01*
X71147349Y-97117349D01*
X71387349Y-97447349D01*
G36*
X71387349Y-97447349D02*
G01*
X70907349Y-97447349D01*
X71147349Y-97117349D01*
X71387349Y-97447349D01*
G37*
%TO.C,J2*%
X103420000Y-76150000D02*
X103420000Y-78150000D01*
X103420000Y-80050000D02*
X103420000Y-81950000D01*
X103420000Y-81950000D02*
X112820000Y-81950000D01*
X112820000Y-76150000D02*
X112820000Y-78150000D01*
X112820000Y-80050000D02*
X112820000Y-81950000D01*
%TO.C,R7*%
X108725436Y-66765000D02*
X109179564Y-66765000D01*
X108725436Y-68235000D02*
X109179564Y-68235000D01*
%TO.C,R3*%
X52585436Y-82565000D02*
X53039564Y-82565000D01*
X52585436Y-84035000D02*
X53039564Y-84035000D01*
%TO.C,U3*%
X52435000Y-73715000D02*
X52530000Y-73715000D01*
X52435000Y-77835000D02*
X52435000Y-73715000D01*
X52530000Y-77835000D02*
X52435000Y-77835000D01*
X57460000Y-73715000D02*
X57555000Y-73715000D01*
X57555000Y-73715000D02*
X57555000Y-77835000D01*
X57555000Y-77835000D02*
X57460000Y-77835000D01*
X52525000Y-78375000D02*
X52195000Y-78615000D01*
X52195000Y-78135000D01*
X52525000Y-78375000D01*
G36*
X52525000Y-78375000D02*
G01*
X52195000Y-78615000D01*
X52195000Y-78135000D01*
X52525000Y-78375000D01*
G37*
%TO.C,D2*%
X96950000Y-72450000D02*
X96950000Y-77960000D01*
X100250000Y-72450000D02*
X96950000Y-72450000D01*
X100250000Y-72450000D02*
X100250000Y-77960000D01*
%TO.C,C5*%
X97165000Y-104448748D02*
X97165000Y-104971252D01*
X98635000Y-104448748D02*
X98635000Y-104971252D01*
%TO.C,C1*%
X74522651Y-95933000D02*
X74522651Y-94867000D01*
X74562651Y-96168000D02*
X74562651Y-94632000D01*
X74602651Y-96347000D02*
X74602651Y-94453000D01*
X74642651Y-96497000D02*
X74642651Y-94303000D01*
X74682651Y-96628000D02*
X74682651Y-94172000D01*
X74722651Y-96746000D02*
X74722651Y-94054000D01*
X74762651Y-96853000D02*
X74762651Y-93947000D01*
X74802651Y-96952000D02*
X74802651Y-93848000D01*
X74842651Y-97044000D02*
X74842651Y-93756000D01*
X74882651Y-97131000D02*
X74882651Y-93669000D01*
X74922651Y-97213000D02*
X74922651Y-93587000D01*
X74962651Y-97290000D02*
X74962651Y-93510000D01*
X75002651Y-97364000D02*
X75002651Y-93436000D01*
X75042651Y-97434000D02*
X75042651Y-93366000D01*
X75082651Y-97501000D02*
X75082651Y-93299000D01*
X75122651Y-97565000D02*
X75122651Y-93235000D01*
X75162651Y-97627000D02*
X75162651Y-93173000D01*
X75202651Y-97687000D02*
X75202651Y-93113000D01*
X75242651Y-97744000D02*
X75242651Y-93056000D01*
X75282651Y-97800000D02*
X75282651Y-93000000D01*
X75322651Y-97853000D02*
X75322651Y-92947000D01*
X75362651Y-97905000D02*
X75362651Y-92895000D01*
X75402651Y-97955000D02*
X75402651Y-92845000D01*
X75442651Y-98004000D02*
X75442651Y-92796000D01*
X75482651Y-98051000D02*
X75482651Y-92749000D01*
X75522651Y-98096000D02*
X75522651Y-92704000D01*
X75562651Y-98141000D02*
X75562651Y-92659000D01*
X75602651Y-98184000D02*
X75602651Y-92616000D01*
X75642651Y-98226000D02*
X75642651Y-92574000D01*
X75682651Y-98267000D02*
X75682651Y-92533000D01*
X75722651Y-98306000D02*
X75722651Y-92494000D01*
X75762651Y-98345000D02*
X75762651Y-92455000D01*
X75802651Y-98382000D02*
X75802651Y-92418000D01*
X75842651Y-94360000D02*
X75842651Y-92381000D01*
X75842651Y-98419000D02*
X75842651Y-96440000D01*
X75882651Y-94360000D02*
X75882651Y-92345000D01*
X75882651Y-98455000D02*
X75882651Y-96440000D01*
X75922651Y-94360000D02*
X75922651Y-92311000D01*
X75922651Y-98489000D02*
X75922651Y-96440000D01*
X75962651Y-94360000D02*
X75962651Y-92277000D01*
X75962651Y-98523000D02*
X75962651Y-96440000D01*
X76002651Y-94360000D02*
X76002651Y-92244000D01*
X76002651Y-98556000D02*
X76002651Y-96440000D01*
X76042651Y-94360000D02*
X76042651Y-92212000D01*
X76042651Y-98588000D02*
X76042651Y-96440000D01*
X76082651Y-94360000D02*
X76082651Y-92181000D01*
X76082651Y-98619000D02*
X76082651Y-96440000D01*
X76122651Y-94360000D02*
X76122651Y-92150000D01*
X76122651Y-98650000D02*
X76122651Y-96440000D01*
X76162651Y-94360000D02*
X76162651Y-92120000D01*
X76162651Y-98680000D02*
X76162651Y-96440000D01*
X76202651Y-94360000D02*
X76202651Y-92091000D01*
X76202651Y-98709000D02*
X76202651Y-96440000D01*
X76242651Y-94360000D02*
X76242651Y-92063000D01*
X76242651Y-98737000D02*
X76242651Y-96440000D01*
X76282651Y-94360000D02*
X76282651Y-92035000D01*
X76282651Y-98765000D02*
X76282651Y-96440000D01*
X76322651Y-94360000D02*
X76322651Y-92008000D01*
X76322651Y-98792000D02*
X76322651Y-96440000D01*
X76362651Y-94360000D02*
X76362651Y-91982000D01*
X76362651Y-98818000D02*
X76362651Y-96440000D01*
X76402651Y-94360000D02*
X76402651Y-91957000D01*
X76402651Y-98843000D02*
X76402651Y-96440000D01*
X76442651Y-94360000D02*
X76442651Y-91932000D01*
X76442651Y-98868000D02*
X76442651Y-96440000D01*
X76482651Y-94360000D02*
X76482651Y-91907000D01*
X76482651Y-98893000D02*
X76482651Y-96440000D01*
X76522651Y-94360000D02*
X76522651Y-91884000D01*
X76522651Y-98916000D02*
X76522651Y-96440000D01*
X76562651Y-94360000D02*
X76562651Y-91861000D01*
X76562651Y-98939000D02*
X76562651Y-96440000D01*
X76602651Y-94360000D02*
X76602651Y-91838000D01*
X76602651Y-98962000D02*
X76602651Y-96440000D01*
X76642651Y-94360000D02*
X76642651Y-91816000D01*
X76642651Y-98984000D02*
X76642651Y-96440000D01*
X76682651Y-94360000D02*
X76682651Y-91795000D01*
X76682651Y-99005000D02*
X76682651Y-96440000D01*
X76722651Y-94360000D02*
X76722651Y-91774000D01*
X76722651Y-99026000D02*
X76722651Y-96440000D01*
X76762651Y-94360000D02*
X76762651Y-91754000D01*
X76762651Y-99046000D02*
X76762651Y-96440000D01*
X76802651Y-94360000D02*
X76802651Y-91734000D01*
X76802651Y-99066000D02*
X76802651Y-96440000D01*
X76842651Y-94360000D02*
X76842651Y-91715000D01*
X76842651Y-99085000D02*
X76842651Y-96440000D01*
X76882651Y-94360000D02*
X76882651Y-91696000D01*
X76882651Y-99104000D02*
X76882651Y-96440000D01*
X76922651Y-94360000D02*
X76922651Y-91678000D01*
X76922651Y-99122000D02*
X76922651Y-96440000D01*
X76962651Y-94360000D02*
X76962651Y-91660000D01*
X76962651Y-99140000D02*
X76962651Y-96440000D01*
X77002651Y-94360000D02*
X77002651Y-91643000D01*
X77002651Y-99157000D02*
X77002651Y-96440000D01*
X77042651Y-94360000D02*
X77042651Y-91627000D01*
X77042651Y-99173000D02*
X77042651Y-96440000D01*
X77082651Y-94360000D02*
X77082651Y-91611000D01*
X77082651Y-99189000D02*
X77082651Y-96440000D01*
X77122651Y-94360000D02*
X77122651Y-91595000D01*
X77122651Y-99205000D02*
X77122651Y-96440000D01*
X77162651Y-94360000D02*
X77162651Y-91580000D01*
X77162651Y-99220000D02*
X77162651Y-96440000D01*
X77202651Y-94360000D02*
X77202651Y-91565000D01*
X77202651Y-99235000D02*
X77202651Y-96440000D01*
X77242651Y-94360000D02*
X77242651Y-91551000D01*
X77242651Y-99249000D02*
X77242651Y-96440000D01*
X77282651Y-94360000D02*
X77282651Y-91537000D01*
X77282651Y-99263000D02*
X77282651Y-96440000D01*
X77322651Y-94360000D02*
X77322651Y-91524000D01*
X77322651Y-99276000D02*
X77322651Y-96440000D01*
X77362651Y-94360000D02*
X77362651Y-91511000D01*
X77362651Y-99289000D02*
X77362651Y-96440000D01*
X77402651Y-94360000D02*
X77402651Y-91499000D01*
X77402651Y-99301000D02*
X77402651Y-96440000D01*
X77442651Y-94360000D02*
X77442651Y-91487000D01*
X77442651Y-99313000D02*
X77442651Y-96440000D01*
X77482651Y-94360000D02*
X77482651Y-91475000D01*
X77482651Y-99325000D02*
X77482651Y-96440000D01*
X77522651Y-94360000D02*
X77522651Y-91464000D01*
X77522651Y-99336000D02*
X77522651Y-96440000D01*
X77562651Y-94360000D02*
X77562651Y-91453000D01*
X77562651Y-99347000D02*
X77562651Y-96440000D01*
X77602651Y-94360000D02*
X77602651Y-91443000D01*
X77602651Y-99357000D02*
X77602651Y-96440000D01*
X77642651Y-94360000D02*
X77642651Y-91433000D01*
X77642651Y-99367000D02*
X77642651Y-96440000D01*
X77682651Y-94360000D02*
X77682651Y-91424000D01*
X77682651Y-99376000D02*
X77682651Y-96440000D01*
X77722651Y-94360000D02*
X77722651Y-91415000D01*
X77722651Y-99385000D02*
X77722651Y-96440000D01*
X77762651Y-94360000D02*
X77762651Y-91407000D01*
X77762651Y-99393000D02*
X77762651Y-96440000D01*
X77802651Y-94360000D02*
X77802651Y-91398000D01*
X77802651Y-99402000D02*
X77802651Y-96440000D01*
X77842651Y-94360000D02*
X77842651Y-91391000D01*
X77842651Y-99409000D02*
X77842651Y-96440000D01*
X77882651Y-94360000D02*
X77882651Y-91383000D01*
X77882651Y-99417000D02*
X77882651Y-96440000D01*
X77922651Y-99423000D02*
X77922651Y-91377000D01*
X77962651Y-99430000D02*
X77962651Y-91370000D01*
X78002651Y-99436000D02*
X78002651Y-91364000D01*
X78042651Y-99442000D02*
X78042651Y-91358000D01*
X78082651Y-99447000D02*
X78082651Y-91353000D01*
X78122651Y-99452000D02*
X78122651Y-91348000D01*
X78162651Y-99456000D02*
X78162651Y-91344000D01*
X78202651Y-99461000D02*
X78202651Y-91339000D01*
X78242651Y-99464000D02*
X78242651Y-91336000D01*
X78282651Y-99468000D02*
X78282651Y-91332000D01*
X78322651Y-99470000D02*
X78322651Y-91330000D01*
X78362651Y-99473000D02*
X78362651Y-91327000D01*
X78402651Y-99475000D02*
X78402651Y-91325000D01*
X78442651Y-99477000D02*
X78442651Y-91323000D01*
X78482651Y-99478000D02*
X78482651Y-91322000D01*
X78522651Y-99479000D02*
X78522651Y-91321000D01*
X78562651Y-99480000D02*
X78562651Y-91320000D01*
X78602651Y-99480000D02*
X78602651Y-91320000D01*
X82612349Y-98115000D02*
X82612349Y-97315000D01*
X83012349Y-97715000D02*
X82212349Y-97715000D01*
X82722651Y-95400000D02*
G75*
G02*
X74482651Y-95400000I-4120000J0D01*
G01*
X74482651Y-95400000D02*
G75*
G02*
X82722651Y-95400000I4120000J0D01*
G01*
%TO.C,MK1*%
X46032500Y-74200000D02*
X46032500Y-74800000D01*
X46032500Y-74500000D02*
X45732500Y-74500000D01*
X46032500Y-74500000D02*
X46332500Y-74500000D01*
X45792500Y-76400000D02*
G75*
G02*
X39572500Y-76400000I-3110000J0D01*
G01*
X39572500Y-76400000D02*
G75*
G02*
X45792500Y-76400000I3110000J0D01*
G01*
%TO.C,U1*%
X65580000Y-58455000D02*
X65580000Y-64615000D01*
X65580000Y-58455000D02*
X83820000Y-58455000D01*
X65580000Y-83415000D02*
X65580000Y-84195000D01*
X65580000Y-84195000D02*
X66580000Y-84195000D01*
X83820000Y-58455000D02*
X83820000Y-64870000D01*
X83820000Y-83415000D02*
X83820000Y-84195000D01*
X83820000Y-84195000D02*
X82820000Y-84195000D01*
X65575000Y-65340000D02*
X65075000Y-65340000D01*
X65575000Y-64840000D01*
X65575000Y-65340000D01*
G36*
X65575000Y-65340000D02*
G01*
X65075000Y-65340000D01*
X65575000Y-64840000D01*
X65575000Y-65340000D01*
G37*
%TO.C,U4*%
X101827500Y-102000000D02*
X106447500Y-102000000D01*
X106447500Y-107470000D02*
X101827500Y-107470000D01*
X108327500Y-107255000D02*
X107997500Y-107015000D01*
X108327500Y-106775000D01*
X108327500Y-107255000D01*
G36*
X108327500Y-107255000D02*
G01*
X107997500Y-107015000D01*
X108327500Y-106775000D01*
X108327500Y-107255000D01*
G37*
%TO.C,D1*%
X89150000Y-72390000D02*
X89150000Y-77900000D01*
X92450000Y-72390000D02*
X89150000Y-72390000D01*
X92450000Y-72390000D02*
X92450000Y-77900000D01*
%TO.C,J3*%
X109840000Y-104570000D02*
X109840000Y-101920000D01*
X112600000Y-101920000D02*
X109840000Y-101920000D01*
X112600000Y-104570000D02*
X109840000Y-104570000D01*
X112600000Y-104570000D02*
X112600000Y-101920000D01*
X112600000Y-105840000D02*
X112600000Y-107220000D01*
X112600000Y-107220000D02*
X111220000Y-107220000D01*
%TO.C,R1*%
X47985436Y-71765000D02*
X48439564Y-71765000D01*
X47985436Y-73235000D02*
X48439564Y-73235000D01*
%TO.C,C3*%
X43988748Y-82165000D02*
X44511252Y-82165000D01*
X43988748Y-83635000D02*
X44511252Y-83635000D01*
%TO.C,C4*%
X97165000Y-101111252D02*
X97165000Y-100588748D01*
X98635000Y-101111252D02*
X98635000Y-100588748D01*
%TO.C,J1*%
X98200000Y-95510000D02*
X98200000Y-96560000D01*
X98400000Y-87160000D02*
X100300000Y-87160000D01*
X98400000Y-89860000D02*
X98400000Y-87160000D01*
X98400000Y-96360000D02*
X98400000Y-93760000D01*
X99250000Y-96560000D02*
X98200000Y-96560000D01*
X104300000Y-87160000D02*
X113100000Y-87160000D01*
X113100000Y-87160000D02*
X113100000Y-96360000D01*
X113100000Y-96360000D02*
X98400000Y-96360000D01*
%TO.C,C2*%
X53670000Y-95833000D02*
X53670000Y-94767000D01*
X53710000Y-96068000D02*
X53710000Y-94532000D01*
X53750000Y-96247000D02*
X53750000Y-94353000D01*
X53790000Y-96397000D02*
X53790000Y-94203000D01*
X53830000Y-96528000D02*
X53830000Y-94072000D01*
X53870000Y-96646000D02*
X53870000Y-93954000D01*
X53910000Y-96753000D02*
X53910000Y-93847000D01*
X53950000Y-96852000D02*
X53950000Y-93748000D01*
X53990000Y-96944000D02*
X53990000Y-93656000D01*
X54030000Y-97031000D02*
X54030000Y-93569000D01*
X54070000Y-97113000D02*
X54070000Y-93487000D01*
X54110000Y-97190000D02*
X54110000Y-93410000D01*
X54150000Y-97264000D02*
X54150000Y-93336000D01*
X54190000Y-97334000D02*
X54190000Y-93266000D01*
X54230000Y-97401000D02*
X54230000Y-93199000D01*
X54270000Y-97465000D02*
X54270000Y-93135000D01*
X54310000Y-97527000D02*
X54310000Y-93073000D01*
X54350000Y-97587000D02*
X54350000Y-93013000D01*
X54390000Y-97644000D02*
X54390000Y-92956000D01*
X54430000Y-97700000D02*
X54430000Y-92900000D01*
X54470000Y-97753000D02*
X54470000Y-92847000D01*
X54510000Y-97805000D02*
X54510000Y-92795000D01*
X54550000Y-97855000D02*
X54550000Y-92745000D01*
X54590000Y-97904000D02*
X54590000Y-92696000D01*
X54630000Y-97951000D02*
X54630000Y-92649000D01*
X54670000Y-97996000D02*
X54670000Y-92604000D01*
X54710000Y-98041000D02*
X54710000Y-92559000D01*
X54750000Y-98084000D02*
X54750000Y-92516000D01*
X54790000Y-98126000D02*
X54790000Y-92474000D01*
X54830000Y-98167000D02*
X54830000Y-92433000D01*
X54870000Y-98206000D02*
X54870000Y-92394000D01*
X54910000Y-98245000D02*
X54910000Y-92355000D01*
X54950000Y-98282000D02*
X54950000Y-92318000D01*
X54990000Y-94260000D02*
X54990000Y-92281000D01*
X54990000Y-98319000D02*
X54990000Y-96340000D01*
X55030000Y-94260000D02*
X55030000Y-92245000D01*
X55030000Y-98355000D02*
X55030000Y-96340000D01*
X55070000Y-94260000D02*
X55070000Y-92211000D01*
X55070000Y-98389000D02*
X55070000Y-96340000D01*
X55110000Y-94260000D02*
X55110000Y-92177000D01*
X55110000Y-98423000D02*
X55110000Y-96340000D01*
X55150000Y-94260000D02*
X55150000Y-92144000D01*
X55150000Y-98456000D02*
X55150000Y-96340000D01*
X55190000Y-94260000D02*
X55190000Y-92112000D01*
X55190000Y-98488000D02*
X55190000Y-96340000D01*
X55230000Y-94260000D02*
X55230000Y-92081000D01*
X55230000Y-98519000D02*
X55230000Y-96340000D01*
X55270000Y-94260000D02*
X55270000Y-92050000D01*
X55270000Y-98550000D02*
X55270000Y-96340000D01*
X55310000Y-94260000D02*
X55310000Y-92020000D01*
X55310000Y-98580000D02*
X55310000Y-96340000D01*
X55350000Y-94260000D02*
X55350000Y-91991000D01*
X55350000Y-98609000D02*
X55350000Y-96340000D01*
X55390000Y-94260000D02*
X55390000Y-91963000D01*
X55390000Y-98637000D02*
X55390000Y-96340000D01*
X55430000Y-94260000D02*
X55430000Y-91935000D01*
X55430000Y-98665000D02*
X55430000Y-96340000D01*
X55470000Y-94260000D02*
X55470000Y-91908000D01*
X55470000Y-98692000D02*
X55470000Y-96340000D01*
X55510000Y-94260000D02*
X55510000Y-91882000D01*
X55510000Y-98718000D02*
X55510000Y-96340000D01*
X55550000Y-94260000D02*
X55550000Y-91857000D01*
X55550000Y-98743000D02*
X55550000Y-96340000D01*
X55590000Y-94260000D02*
X55590000Y-91832000D01*
X55590000Y-98768000D02*
X55590000Y-96340000D01*
X55630000Y-94260000D02*
X55630000Y-91807000D01*
X55630000Y-98793000D02*
X55630000Y-96340000D01*
X55670000Y-94260000D02*
X55670000Y-91784000D01*
X55670000Y-98816000D02*
X55670000Y-96340000D01*
X55710000Y-94260000D02*
X55710000Y-91761000D01*
X55710000Y-98839000D02*
X55710000Y-96340000D01*
X55750000Y-94260000D02*
X55750000Y-91738000D01*
X55750000Y-98862000D02*
X55750000Y-96340000D01*
X55790000Y-94260000D02*
X55790000Y-91716000D01*
X55790000Y-98884000D02*
X55790000Y-96340000D01*
X55830000Y-94260000D02*
X55830000Y-91695000D01*
X55830000Y-98905000D02*
X55830000Y-96340000D01*
X55870000Y-94260000D02*
X55870000Y-91674000D01*
X55870000Y-98926000D02*
X55870000Y-96340000D01*
X55910000Y-94260000D02*
X55910000Y-91654000D01*
X55910000Y-98946000D02*
X55910000Y-96340000D01*
X55950000Y-94260000D02*
X55950000Y-91634000D01*
X55950000Y-98966000D02*
X55950000Y-96340000D01*
X55990000Y-94260000D02*
X55990000Y-91615000D01*
X55990000Y-98985000D02*
X55990000Y-96340000D01*
X56030000Y-94260000D02*
X56030000Y-91596000D01*
X56030000Y-99004000D02*
X56030000Y-96340000D01*
X56070000Y-94260000D02*
X56070000Y-91578000D01*
X56070000Y-99022000D02*
X56070000Y-96340000D01*
X56110000Y-94260000D02*
X56110000Y-91560000D01*
X56110000Y-99040000D02*
X56110000Y-96340000D01*
X56150000Y-94260000D02*
X56150000Y-91543000D01*
X56150000Y-99057000D02*
X56150000Y-96340000D01*
X56190000Y-94260000D02*
X56190000Y-91527000D01*
X56190000Y-99073000D02*
X56190000Y-96340000D01*
X56230000Y-94260000D02*
X56230000Y-91511000D01*
X56230000Y-99089000D02*
X56230000Y-96340000D01*
X56270000Y-94260000D02*
X56270000Y-91495000D01*
X56270000Y-99105000D02*
X56270000Y-96340000D01*
X56310000Y-94260000D02*
X56310000Y-91480000D01*
X56310000Y-99120000D02*
X56310000Y-96340000D01*
X56350000Y-94260000D02*
X56350000Y-91465000D01*
X56350000Y-99135000D02*
X56350000Y-96340000D01*
X56390000Y-94260000D02*
X56390000Y-91451000D01*
X56390000Y-99149000D02*
X56390000Y-96340000D01*
X56430000Y-94260000D02*
X56430000Y-91437000D01*
X56430000Y-99163000D02*
X56430000Y-96340000D01*
X56470000Y-94260000D02*
X56470000Y-91424000D01*
X56470000Y-99176000D02*
X56470000Y-96340000D01*
X56510000Y-94260000D02*
X56510000Y-91411000D01*
X56510000Y-99189000D02*
X56510000Y-96340000D01*
X56550000Y-94260000D02*
X56550000Y-91399000D01*
X56550000Y-99201000D02*
X56550000Y-96340000D01*
X56590000Y-94260000D02*
X56590000Y-91387000D01*
X56590000Y-99213000D02*
X56590000Y-96340000D01*
X56630000Y-94260000D02*
X56630000Y-91375000D01*
X56630000Y-99225000D02*
X56630000Y-96340000D01*
X56670000Y-94260000D02*
X56670000Y-91364000D01*
X56670000Y-99236000D02*
X56670000Y-96340000D01*
X56710000Y-94260000D02*
X56710000Y-91353000D01*
X56710000Y-99247000D02*
X56710000Y-96340000D01*
X56750000Y-94260000D02*
X56750000Y-91343000D01*
X56750000Y-99257000D02*
X56750000Y-96340000D01*
X56790000Y-94260000D02*
X56790000Y-91333000D01*
X56790000Y-99267000D02*
X56790000Y-96340000D01*
X56830000Y-94260000D02*
X56830000Y-91324000D01*
X56830000Y-99276000D02*
X56830000Y-96340000D01*
X56870000Y-94260000D02*
X56870000Y-91315000D01*
X56870000Y-99285000D02*
X56870000Y-96340000D01*
X56910000Y-94260000D02*
X56910000Y-91307000D01*
X56910000Y-99293000D02*
X56910000Y-96340000D01*
X56950000Y-94260000D02*
X56950000Y-91298000D01*
X56950000Y-99302000D02*
X56950000Y-96340000D01*
X56990000Y-94260000D02*
X56990000Y-91291000D01*
X56990000Y-99309000D02*
X56990000Y-96340000D01*
X57030000Y-94260000D02*
X57030000Y-91283000D01*
X57030000Y-99317000D02*
X57030000Y-96340000D01*
X57070000Y-99323000D02*
X57070000Y-91277000D01*
X57110000Y-99330000D02*
X57110000Y-91270000D01*
X57150000Y-99336000D02*
X57150000Y-91264000D01*
X57190000Y-99342000D02*
X57190000Y-91258000D01*
X57230000Y-99347000D02*
X57230000Y-91253000D01*
X57270000Y-99352000D02*
X57270000Y-91248000D01*
X57310000Y-99356000D02*
X57310000Y-91244000D01*
X57350000Y-99361000D02*
X57350000Y-91239000D01*
X57390000Y-99364000D02*
X57390000Y-91236000D01*
X57430000Y-99368000D02*
X57430000Y-91232000D01*
X57470000Y-99370000D02*
X57470000Y-91230000D01*
X57510000Y-99373000D02*
X57510000Y-91227000D01*
X57550000Y-99375000D02*
X57550000Y-91225000D01*
X57590000Y-99377000D02*
X57590000Y-91223000D01*
X57630000Y-99378000D02*
X57630000Y-91222000D01*
X57670000Y-99379000D02*
X57670000Y-91221000D01*
X57710000Y-99380000D02*
X57710000Y-91220000D01*
X57750000Y-99380000D02*
X57750000Y-91220000D01*
X61759698Y-98015000D02*
X61759698Y-97215000D01*
X62159698Y-97615000D02*
X61359698Y-97615000D01*
X61870000Y-95300000D02*
G75*
G02*
X53630000Y-95300000I-4120000J0D01*
G01*
X53630000Y-95300000D02*
G75*
G02*
X61870000Y-95300000I4120000J0D01*
G01*
%TO.C,R2*%
X48365000Y-76814564D02*
X48365000Y-76360436D01*
X49835000Y-76814564D02*
X49835000Y-76360436D01*
%TO.C,R6*%
X104625436Y-66765000D02*
X105079564Y-66765000D01*
X104625436Y-68235000D02*
X105079564Y-68235000D01*
%TO.C,C6*%
X97165000Y-108871252D02*
X97165000Y-108348748D01*
X98635000Y-108871252D02*
X98635000Y-108348748D01*
%TO.C,R4*%
X56660436Y-82565000D02*
X57114564Y-82565000D01*
X56660436Y-84035000D02*
X57114564Y-84035000D01*
%TO.C,R5*%
X90560436Y-95665000D02*
X91014564Y-95665000D01*
X90560436Y-97135000D02*
X91014564Y-97135000D01*
%TD*%
M02*
