%TF.GenerationSoftware,KiCad,Pcbnew,9.0.7*%
%TF.CreationDate,2026-04-29T13:09:46+03:00*%
%TF.ProjectId,PawsLink IoT,50617773-4c69-46e6-9b20-496f542e6b69,rev?*%
%TF.SameCoordinates,Original*%
%TF.FileFunction,Soldermask,Bot*%
%TF.FilePolarity,Negative*%
%FSLAX46Y46*%
G04 Gerber Fmt 4.6, Leading zero omitted, Abs format (unit mm)*
G04 Created by KiCad (PCBNEW 9.0.7) date 2026-04-29 13:09:46*
%MOMM*%
%LPD*%
G01*
G04 APERTURE LIST*
G04 APERTURE END LIST*
G36*
X112089134Y-104943806D02*
G01*
X112105355Y-104954645D01*
X112116194Y-104970866D01*
X112120000Y-104990000D01*
X112120000Y-106690000D01*
X112116194Y-106709134D01*
X112105355Y-106725355D01*
X112089134Y-106736194D01*
X112070000Y-106740000D01*
X110370000Y-106740000D01*
X110350866Y-106736194D01*
X110334645Y-106725355D01*
X110323806Y-106709134D01*
X110320000Y-106690000D01*
X110320000Y-104990000D01*
X110323806Y-104970866D01*
X110334645Y-104954645D01*
X110350866Y-104943806D01*
X110370000Y-104940000D01*
X112070000Y-104940000D01*
X112089134Y-104943806D01*
G37*
G36*
X111481256Y-102438754D02*
G01*
X111644257Y-102506271D01*
X111790954Y-102604291D01*
X111915709Y-102729046D01*
X112013729Y-102875743D01*
X112081246Y-103038744D01*
X112115666Y-103211785D01*
X112115666Y-103388215D01*
X112081246Y-103561256D01*
X112013729Y-103724257D01*
X111915709Y-103870954D01*
X111790954Y-103995709D01*
X111644257Y-104093729D01*
X111481256Y-104161246D01*
X111308215Y-104195666D01*
X111131785Y-104195666D01*
X110958744Y-104161246D01*
X110795743Y-104093729D01*
X110649046Y-103995709D01*
X110524291Y-103870954D01*
X110426271Y-103724257D01*
X110358754Y-103561256D01*
X110324334Y-103388215D01*
X110324334Y-103211785D01*
X110358754Y-103038744D01*
X110426271Y-102875743D01*
X110524291Y-102729046D01*
X110649046Y-102604291D01*
X110795743Y-102506271D01*
X110958744Y-102438754D01*
X111131785Y-102404334D01*
X111308215Y-102404334D01*
X111481256Y-102438754D01*
G37*
G36*
X80971336Y-94557969D02*
G01*
X80980009Y-94561798D01*
X80987576Y-94562901D01*
X81034874Y-94586023D01*
X81072192Y-94602501D01*
X81075647Y-94605956D01*
X81076571Y-94606408D01*
X81146242Y-94676079D01*
X81146693Y-94677002D01*
X81150150Y-94680459D01*
X81166629Y-94717782D01*
X81189749Y-94765073D01*
X81190851Y-94772639D01*
X81194682Y-94781315D01*
X81202651Y-94850000D01*
X81202651Y-95950000D01*
X81194682Y-96018685D01*
X81190850Y-96027361D01*
X81189749Y-96034925D01*
X81166636Y-96082202D01*
X81150150Y-96119541D01*
X81146692Y-96122998D01*
X81146242Y-96123920D01*
X81076571Y-96193591D01*
X81075649Y-96194041D01*
X81072192Y-96197499D01*
X81034858Y-96213983D01*
X80987577Y-96237098D01*
X80980012Y-96238200D01*
X80971336Y-96242031D01*
X80902651Y-96250000D01*
X79802651Y-96250000D01*
X79733966Y-96242031D01*
X79725289Y-96238200D01*
X79717725Y-96237098D01*
X79670438Y-96213981D01*
X79633110Y-96197499D01*
X79629653Y-96194042D01*
X79628730Y-96193591D01*
X79559059Y-96123920D01*
X79558607Y-96122996D01*
X79555152Y-96119541D01*
X79538676Y-96082228D01*
X79515552Y-96034926D01*
X79514449Y-96027357D01*
X79510620Y-96018685D01*
X79502651Y-95950000D01*
X79502651Y-94850000D01*
X79510620Y-94781315D01*
X79514449Y-94772642D01*
X79515552Y-94765074D01*
X79538679Y-94717766D01*
X79555152Y-94680459D01*
X79558606Y-94677004D01*
X79559059Y-94676079D01*
X79628730Y-94606408D01*
X79629655Y-94605955D01*
X79633110Y-94602501D01*
X79670412Y-94586030D01*
X79717724Y-94562901D01*
X79725293Y-94561798D01*
X79733966Y-94557969D01*
X79802651Y-94550000D01*
X80902651Y-94550000D01*
X80971336Y-94557969D01*
G37*
G36*
X77099393Y-94586601D02*
G01*
X77253338Y-94650367D01*
X77391885Y-94742941D01*
X77509710Y-94860766D01*
X77602284Y-94999313D01*
X77666050Y-95153258D01*
X77698558Y-95316685D01*
X77698558Y-95483315D01*
X77666050Y-95646742D01*
X77602284Y-95800687D01*
X77509710Y-95939234D01*
X77391885Y-96057059D01*
X77253338Y-96149633D01*
X77099393Y-96213399D01*
X76935966Y-96245907D01*
X76769336Y-96245907D01*
X76605909Y-96213399D01*
X76451964Y-96149633D01*
X76313417Y-96057059D01*
X76195592Y-95939234D01*
X76103018Y-95800687D01*
X76039252Y-95646742D01*
X76006744Y-95483315D01*
X76006744Y-95316685D01*
X76039252Y-95153258D01*
X76103018Y-94999313D01*
X76195592Y-94860766D01*
X76313417Y-94742941D01*
X76451964Y-94650367D01*
X76605909Y-94586601D01*
X76769336Y-94554093D01*
X76935966Y-94554093D01*
X77099393Y-94586601D01*
G37*
G36*
X60118685Y-94457969D02*
G01*
X60127358Y-94461798D01*
X60134925Y-94462901D01*
X60182223Y-94486023D01*
X60219541Y-94502501D01*
X60222996Y-94505956D01*
X60223920Y-94506408D01*
X60293591Y-94576079D01*
X60294042Y-94577002D01*
X60297499Y-94580459D01*
X60313978Y-94617782D01*
X60337098Y-94665073D01*
X60338200Y-94672639D01*
X60342031Y-94681315D01*
X60350000Y-94750000D01*
X60350000Y-95850000D01*
X60342031Y-95918685D01*
X60338199Y-95927361D01*
X60337098Y-95934925D01*
X60313985Y-95982202D01*
X60297499Y-96019541D01*
X60294041Y-96022998D01*
X60293591Y-96023920D01*
X60223920Y-96093591D01*
X60222998Y-96094041D01*
X60219541Y-96097499D01*
X60182207Y-96113983D01*
X60134926Y-96137098D01*
X60127361Y-96138200D01*
X60118685Y-96142031D01*
X60050000Y-96150000D01*
X58950000Y-96150000D01*
X58881315Y-96142031D01*
X58872638Y-96138200D01*
X58865074Y-96137098D01*
X58817787Y-96113981D01*
X58780459Y-96097499D01*
X58777002Y-96094042D01*
X58776079Y-96093591D01*
X58706408Y-96023920D01*
X58705956Y-96022996D01*
X58702501Y-96019541D01*
X58686025Y-95982228D01*
X58662901Y-95934926D01*
X58661798Y-95927357D01*
X58657969Y-95918685D01*
X58650000Y-95850000D01*
X58650000Y-94750000D01*
X58657969Y-94681315D01*
X58661798Y-94672642D01*
X58662901Y-94665074D01*
X58686028Y-94617766D01*
X58702501Y-94580459D01*
X58705955Y-94577004D01*
X58706408Y-94576079D01*
X58776079Y-94506408D01*
X58777004Y-94505955D01*
X58780459Y-94502501D01*
X58817761Y-94486030D01*
X58865073Y-94462901D01*
X58872642Y-94461798D01*
X58881315Y-94457969D01*
X58950000Y-94450000D01*
X60050000Y-94450000D01*
X60118685Y-94457969D01*
G37*
G36*
X56246742Y-94486601D02*
G01*
X56400687Y-94550367D01*
X56539234Y-94642941D01*
X56657059Y-94760766D01*
X56749633Y-94899313D01*
X56813399Y-95053258D01*
X56845907Y-95216685D01*
X56845907Y-95383315D01*
X56813399Y-95546742D01*
X56749633Y-95700687D01*
X56657059Y-95839234D01*
X56539234Y-95957059D01*
X56400687Y-96049633D01*
X56246742Y-96113399D01*
X56083315Y-96145907D01*
X55916685Y-96145907D01*
X55753258Y-96113399D01*
X55599313Y-96049633D01*
X55460766Y-95957059D01*
X55342941Y-95839234D01*
X55250367Y-95700687D01*
X55186601Y-95546742D01*
X55154093Y-95383315D01*
X55154093Y-95216685D01*
X55186601Y-95053258D01*
X55250367Y-94899313D01*
X55342941Y-94760766D01*
X55460766Y-94642941D01*
X55599313Y-94550367D01*
X55753258Y-94486601D01*
X55916685Y-94454093D01*
X56083315Y-94454093D01*
X56246742Y-94486601D01*
G37*
G36*
X101069134Y-89963806D02*
G01*
X101085355Y-89974645D01*
X101096194Y-89990866D01*
X101100000Y-90010000D01*
X101100000Y-93510000D01*
X101096194Y-93529134D01*
X101085355Y-93545355D01*
X101069134Y-93556194D01*
X101050000Y-93560000D01*
X97550000Y-93560000D01*
X97530866Y-93556194D01*
X97514645Y-93545355D01*
X97503806Y-93529134D01*
X97500000Y-93510000D01*
X97500000Y-90010000D01*
X97503806Y-89990866D01*
X97514645Y-89974645D01*
X97530866Y-89963806D01*
X97550000Y-89960000D01*
X101050000Y-89960000D01*
X101069134Y-89963806D01*
G37*
G36*
X106052550Y-89960287D02*
G01*
X106156962Y-89967367D01*
X106191405Y-89975932D01*
X106228017Y-89980058D01*
X106277212Y-89997272D01*
X106325774Y-90009349D01*
X106359434Y-90026042D01*
X106397107Y-90039225D01*
X106438662Y-90065335D01*
X106480695Y-90086182D01*
X106512405Y-90111671D01*
X106548792Y-90134535D01*
X106581342Y-90167085D01*
X106615476Y-90194523D01*
X106642913Y-90228656D01*
X106675465Y-90261208D01*
X106698328Y-90297595D01*
X106723817Y-90329304D01*
X106744661Y-90371334D01*
X106770775Y-90412893D01*
X106783958Y-90450569D01*
X106800650Y-90484225D01*
X106812725Y-90532780D01*
X106829942Y-90581983D01*
X106834067Y-90618599D01*
X106842632Y-90653037D01*
X106849710Y-90757429D01*
X106850000Y-90760000D01*
X106850000Y-92760000D01*
X106849710Y-92762573D01*
X106842632Y-92866962D01*
X106834067Y-92901398D01*
X106829942Y-92938017D01*
X106812724Y-92987222D01*
X106800650Y-93035774D01*
X106783959Y-93069427D01*
X106770775Y-93107107D01*
X106744659Y-93148669D01*
X106723817Y-93190695D01*
X106698331Y-93222399D01*
X106675465Y-93258792D01*
X106642909Y-93291347D01*
X106615476Y-93325476D01*
X106581347Y-93352909D01*
X106548792Y-93385465D01*
X106512399Y-93408331D01*
X106480695Y-93433817D01*
X106438669Y-93454659D01*
X106397107Y-93480775D01*
X106359427Y-93493959D01*
X106325774Y-93510650D01*
X106277222Y-93522724D01*
X106228017Y-93539942D01*
X106191398Y-93544067D01*
X106156962Y-93552632D01*
X106052571Y-93559710D01*
X106050000Y-93560000D01*
X104550000Y-93560000D01*
X104547428Y-93559710D01*
X104443037Y-93552632D01*
X104408599Y-93544067D01*
X104371983Y-93539942D01*
X104322780Y-93522725D01*
X104274225Y-93510650D01*
X104240569Y-93493958D01*
X104202893Y-93480775D01*
X104161334Y-93454661D01*
X104119304Y-93433817D01*
X104087595Y-93408328D01*
X104051208Y-93385465D01*
X104018656Y-93352913D01*
X103984523Y-93325476D01*
X103957085Y-93291342D01*
X103924535Y-93258792D01*
X103901671Y-93222405D01*
X103876182Y-93190695D01*
X103855335Y-93148662D01*
X103829225Y-93107107D01*
X103816042Y-93069434D01*
X103799349Y-93035774D01*
X103787272Y-92987212D01*
X103770058Y-92938017D01*
X103765932Y-92901405D01*
X103757367Y-92866962D01*
X103750287Y-92762549D01*
X103750000Y-92760000D01*
X103750000Y-90760000D01*
X103750287Y-90757450D01*
X103757367Y-90653037D01*
X103765933Y-90618592D01*
X103770058Y-90581983D01*
X103787271Y-90532790D01*
X103799349Y-90484225D01*
X103816043Y-90450562D01*
X103829225Y-90412893D01*
X103855333Y-90371341D01*
X103876182Y-90329304D01*
X103901674Y-90297589D01*
X103924535Y-90261208D01*
X103957081Y-90228661D01*
X103984523Y-90194523D01*
X104018661Y-90167081D01*
X104051208Y-90134535D01*
X104087589Y-90111674D01*
X104119304Y-90086182D01*
X104161341Y-90065333D01*
X104202893Y-90039225D01*
X104240562Y-90026043D01*
X104274225Y-90009349D01*
X104322790Y-89997271D01*
X104371983Y-89980058D01*
X104408592Y-89975933D01*
X104443037Y-89967367D01*
X104547452Y-89960287D01*
X104550000Y-89960000D01*
X106050000Y-89960000D01*
X106052550Y-89960287D01*
G37*
G36*
X103319702Y-85271388D02*
G01*
X103329055Y-85273894D01*
X103337837Y-85274675D01*
X103424311Y-85299418D01*
X103506490Y-85321438D01*
X103513178Y-85324845D01*
X103518033Y-85326235D01*
X103602568Y-85370392D01*
X103678791Y-85409230D01*
X103682193Y-85411984D01*
X103683876Y-85412864D01*
X103769869Y-85482983D01*
X103829074Y-85530926D01*
X103877043Y-85590163D01*
X103947135Y-85676123D01*
X103948013Y-85677805D01*
X103950770Y-85681209D01*
X103989626Y-85757468D01*
X104033764Y-85841966D01*
X104035152Y-85846818D01*
X104038562Y-85853510D01*
X104060592Y-85935727D01*
X104085324Y-86022162D01*
X104086104Y-86030939D01*
X104088612Y-86040298D01*
X104100000Y-86185000D01*
X104100000Y-87935000D01*
X104088612Y-88079702D01*
X104086104Y-88089061D01*
X104085324Y-88097837D01*
X104060596Y-88184256D01*
X104038562Y-88266490D01*
X104035151Y-88273182D01*
X104033764Y-88278033D01*
X103989647Y-88362490D01*
X103950770Y-88438791D01*
X103948012Y-88442196D01*
X103947135Y-88443876D01*
X103877160Y-88529691D01*
X103829074Y-88589074D01*
X103769691Y-88637160D01*
X103683876Y-88707135D01*
X103682196Y-88708012D01*
X103678791Y-88710770D01*
X103602490Y-88749647D01*
X103518033Y-88793764D01*
X103513182Y-88795151D01*
X103506490Y-88798562D01*
X103424256Y-88820596D01*
X103337837Y-88845324D01*
X103329061Y-88846104D01*
X103319702Y-88848612D01*
X103175000Y-88860000D01*
X101425000Y-88860000D01*
X101280298Y-88848612D01*
X101270939Y-88846104D01*
X101262162Y-88845324D01*
X101175727Y-88820592D01*
X101093510Y-88798562D01*
X101086818Y-88795152D01*
X101081966Y-88793764D01*
X100997468Y-88749626D01*
X100921209Y-88710770D01*
X100917805Y-88708013D01*
X100916123Y-88707135D01*
X100830163Y-88637043D01*
X100770926Y-88589074D01*
X100722983Y-88529869D01*
X100652864Y-88443876D01*
X100651984Y-88442193D01*
X100649230Y-88438791D01*
X100610392Y-88362568D01*
X100566235Y-88278033D01*
X100564845Y-88273178D01*
X100561438Y-88266490D01*
X100539418Y-88184311D01*
X100514675Y-88097837D01*
X100513894Y-88089055D01*
X100511388Y-88079702D01*
X100500000Y-87935000D01*
X100500000Y-86185000D01*
X100511388Y-86040298D01*
X100513894Y-86030945D01*
X100514675Y-86022162D01*
X100539422Y-85935672D01*
X100561438Y-85853510D01*
X100564845Y-85846822D01*
X100566235Y-85841966D01*
X100610413Y-85757390D01*
X100649230Y-85681209D01*
X100651983Y-85677808D01*
X100652864Y-85676123D01*
X100723100Y-85589985D01*
X100770926Y-85530926D01*
X100829985Y-85483100D01*
X100916123Y-85412864D01*
X100917808Y-85411983D01*
X100921209Y-85409230D01*
X100997390Y-85370413D01*
X101081966Y-85326235D01*
X101086822Y-85324845D01*
X101093510Y-85321438D01*
X101175672Y-85299422D01*
X101262162Y-85274675D01*
X101270945Y-85273894D01*
X101280298Y-85271388D01*
X101425000Y-85260000D01*
X103175000Y-85260000D01*
X103319702Y-85271388D01*
G37*
G36*
X104010476Y-78291866D02*
G01*
X104134819Y-78363656D01*
X104236344Y-78465181D01*
X104308134Y-78589524D01*
X104345295Y-78728211D01*
X104350000Y-78800000D01*
X104350000Y-79400000D01*
X104345295Y-79471789D01*
X104308134Y-79610476D01*
X104236344Y-79734819D01*
X104134819Y-79836344D01*
X104010476Y-79908134D01*
X103871789Y-79945295D01*
X103728211Y-79945295D01*
X103589524Y-79908134D01*
X103465181Y-79836344D01*
X103363656Y-79734819D01*
X103291866Y-79610476D01*
X103254705Y-79471789D01*
X103250000Y-79400000D01*
X103250000Y-78800000D01*
X103254705Y-78728211D01*
X103291866Y-78589524D01*
X103363656Y-78465181D01*
X103465181Y-78363656D01*
X103589524Y-78291866D01*
X103728211Y-78254705D01*
X103871789Y-78254705D01*
X104010476Y-78291866D01*
G37*
G36*
X112650476Y-78291866D02*
G01*
X112774819Y-78363656D01*
X112876344Y-78465181D01*
X112948134Y-78589524D01*
X112985295Y-78728211D01*
X112990000Y-78800000D01*
X112990000Y-79400000D01*
X112985295Y-79471789D01*
X112948134Y-79610476D01*
X112876344Y-79734819D01*
X112774819Y-79836344D01*
X112650476Y-79908134D01*
X112511789Y-79945295D01*
X112368211Y-79945295D01*
X112229524Y-79908134D01*
X112105181Y-79836344D01*
X112003656Y-79734819D01*
X111931866Y-79610476D01*
X111894705Y-79471789D01*
X111890000Y-79400000D01*
X111890000Y-78800000D01*
X111894705Y-78728211D01*
X111931866Y-78589524D01*
X112003656Y-78465181D01*
X112105181Y-78363656D01*
X112229524Y-78291866D01*
X112368211Y-78254705D01*
X112511789Y-78254705D01*
X112650476Y-78291866D01*
G37*
G36*
X104010476Y-73861866D02*
G01*
X104134819Y-73933656D01*
X104236344Y-74035181D01*
X104308134Y-74159524D01*
X104345295Y-74298211D01*
X104350000Y-74370000D01*
X104350000Y-75470000D01*
X104345295Y-75541789D01*
X104308134Y-75680476D01*
X104236344Y-75804819D01*
X104134819Y-75906344D01*
X104010476Y-75978134D01*
X103871789Y-76015295D01*
X103728211Y-76015295D01*
X103589524Y-75978134D01*
X103465181Y-75906344D01*
X103363656Y-75804819D01*
X103291866Y-75680476D01*
X103254705Y-75541789D01*
X103250000Y-75470000D01*
X103250000Y-74370000D01*
X103254705Y-74298211D01*
X103291866Y-74159524D01*
X103363656Y-74035181D01*
X103465181Y-73933656D01*
X103589524Y-73861866D01*
X103728211Y-73824705D01*
X103871789Y-73824705D01*
X104010476Y-73861866D01*
G37*
G36*
X112650476Y-73861866D02*
G01*
X112774819Y-73933656D01*
X112876344Y-74035181D01*
X112948134Y-74159524D01*
X112985295Y-74298211D01*
X112990000Y-74370000D01*
X112990000Y-75470000D01*
X112985295Y-75541789D01*
X112948134Y-75680476D01*
X112876344Y-75804819D01*
X112774819Y-75906344D01*
X112650476Y-75978134D01*
X112511789Y-76015295D01*
X112368211Y-76015295D01*
X112229524Y-75978134D01*
X112105181Y-75906344D01*
X112003656Y-75804819D01*
X111931866Y-75680476D01*
X111894705Y-75541789D01*
X111890000Y-75470000D01*
X111890000Y-74370000D01*
X111894705Y-74298211D01*
X111931866Y-74159524D01*
X112003656Y-74035181D01*
X112105181Y-73933656D01*
X112229524Y-73861866D01*
X112368211Y-73824705D01*
X112511789Y-73824705D01*
X112650476Y-73861866D01*
G37*
G36*
X42051185Y-74857969D02*
G01*
X42059858Y-74861798D01*
X42067425Y-74862901D01*
X42114723Y-74886023D01*
X42152041Y-74902501D01*
X42155496Y-74905956D01*
X42156420Y-74906408D01*
X42226091Y-74976079D01*
X42226542Y-74977002D01*
X42229999Y-74980459D01*
X42246478Y-75017782D01*
X42269598Y-75065073D01*
X42270700Y-75072639D01*
X42274531Y-75081315D01*
X42282500Y-75150000D01*
X42282500Y-75650000D01*
X42274531Y-75718685D01*
X42270699Y-75727361D01*
X42269598Y-75734925D01*
X42246485Y-75782202D01*
X42229999Y-75819541D01*
X42226541Y-75822998D01*
X42226091Y-75823920D01*
X42156420Y-75893591D01*
X42155498Y-75894041D01*
X42152041Y-75897499D01*
X42114707Y-75913983D01*
X42067426Y-75937098D01*
X42059861Y-75938200D01*
X42051185Y-75942031D01*
X41982500Y-75950000D01*
X41482500Y-75950000D01*
X41413815Y-75942031D01*
X41405138Y-75938200D01*
X41397574Y-75937098D01*
X41350287Y-75913981D01*
X41312959Y-75897499D01*
X41309502Y-75894042D01*
X41308579Y-75893591D01*
X41238908Y-75823920D01*
X41238456Y-75822996D01*
X41235001Y-75819541D01*
X41218525Y-75782228D01*
X41195401Y-75734926D01*
X41194298Y-75727357D01*
X41190469Y-75718685D01*
X41182500Y-75650000D01*
X41182500Y-75150000D01*
X41190469Y-75081315D01*
X41194298Y-75072642D01*
X41195401Y-75065074D01*
X41218528Y-75017766D01*
X41235001Y-74980459D01*
X41238455Y-74977004D01*
X41238908Y-74976079D01*
X41308579Y-74906408D01*
X41309504Y-74905955D01*
X41312959Y-74902501D01*
X41350261Y-74886030D01*
X41397573Y-74862901D01*
X41405142Y-74861798D01*
X41413815Y-74857969D01*
X41482500Y-74850000D01*
X41982500Y-74850000D01*
X42051185Y-74857969D01*
G37*
G36*
X43842976Y-74891866D02*
G01*
X43967319Y-74963656D01*
X44068844Y-75065181D01*
X44140634Y-75189524D01*
X44177795Y-75328211D01*
X44177795Y-75471789D01*
X44140634Y-75610476D01*
X44068844Y-75734819D01*
X43967319Y-75836344D01*
X43842976Y-75908134D01*
X43704289Y-75945295D01*
X43560711Y-75945295D01*
X43422024Y-75908134D01*
X43297681Y-75836344D01*
X43196156Y-75734819D01*
X43124366Y-75610476D01*
X43087205Y-75471789D01*
X43087205Y-75328211D01*
X43124366Y-75189524D01*
X43196156Y-75065181D01*
X43297681Y-74963656D01*
X43422024Y-74891866D01*
X43560711Y-74854705D01*
X43704289Y-74854705D01*
X43842976Y-74891866D01*
G37*
G36*
X105373506Y-75103545D02*
G01*
X105458286Y-75152492D01*
X105527508Y-75221714D01*
X105576455Y-75306494D01*
X105601792Y-75401053D01*
X105601792Y-75498947D01*
X105576455Y-75593506D01*
X105527508Y-75678286D01*
X105458286Y-75747508D01*
X105373506Y-75796455D01*
X105278947Y-75821792D01*
X105181053Y-75821792D01*
X105086494Y-75796455D01*
X105001714Y-75747508D01*
X104932492Y-75678286D01*
X104883545Y-75593506D01*
X104858208Y-75498947D01*
X104858208Y-75401053D01*
X104883545Y-75306494D01*
X104932492Y-75221714D01*
X105001714Y-75152492D01*
X105086494Y-75103545D01*
X105181053Y-75078208D01*
X105278947Y-75078208D01*
X105373506Y-75103545D01*
G37*
G36*
X111153506Y-75103545D02*
G01*
X111238286Y-75152492D01*
X111307508Y-75221714D01*
X111356455Y-75306494D01*
X111381792Y-75401053D01*
X111381792Y-75498947D01*
X111356455Y-75593506D01*
X111307508Y-75678286D01*
X111238286Y-75747508D01*
X111153506Y-75796455D01*
X111058947Y-75821792D01*
X110961053Y-75821792D01*
X110866494Y-75796455D01*
X110781714Y-75747508D01*
X110712492Y-75678286D01*
X110663545Y-75593506D01*
X110638208Y-75498947D01*
X110638208Y-75401053D01*
X110663545Y-75306494D01*
X110712492Y-75221714D01*
X110781714Y-75152492D01*
X110866494Y-75103545D01*
X110961053Y-75078208D01*
X111058947Y-75078208D01*
X111153506Y-75103545D01*
G37*
M02*
